<?xml version="1.0" encoding="utf-8"?>
<!-- Generator: Adobe Illustrator 21.1.0, SVG Export Plug-In . SVG Version: 6.00 Build 0)  -->
<svg xmlns="http://www.w3.org/2000/svg" xmlns:xlink="http://www.w3.org/1999/xlink" version="1.1" id="Layer_1" x="0px" y="0px" viewBox="0 0 200 200" enable-background="new 0 0 200 200" xml:space="preserve">
<path fill="#fccdb9" d="M187.5,102.1c0-24.5-10.4-46.6-27-61.9c-15.1-17-36.8-27.7-60.8-27.7c-27.3,0-51.5,13.7-66.6,34.9  C20.3,62.2,12.5,81.7,12.5,103c0,46.6,37.1,84.5,82.8,84.5c6.8,0,13.5-0.9,19.9-2.5C155.8,180.1,187.5,144.8,187.5,102.1z   M99.6,179.9c-6.7,0-13.2-0.9-19.5-2.5c-30.8-10.7-53-40.4-53-75.3c0-42.1,32.4-76.7,73.1-79.3C141.4,25.4,174,60.4,174,103  c0,23.2-9.7,44.2-25.2,58.9C135.3,173.1,118.2,179.9,99.6,179.9z M36.2,49.9c8.7-10.1,19.9-18,32.5-22.6  c-27,13.7-45.6,42.1-45.6,74.8c0,14.2,3.5,27.6,9.7,39.4c-7.6-12.5-12-27.4-12-43.2C20.9,80.1,26.6,63.4,36.2,49.9z M132.1,27.4  c9.5,3.5,18.1,8.9,25.5,15.7c12.9,14.5,20.7,33.9,20.7,55.1c0,2.9-0.2,5.8-0.4,8.6c0.1-1.3,0.1-2.5,0.1-3.8  C178,69.9,159.3,41.3,132.1,27.4z M125.1,21c-6.3-1.6-12.9-2.5-19.8-2.5c-1.7,0-3.4,0.1-5,0.2c-1.7-0.1-3.3-0.2-5-0.2  c-8.6,0-16.9,1.4-24.7,3.8c9-3.7,18.8-5.8,29.1-5.8C108.5,16.6,117.1,18.1,125.1,21z M16.5,103c0-2.8,0.2-5.7,0.4-8.4  c0,1.2-0.1,2.4-0.1,3.6c0,39.9,26.5,73.5,62.2,83c1.2,0.4,2.5,0.8,3.8,1.2C45.3,176.3,16.5,143,16.5,103z M144.8,170.6  c2.3-1.8,4.5-3.7,6.7-5.7c18.8-15.7,30.9-39.8,30.9-66.7c0-5.7-0.6-11.3-1.6-16.7c1.7,6.6,2.7,13.5,2.7,20.6  C183.5,131.3,167.9,156.8,144.8,170.6z"/>
<g transform="translate(30 30) scale(0.7)"><path d="m104.92 40c-9 0-16.832 1.8327-23.832 5.166-7.1667 3.5-13.001 8.0013-17.834 13.668-4.8333 5.6666-8.5 12-11 19-1.8333 5-2.834 9.9987-3.334 14.832h15.164c0.5-3.1667 1.166-6.3333 2.166-9.5 1.6667-5.5 4.334-10.499 7.834-14.832 3.3333-4.3333 7.666-8.0013 12.666-10.668s10.833-4.166 17.5-4.166c3 0 5.9994 0.33333 9.166 1 3 0.66667 6 1.834 9 3.334 2.8333 1.6667 5.668 3.666 8.168 6.166 2.5 2.6667 4.6666 5.8333 6.5 9.5l11.832-7.666c-3.66-7.667-9.33-13.835-16.83-18.668-7.66-4.667-16.66-7.166-27.16-7.166zm-56.004 66.67c0.66667 5 1.8347 9.8346 3.668 14.668 2.6666 7.3333 6.5 13.833 11.5 19.5 5 5.6667 10.833 10.332 17.666 13.832 6.6666 3.6667 14.167 5.334 22.334 5.334 4.5 0 9.1667-0.50066 14-1.834 4.6666-1.1667 9.1667-2.832 13.5-5.332 4.3333-2.1667 8.1667-5.1667 11.5-8.5s6-7.334 8-11.834l-12.5-6.834c-1.6666 3.6667-3.8334 6.8333-6.5 9.5-2.6667 2.6667-5.5006 4.8333-8.334 6.5-3.1667 1.6667-6.1667 3.0013-9.5 3.668-3.3333 0.83334-6.5 1.166-9.5 1.166-6 0-11.334-1.1673-16.334-3.834-5-2.5-9.3333-5.9987-13-10.332-3.8333-4.3333-6.666-9.1673-8.666-14.834-1.3333-3.5-2.166-7.0007-2.666-10.834z" fill="#ffffff"/></g></svg>
