<?xml version="1.0" encoding="utf-8"?>
<!-- Generator: Adobe Illustrator 21.1.0, SVG Export Plug-In . SVG Version: 6.00 Build 0)  -->
<svg xmlns="http://www.w3.org/2000/svg" xmlns:xlink="http://www.w3.org/1999/xlink" version="1.1" id="Layer_1" x="0px" y="0px" viewBox="0 0 200 200" enable-background="new 0 0 200 200" xml:space="preserve">
<path fill="#fccdb9" d="M104,14.3c21,1.1,39.8,9.4,54.4,22.6l-5.7,5.7c-12.9-11.8-30.1-19.4-48.7-20.5V14.3z M164.1,42.6  C177.2,57.1,185.6,76,186.7,97h-8.1c-0.8-18.8-8.3-35.8-20.2-48.7L164.1,42.6z M186.7,105c-1.1,21-9.4,39.8-22.6,54.4l-5.7-5.7  c11.8-12.9,19.4-30.1,20.2-48.7H186.7z M158.4,165.1c-14.5,13.2-33.4,21.5-54.4,22.6v-8.1c18.6-0.8,35.8-8.3,48.7-20.2L158.4,165.1z   M96,187.7c-21-1.1-39.8-9.4-54.4-22.6l5.7-5.7c12.9,11.8,29.9,19.4,48.7,20.2V187.7z M35.9,159.4C22.8,144.9,14.4,126,13.3,105h7.8  c1.1,18.6,8.6,35.8,20.5,48.7L35.9,159.4z M13.3,97c1.1-21,9.4-39.8,22.6-54.4l5.7,5.7C29.8,61.2,22.2,78.1,21.1,97H13.3z   M41.6,36.9C56.1,23.8,75,15.4,96,14.3v7.8c-18.8,1.1-35.8,8.6-48.7,20.5L41.6,36.9z"/>
<g transform="translate(30 30) scale(0.7)"><path d="m104.92 40c-9 0-16.832 1.8327-23.832 5.166-7.1667 3.5-13.001 8.0013-17.834 13.668-4.8333 5.6666-8.5 12-11 19-1.8333 5-2.834 9.9987-3.334 14.832h15.164c0.5-3.1667 1.166-6.3333 2.166-9.5 1.6667-5.5 4.334-10.499 7.834-14.832 3.3333-4.3333 7.666-8.0013 12.666-10.668s10.833-4.166 17.5-4.166c3 0 5.9994 0.33333 9.166 1 3 0.66667 6 1.834 9 3.334 2.8333 1.6667 5.668 3.666 8.168 6.166 2.5 2.6667 4.6666 5.8333 6.5 9.5l11.832-7.666c-3.66-7.667-9.33-13.835-16.83-18.668-7.66-4.667-16.66-7.166-27.16-7.166zm-56.004 66.67c0.66667 5 1.8347 9.8346 3.668 14.668 2.6666 7.3333 6.5 13.833 11.5 19.5 5 5.6667 10.833 10.332 17.666 13.832 6.6666 3.6667 14.167 5.334 22.334 5.334 4.5 0 9.1667-0.50066 14-1.834 4.6666-1.1667 9.1667-2.832 13.5-5.332 4.3333-2.1667 8.1667-5.1667 11.5-8.5s6-7.334 8-11.834l-12.5-6.834c-1.6666 3.6667-3.8334 6.8333-6.5 9.5-2.6667 2.6667-5.5006 4.8333-8.334 6.5-3.1667 1.6667-6.1667 3.0013-9.5 3.668-3.3333 0.83334-6.5 1.166-9.5 1.166-6 0-11.334-1.1673-16.334-3.834-5-2.5-9.3333-5.9987-13-10.332-3.8333-4.3333-6.666-9.1673-8.666-14.834-1.3333-3.5-2.166-7.0007-2.666-10.834z" fill="#ffffff"/></g></svg>
