<?xml version="1.0" encoding="utf-8"?>
<!-- Generator: Adobe Illustrator 21.1.0, SVG Export Plug-In . SVG Version: 6.00 Build 0)  -->
<svg xmlns="http://www.w3.org/2000/svg" xmlns:xlink="http://www.w3.org/1999/xlink" version="1.1" id="Layer_1" x="0px" y="0px" viewBox="0 0 200 200" enable-background="new 0 0 200 200" xml:space="preserve">
<path fill="#fccdb9" d="M109.1,23.2c1.4,0.2,2.9,0.2,4.4,0.2c0.5,0,1.1,0,1.6,0l1.1,0c0.6,0,1.2,0,1.8,0l0.5,0  c6.4-0.1,7.5-1.2,7.8-1.6c0.4-0.5,0.6-1,0.4-1.6c-0.2-0.7-1-1.5-4.9-2.2c-2.3-0.4-4.8-0.6-7.5-0.6c-1.3,0-2.8,0.1-4.2,0.2  c-3.5,0.2-5.8,0.7-6.1,2.3c-0.1,0.5,0,1,0.3,1.4C104.9,22.3,106.3,22.8,109.1,23.2z M183.3,130.3c0-3.4-0.1-6.8-0.1-10.2  c-0.1-6.8-0.2-13.8-0.2-20.7c0-12.2-0.2-24.6-0.3-36.6l0-3.5l-0.2-20l-0.1-10l0-11.2c0-0.6-0.4-1-1-1l-9.2,0c0,0-8.6-0.1-8.9-0.1  c-8.1,0-9.6,1.4-9.9,2.5c-0.2,0.6-0.2,1.5,1,2.6c1,0.9,2.5,1.2,5.4,1.2c0.3,0,0.6,0,0.9,0l9.8-0.2l6.1-0.1l0.1,9.3l0.2,13  c0.1,4.5,0,9.1-0.1,13.5c-0.1,6-0.2,12.2,0.1,18.2c0.4,7.4,0.4,15,0.4,22.3l0,3.3c0,1.8,0,3.6,0,5.4c0,2.8,0,5.5,0,8.3l0.1,5.3  c0.1,11.7,0.3,23.9-0.4,35.7c-0.1,1.2-0.1,2.4-0.1,3.5c0,0.8,0,1.7,0,2.5c-0.1,2.4-0.1,5.1-0.1,8.1l0.1,4l0,0.9  c-0.1,0-4.1,0.1-4.1,0.1c-0.6,0-1.1,0-1.7,0c-2,0-3.9,0-5.6-0.1c-3-0.1-6.1-0.2-9.6-0.2c-5,0-10,0.1-14.8,0.2  c-4.8,0.1-9.8,0.2-14.8,0.2c-0.9,0-1.9,0-2.8,0l-2.6,0c-4.7,0-9.4-0.1-14-0.1c-7.2,0-13,0.1-18.4,0.3c-1.4-0.1-2.8-0.2-4.2-0.2  c-2.3,0-4.6,0.1-7,0.5c-2.8,0.4-4.3,0.9-4.9,1.8c-0.3,0.4-0.4,1-0.2,1.5c0.4,1.3,2.1,2,6,2.3c2.2,0.2,4.5,0.3,6.7,0.3  c1.7,0,3.5-0.1,5.3-0.2c0.8,0,1.5-0.1,2.3-0.2c2.7-0.2,5.6-0.4,8.3-0.4c0.4,0,0.8,0,1.1,0c4.5,0.1,9.4,0.1,14.8,0.1  c7.1,0,14.2-0.1,21.2-0.2c6.8-0.1,13.8-0.2,20.7-0.2l23.3,0c0.6,0,1-0.4,1-1l0-10.3l0.1-8.7c0.1-6.3,0.2-12,0.3-17.4  C183.3,139.6,183.4,134.7,183.3,130.3z M60.3,16.3l-0.3,0c-1.5,0-3,0.1-4,0.2c-2.3,0.2-4.7,0.3-7.5,0.3c-1.8,0-3.7,0-6-0.1  c-3.7-0.1-7.7-0.2-12.5-0.2c-1.6,0-3.1,0-4.7,0l-7.2,0c-0.3,0-0.5,0.1-0.7,0.3C17.1,17,17,17.2,17,17.5l0.3,21.9  c0.1,8,0,14.2-0.1,20l-0.4,22.3c-0.2,11.7-0.1,23.6,0,35.1c0.1,8.2,0.2,16.7,0.1,25c0,4.3,0.1,8.7,0.2,13c0.2,6.6,0.3,13.4,0,20.2  c-0.2,3.9,0.6,4.8,0.9,5.1c0.2,0.2,0.5,0.4,0.8,0.5c0.1,1.1,1.5,1.6,3.6,2c3.5,0.6,7.3,1,11.2,1.2c0.7,0,1.3,0,1.9,0  c2.5,0,8.6-0.2,9.8-2.4c0.3-0.6,0.3-1.2,0-1.7c-0.3-0.5-1.3-2.2-10.6-2.3c-0.6,0-1.1,0-1.7,0c-3.8,0-7.4,0.5-10.8,1.1  c-0.7,0.1-1.5,0.3-2,0.5c0.1-1.6,0.1-3.2,0.2-4.7c0.1-4.2,0.3-8.5,0.6-12.5c0.4-5.2,0.7-10.7,0.8-17.8c0.2-12.7,0.2-25.5,0.2-37.8  c0-2.5,0-5-0.1-7.5C22.1,92.8,22,87,22.3,81.2c0.5-10.3,0.5-20.5,0.5-30c0-4.3-0.1-8.7-0.2-12.9l-0.1-3l-0.1-7.9l0-4l0-1.4l4.3,0.1  c5.3,0.2,10.8,0.2,16,0.3c5.4,0,11,0.1,16.5,0.3c0.3,0,0.6,0,1,0c3.1,0,9.9-0.8,10.3-3c0.1-0.4,0-0.9-0.4-1.3  C68.6,16.5,61.6,16.3,60.3,16.3z"/>
<g transform="translate(30 30) scale(0.7)">
  
  <defs id="defs120564"/>
  <linearGradient id="3d_gradient2-logo-d5739de8-df84-4712-b4f4-476bade4a76a" x1="30%" y1="120%" x2="-10%" y2="30%" spreadMethod="pad">
    <stop offset="0%" stop-color="#ffffff" stop-opacity="1" id="stop120541"/>
    <stop offset="100%" stop-color="#000000" stop-opacity="1" id="stop120543"/>
  </linearGradient>
  <linearGradient id="3d_gradient3-logo-d5739de8-df84-4712-b4f4-476bade4a76a" x1="30%" y1="120%" x2="-10%" y2="30%" spreadMethod="pad" gradientTransform="rotate(-30)">
    <stop offset="0%" stop-color="#ffffff" stop-opacity="1" id="stop120546"/>
    <stop offset="50%" stop-color="#cccccc" stop-opacity="1" id="stop120548"/>
    <stop offset="100%" stop-color="#000000" stop-opacity="1" id="stop120550"/>
  </linearGradient>
  <path id="path120569" style="font-style:normal;font-weight:500;font-size:72px;line-height:1;font-family:'Raleway Medium Alt1';font-variant-ligatures:none;text-align:center;text-anchor:middle;fill:#f7a8b8;stroke:#f7a8b8;stroke-width:0;stroke-linejoin:miter;stroke-miterlimit:2" d="m 66.249993,83.166657 c 1.666689,-5.5 4.333333,-10.5 7.833333,-14.833333 3.333333,-4.333333 7.66669,-8 12.666666,-10.666667 5.000024,-2.666666 10.833334,-4.166666 17.499998,-4.166666 3,0 6,0.333333 9.16667,1 3.00002,0.666666 6.00002,1.833333 9,3.333333 2.83333,1.666667 5.66667,3.666667 8.16667,6.166667 2.5,2.666666 4.66666,5.833333 6.50002,9.5 l 11.83331,-7.666667 c -3.66667,-7.666667 -9.33333,-13.833333 -16.83333,-18.666667 -7.66667,-4.666666 -16.66667,-7.166666 -27.16667,-7.166666 -9.000001,0 -16.833311,1.833333 -23.833311,5.166666 -7.16669,3.5 -13.000023,8 -17.833356,13.666667 -4.833334,5.666667 -8.5,12 -11,19 -1.83331,5 -2.833334,10 -3.333334,14.833333 h 15.16669 c 0.5,-3.166667 1.166644,-6.333333 2.166644,-9.5 z m 72.333337,42.500003 c -1.66665,3.66666 -3.83334,6.83333 -6.5,9.5 -2.66667,2.66666 -5.49998,4.83333 -8.33334,6.5 -3.16666,1.66666 -6.16666,3 -9.5,3.66666 -3.33333,0.83334 -6.5,1.16667 -9.5,1.16667 -5.999974,0 -11.333331,-1.16667 -16.333308,-3.83333 -5.000023,-2.5 -9.333356,-6 -13.000023,-10.33334 -3.83331,-4.33333 -6.666666,-9.16666 -8.666666,-14.83333 -1.333334,-3.5 -2.166644,-7 -2.666644,-10.83333 h -15.16669 c 0.666667,5 1.833357,9.83333 3.666667,14.66666 2.666667,7.33334 6.5,13.83334 11.500023,19.5 4.999977,5.66667 10.833333,10.33334 17.666667,13.83334 6.666666,3.66666 14.166643,5.33333 22.333314,5.33333 4.5,0 9.16669,-0.5 14,-1.83333 4.66669,-1.16667 9.16669,-2.83334 13.5,-5.33334 4.33333,-2.16666 8.16666,-5.16666 11.5,-8.5 3.33333,-3.33333 6,-7.33333 8.00002,-11.83333 z" stroke-miterlimit="2"/>
</g></svg>
