<?xml version="1.0" encoding="utf-8"?>
<!-- Generator: Adobe Illustrator 21.1.0, SVG Export Plug-In . SVG Version: 6.00 Build 0)  -->
<svg xmlns="http://www.w3.org/2000/svg" xmlns:xlink="http://www.w3.org/1999/xlink" version="1.1" id="Layer_1" x="0px" y="0px" viewBox="0 0 200 200" enable-background="new 0 0 200 200" xml:space="preserve">
<path d="M183,100l-0.1,20.8l-0.2,8.6l-0.4,6.5l-0.6,5.5l-0.7,4.7l-0.9,4.2l-1.1,3.8l-1.3,3.4  l-1.4,3.1l-1.6,2.9l-1.8,2.6l-2,2.4l-2.2,2.2l-2.4,2l-2.6,1.8l-2.9,1.6l-3.1,1.4l-3.4,1.3l-3.8,1.1l-4.2,0.9l-4.7,0.7l-5.5,0.6  l-6.5,0.4l-8.6,0.2L100,183l-20.8-0.1l-8.6-0.2l-6.5-0.4l-5.5-0.6l-4.7-0.7l-4.2-0.9l-3.8-1.1l-3.4-1.3l-3.1-1.4l-2.9-1.6l-2.6-1.8  l-2.4-2l-2.2-2.2l-2-2.4l-1.8-2.6l-1.6-2.9l-1.4-3.1l-1.3-3.4l-1.1-3.8l-0.9-4.2l-0.7-4.7l-0.6-5.5l-0.4-6.5l-0.2-8.6L17,100  l0.1-20.8l0.2-8.6l0.4-6.5l0.6-5.5l0.7-4.7l0.9-4.2l1.1-3.8l1.3-3.4l1.4-3.1l1.6-2.9l1.8-2.6l2-2.4l2.2-2.2l2.4-2l2.6-1.8l2.9-1.6  l3.1-1.4l3.4-1.3l3.8-1.1l4.2-0.9l4.7-0.7l5.5-0.6l6.5-0.4l8.6-0.2L100,17l20.8,0.1l8.6,0.2l6.5,0.4l5.5,0.6l4.7,0.7l4.2,0.9  l3.8,1.1l3.4,1.3l3.1,1.4l2.9,1.6l2.6,1.8l2.4,2l2.2,2.2l2,2.4l1.8,2.6l1.6,2.9l1.4,3.1l1.3,3.4l1.1,3.8l0.9,4.2l0.7,4.7l0.6,5.5  l0.4,6.5l0.2,8.6L183,100L183,100z" fill="#ffffff"/>
<g transform="translate(30 30) scale(0.7)"><path d="m104.92 40c-9 0-16.832 1.8327-23.832 5.166-7.1667 3.5-13.001 8.0013-17.834 13.668-4.8333 5.6666-8.5 12-11 19-1.8333 5-2.834 9.9987-3.334 14.832h15.164c0.5-3.1667 1.166-6.3333 2.166-9.5 1.6667-5.5 4.334-10.499 7.834-14.832 3.3333-4.3333 7.666-8.0013 12.666-10.668s10.833-4.166 17.5-4.166c3 0 5.9994 0.33333 9.166 1 3 0.66667 6 1.834 9 3.334 2.8333 1.6667 5.668 3.666 8.168 6.166 2.5 2.6667 4.6666 5.8333 6.5 9.5l11.832-7.666c-3.66-7.667-9.33-13.835-16.83-18.668-7.66-4.667-16.66-7.166-27.16-7.166zm-56.004 66.67c0.66667 5 1.8347 9.8346 3.668 14.668 2.6666 7.3333 6.5 13.833 11.5 19.5 5 5.6667 10.833 10.332 17.666 13.832 6.6666 3.6667 14.167 5.334 22.334 5.334 4.5 0 9.1667-0.50066 14-1.834 4.6666-1.1667 9.1667-2.832 13.5-5.332 4.3333-2.1667 8.1667-5.1667 11.5-8.5s6-7.334 8-11.834l-12.5-6.834c-1.6666 3.6667-3.8334 6.8333-6.5 9.5-2.6667 2.6667-5.5006 4.8333-8.334 6.5-3.1667 1.6667-6.1667 3.0013-9.5 3.668-3.3333 0.83334-6.5 1.166-9.5 1.166-6 0-11.334-1.1673-16.334-3.834-5-2.5-9.3333-5.9987-13-10.332-3.8333-4.3333-6.666-9.1673-8.666-14.834-1.3333-3.5-2.166-7.0007-2.666-10.834z" fill="#ffffff"/></g></svg>
