<?xml version="1.0" encoding="utf-8"?>
<!-- Generator: Adobe Illustrator 21.1.0, SVG Export Plug-In . SVG Version: 6.00 Build 0)  -->
<svg xmlns="http://www.w3.org/2000/svg" xmlns:xlink="http://www.w3.org/1999/xlink" version="1.1" id="Layer_1" x="0px" y="0px" viewBox="0 0 200 200" enable-background="new 0 0 200 200" xml:space="preserve">
<rect width="200" height="200" fill="#fccdb9"/><path fill="#ffffff" d="M108.2,29.3c0-1.8-1.5-3.3-3.3-3.3c-1.8,0-3.2,1.5-3.2,3.3c0,1.8,1.4,3.2,3.2,3.2  C106.7,32.5,108.2,31.1,108.2,29.3z M94.3,29.7c0-1.8-1.5-3.2-3.3-3.2c-1.8,0-3.3,1.4-3.3,3.2c0,1.8,1.5,3.3,3.3,3.3  C92.8,32.9,94.3,31.5,94.3,29.7z M121.9,31.6c0-1.8-1.5-3.3-3.3-3.3c-1.8,0-3.3,1.5-3.3,3.3c0,1.8,1.5,3.2,3.3,3.2  C120.4,34.8,121.9,33.4,121.9,31.6z M80.7,32.8c0-1.8-1.5-3.3-3.3-3.3c-1.8,0-3.2,1.5-3.2,3.3s1.4,3.3,3.2,3.3  C79.2,36.1,80.7,34.6,80.7,32.8z M134.9,36.5c0-1.8-1.5-3.3-3.3-3.3c-1.8,0-3.3,1.5-3.3,3.3c0,1.8,1.5,3.3,3.3,3.3  C133.4,39.8,134.9,38.3,134.9,36.5z M68,38.5c0-1.8-1.4-3.3-3.2-3.3c-1.8,0-3.3,1.5-3.3,3.3c0,1.8,1.5,3.2,3.3,3.2  C66.6,41.7,68,40.3,68,38.5z M146.7,43.9c0-1.8-1.5-3.3-3.3-3.3c-1.8,0-3.3,1.5-3.3,3.3c0,1.8,1.5,3.2,3.3,3.2  C145.2,47.2,146.7,45.7,146.7,43.9z M56.7,46.5c0-1.8-1.5-3.2-3.3-3.2s-3.2,1.4-3.2,3.2c0,1.8,1.4,3.3,3.2,3.3S56.7,48.3,56.7,46.5z   M156.7,53.4c0-1.8-1.4-3.2-3.2-3.2c-1.8,0-3.3,1.4-3.3,3.2c0,1.8,1.5,3.3,3.3,3.3C155.3,56.7,156.7,55.3,156.7,53.4z M47.2,56.6  c0-1.8-1.4-3.3-3.2-3.3c-1.8,0-3.3,1.5-3.3,3.3c0,1.8,1.5,3.3,3.3,3.3C45.7,59.9,47.2,58.4,47.2,56.6z M161.5,68  c1.8,0,3.3-1.4,3.3-3.2c0-1.8-1.5-3.3-3.3-3.3c-1.8,0-3.2,1.5-3.2,3.3C158.3,66.6,159.7,68,161.5,68z M36.5,71.7  c1.8,0,3.3-1.5,3.3-3.3c0-1.8-1.5-3.3-3.3-3.3s-3.3,1.5-3.3,3.3C33.3,70.2,34.7,71.7,36.5,71.7z M167.2,80.7c1.8,0,3.3-1.5,3.3-3.3  c0-1.8-1.5-3.2-3.3-3.2c-1.8,0-3.3,1.4-3.3,3.2C163.9,79.2,165.4,80.7,167.2,80.7z M31.6,84.7c1.8,0,3.2-1.5,3.2-3.3  c0-1.8-1.4-3.3-3.2-3.3c-1.8,0-3.3,1.5-3.3,3.3C28.3,83.2,29.8,84.7,31.6,84.7z M167.1,91c0,1.8,1.5,3.3,3.3,3.3s3.2-1.5,3.2-3.3  c0-1.8-1.4-3.3-3.2-3.3S167.1,89.2,167.1,91z M29.3,98.4c1.8,0,3.2-1.4,3.2-3.2c0-1.8-1.4-3.3-3.2-3.3c-1.8,0-3.3,1.5-3.3,3.3  C26,96.9,27.5,98.4,29.3,98.4z M170.7,101.6c-1.8,0-3.2,1.4-3.2,3.2c0,1.8,1.4,3.3,3.2,3.3c1.8,0,3.3-1.5,3.3-3.3  C174,103.1,172.5,101.6,170.7,101.6z M32.9,109c0-1.8-1.5-3.3-3.3-3.3s-3.2,1.5-3.2,3.3c0,1.8,1.4,3.3,3.2,3.3S32.9,110.8,32.9,109z   M168.4,115.3c-1.8,0-3.2,1.5-3.2,3.3c0,1.8,1.4,3.3,3.2,3.3c1.8,0,3.3-1.5,3.3-3.3C171.7,116.8,170.2,115.3,168.4,115.3z   M32.8,119.3c-1.8,0-3.3,1.5-3.3,3.3c0,1.8,1.5,3.2,3.3,3.2c1.8,0,3.3-1.4,3.3-3.2C36.1,120.8,34.6,119.3,32.8,119.3z M163.5,128.3  c-1.8,0-3.3,1.5-3.3,3.3c0,1.8,1.5,3.3,3.3,3.3s3.3-1.5,3.3-3.3C166.7,129.8,165.3,128.3,163.5,128.3z M38.5,132  c-1.8,0-3.3,1.4-3.3,3.2s1.5,3.3,3.3,3.3c1.8,0,3.2-1.5,3.2-3.3S40.3,132,38.5,132z M156.1,140.1c-1.8,0-3.2,1.5-3.2,3.3  c0,1.8,1.4,3.3,3.2,3.3c1.8,0,3.3-1.5,3.3-3.3C159.3,141.6,157.9,140.1,156.1,140.1z M46.5,143.3c-1.8,0-3.2,1.5-3.2,3.3  s1.4,3.2,3.2,3.2c1.8,0,3.3-1.4,3.3-3.2S48.3,143.3,46.5,143.3z M146.6,150.2c-1.8,0-3.3,1.5-3.3,3.3c0,1.8,1.5,3.2,3.3,3.2  c1.8,0,3.2-1.4,3.2-3.2C149.8,151.7,148.4,150.2,146.6,150.2z M56.6,152.8c-1.8,0-3.3,1.4-3.3,3.2c0,1.8,1.5,3.3,3.3,3.3  c1.8,0,3.3-1.5,3.3-3.3C59.9,154.3,58.4,152.8,56.6,152.8z M135.2,158.3c-1.8,0-3.2,1.4-3.2,3.2c0,1.8,1.4,3.3,3.2,3.3  c1.8,0,3.3-1.5,3.3-3.3C138.5,159.7,137,158.3,135.2,158.3z M68.4,160.2c-1.8,0-3.3,1.5-3.3,3.3s1.5,3.3,3.3,3.3  c1.8,0,3.3-1.5,3.3-3.3S70.2,160.2,68.4,160.2z M122.6,163.9c-1.8,0-3.3,1.5-3.3,3.3c0,1.8,1.5,3.3,3.3,3.3c1.8,0,3.2-1.5,3.2-3.3  C125.8,165.4,124.4,163.9,122.6,163.9z M81.4,165.2c-1.8,0-3.3,1.4-3.3,3.2c0,1.8,1.5,3.3,3.3,3.3c1.8,0,3.3-1.5,3.3-3.3  C84.7,166.6,83.2,165.2,81.4,165.2z M109,167.1c-1.8,0-3.3,1.5-3.3,3.3c0,1.8,1.5,3.2,3.3,3.2c1.8,0,3.3-1.4,3.3-3.2  C112.3,168.5,110.8,167.1,109,167.1z M95.1,167.5c-1.8,0-3.3,1.4-3.3,3.2c0,1.8,1.5,3.3,3.3,3.3c1.8,0,3.2-1.5,3.2-3.3  S96.9,167.5,95.1,167.5z M100,14.5c-47.2,0-85.5,38.3-85.5,85.5c0,47.2,38.3,85.5,85.5,85.5c47.2,0,85.5-38.3,85.5-85.5  C185.5,52.8,147.2,14.5,100,14.5z M100,180.6c-44.5,0-80.6-36.1-80.6-80.6c0-44.5,36.1-80.6,80.6-80.6s80.6,36.1,80.6,80.6  C180.6,144.5,144.5,180.6,100,180.6z"/>
<g transform="translate(30 30) scale(0.7)"><path d="m104.92 40c-9 0-16.832 1.8327-23.832 5.166-7.1667 3.5-13.001 8.0013-17.834 13.668-4.8333 5.6666-8.5 12-11 19-1.8333 5-2.834 9.9987-3.334 14.832h15.164c0.5-3.1667 1.166-6.3333 2.166-9.5 1.6667-5.5 4.334-10.499 7.834-14.832 3.3333-4.3333 7.666-8.0013 12.666-10.668s10.833-4.166 17.5-4.166c3 0 5.9994 0.33333 9.166 1 3 0.66667 6 1.834 9 3.334 2.8333 1.6667 5.668 3.666 8.168 6.166 2.5 2.6667 4.6666 5.8333 6.5 9.5l11.832-7.666c-3.66-7.667-9.33-13.835-16.83-18.668-7.66-4.667-16.66-7.166-27.16-7.166zm-56.004 66.67c0.66667 5 1.8347 9.8346 3.668 14.668 2.6666 7.3333 6.5 13.833 11.5 19.5 5 5.6667 10.833 10.332 17.666 13.832 6.6666 3.6667 14.167 5.334 22.334 5.334 4.5 0 9.1667-0.50066 14-1.834 4.6666-1.1667 9.1667-2.832 13.5-5.332 4.3333-2.1667 8.1667-5.1667 11.5-8.5s6-7.334 8-11.834l-12.5-6.834c-1.6666 3.6667-3.8334 6.8333-6.5 9.5-2.6667 2.6667-5.5006 4.8333-8.334 6.5-3.1667 1.6667-6.1667 3.0013-9.5 3.668-3.3333 0.83334-6.5 1.166-9.5 1.166-6 0-11.334-1.1673-16.334-3.834-5-2.5-9.3333-5.9987-13-10.332-3.8333-4.3333-6.666-9.1673-8.666-14.834-1.3333-3.5-2.166-7.0007-2.666-10.834z" fill="#ffffff"/></g></svg>
