<?xml version="1.0" encoding="utf-8"?>
<!-- Generator: Adobe Illustrator 21.1.0, SVG Export Plug-In . SVG Version: 6.00 Build 0)  -->
<svg xmlns="http://www.w3.org/2000/svg" xmlns:xlink="http://www.w3.org/1999/xlink" version="1.1" id="Layer_1" x="0px" y="0px" viewBox="0 0 200 200" enable-background="new 0 0 200 200" xml:space="preserve">
<rect width="200" height="200" fill="#fccdb9"/><path fill="#ffffff" d="M27.2,125.3l1.9,2.4l-1-3.1C27.9,123.1,26.2,124.8,27.2,125.3 M29.4,123.8c0.7,1.2,1.5,2.4,1.5,3.6  c0,1.7,1.5,2.4,2.7,2.9C31.8,128.4,30.8,123.1,29.4,123.8 M122.3,21.2c4.1,0,8-0.5,12.3,0.5c10.6,2.7,19.6,8,25.7,15.5l16.9,27.1  c0.7,6.8,2.2,14.3,1.9,22.5c1.7,0,1.5-2.4,3.4-2.9c-1.9,4.8-2.9,10.9-3.4,17.9c-1.2-3.9,0-9.7,0.2-12.8c-1.7,2.7-2.7,0.7-2.7-0.5  c0.2-1.9-0.7-1.7-1.5-2.4c-2.7-2.4-4.4-5.1-6.3-9.2c1.2-3.1,1.5-7.7-2.4-10.2c-1.2-0.7-2.7-1.9-3.4-3.9c-1-2.7-2.7-5.8-2.2-9.9  c0.2-1.2-3.6,2.7-5.8,1c-9.4-6.5-18.9-14-30.3-20.3c-6.1,0-10.4-2.2-12.6-4.8c-1.9-2.4-0.5-5.6,2.4-5.8c1.7,0,3.6-0.5,5.1,0.5  C120.1,22.4,121.1,21.2,122.3,21.2 M98.4,15.7l0.5,0.2c2.4,0.5,3.6,3.9,6.3,2.7c0,1.7,0.2,3.4-0.2,4.6c-0.7,1.9-2.9,1.9-4.6,1.9  c-16.2-1-25.7,5.8-35.6,11.6c-2.7,1.7-5.6,2.9-7.7,5.1c-10.4,9.7-21.8,18.6-24.4,36.5l-2.2,19.8c-0.2,2.2-2.7,4.4-2.2,7l1.7,11.9  c-1.7-1.7-2.7,0.5-2.2,1.5c0.2,0.7,1.2,3.1,2.7,1c1.9,3.6,3.9,10.6,6.5,13.8c8.2,9.7,18.9,18.4,27.6,27.1c2.2-0.5,3.9-0.5,4.4-1.9  c0.7,1.5-0.7,2.9-1.9,3.1c3.9,2.4,8.2,4.6,14,5.1c7.5,0.5,14.5,1.7,21.1,3.4c3.4-1,6.8-1.5,10.4-1.7c1.2,0,1.9-1.9,3.4-2.4l0.2-2.4  c1.5,2.2,1.2-0.7,0.2-2.2c1.7,1.5,2.2,2.7,2.9,3.6c0-0.7,1.9-3.4,1.9-0.2l0.5-3.1c0.7-0.5,1,2.7,1.7,0.5s2.2-0.5,3.6-1.2  c-0.5,1-0.2,2.9,1.5,1.7l1.9-1.7c1.2,2.9,3.1,1.7,4.1,1.2c10.6-6.8,21.3-14.8,31.5-22.7l-0.2,3.1l1.2-3.9c1.2,1.2,2.2,0.2,2.7-0.5  c1.5-2.4,3.4-4.8,6.5-7c-3.9,10.4-8.5,18.6-14.3,25.4l-2.4,2.9c0,1.7-0.5,3.9-2.4,4.1c-1,0.2-2.9-0.5-4.4,1c-0.7,1,1.7,2.9-0.2,1.5  c-1.7-1.2-3.4,0-5.3,0.5c-1.5,0.5,1,1.9,1.5,2.9c0.5,1,1,1.9,0.7,3.1l-2.7-2.9c-3.1,1.7-5.1,4.8-7.7,7.3c-1.2,1-0.7,2.7-0.7,4.1  c-1.7,0-3.6-0.5-4.6,0.5c-0.7,1-0.5,2.4-0.5,3.9c-2.4-0.2-2.7-3.9-4.8-3.1c-2.2,0.5-4.6,0.7-6.5,1.9c1.5,2.9-2.4,1.2-1.9,1.7  c-3.6-2.2-6.8-3.9-10.6-2.4c-8.2-2.7-18.4-1.5-25.9-0.5c0-1.2,0.2-2.4-0.2-2.7c-0.5,1.2-1.9,0.7-1.7,0.7c-4.6-3.1-9.2-5.1-14-7.7  c-4.4,0.5-8.5-1.7-9.7-2.9c-3.4-3.1-7.3-1.5-10.4-2.2c-6.8-1.7-9.2-8.7-9.9-13.6c-0.5-2.4-2.4-3.4-3.1-3.1  c-3.1-10.2-8-19.4-11.9-28.8c-1-2.4-0.7-4.8-0.7-7.5c1.2,0.5,2.4,0.2,2.2-1.5c-1.2-8-4.1-14-7.3-19.8c1.7-8.2,1.9-17.9,5.8-25.2  c3.4-6.5,9.7-9.9,14-15.5c1.5-1.9,1.5-4.6,2.9-6.3c4.8-4.8,9.7-9.9,15-14.3c2.4-1.9,5.3,0,9-0.7c1.2-4.4,6.1-8.2,10.6-7  c1.9,0.5,5.8-4.6,7-5.1c1.9-0.7,1,1.9,1,3.6C86.3,19.8,92.6,17.8,98.4,15.7"/>
<g transform="translate(30 30) scale(0.7)"><path d="m104.92 40c-9 0-16.832 1.8327-23.832 5.166-7.1667 3.5-13.001 8.0013-17.834 13.668-4.8333 5.6666-8.5 12-11 19-1.8333 5-2.834 9.9987-3.334 14.832h15.164c0.5-3.1667 1.166-6.3333 2.166-9.5 1.6667-5.5 4.334-10.499 7.834-14.832 3.3333-4.3333 7.666-8.0013 12.666-10.668s10.833-4.166 17.5-4.166c3 0 5.9994 0.33333 9.166 1 3 0.66667 6 1.834 9 3.334 2.8333 1.6667 5.668 3.666 8.168 6.166 2.5 2.6667 4.6666 5.8333 6.5 9.5l11.832-7.666c-3.66-7.667-9.33-13.835-16.83-18.668-7.66-4.667-16.66-7.166-27.16-7.166zm-56.004 66.67c0.66667 5 1.8347 9.8346 3.668 14.668 2.6666 7.3333 6.5 13.833 11.5 19.5 5 5.6667 10.833 10.332 17.666 13.832 6.6666 3.6667 14.167 5.334 22.334 5.334 4.5 0 9.1667-0.50066 14-1.834 4.6666-1.1667 9.1667-2.832 13.5-5.332 4.3333-2.1667 8.1667-5.1667 11.5-8.5s6-7.334 8-11.834l-12.5-6.834c-1.6666 3.6667-3.8334 6.8333-6.5 9.5-2.6667 2.6667-5.5006 4.8333-8.334 6.5-3.1667 1.6667-6.1667 3.0013-9.5 3.668-3.3333 0.83334-6.5 1.166-9.5 1.166-6 0-11.334-1.1673-16.334-3.834-5-2.5-9.3333-5.9987-13-10.332-3.8333-4.3333-6.666-9.1673-8.666-14.834-1.3333-3.5-2.166-7.0007-2.666-10.834z" fill="#ffffff"/></g></svg>
