<?xml version="1.0" encoding="utf-8"?>
<!-- Generator: Adobe Illustrator 21.1.0, SVG Export Plug-In . SVG Version: 6.00 Build 0)  -->
<svg xmlns="http://www.w3.org/2000/svg" xmlns:xlink="http://www.w3.org/1999/xlink" version="1.1" id="Layer_1" x="0px" y="0px" viewBox="0 0 200 200" enable-background="new 0 0 200 200" xml:space="preserve">
<rect width="200" height="200" fill="#fccdb9"/><path fill="#ffffff" d="M124.1,38.9c7.2,0,13-5.8,13-13s-5.8-13-13-13c-7.2,0-13,5.8-13,13C111.1,33.1,116.9,38.9,124.1,38.9z   M124.1,20.4c3.1,0,5.6,2.5,5.6,5.6s-2.5,5.6-5.6,5.6s-5.6-2.5-5.6-5.6S121,20.4,124.1,20.4z M170.4,151.9c7.2,0,13-5.8,13-13  s-5.8-13-13-13c-7.2,0-13,5.8-13,13C157.4,146,163.2,151.9,170.4,151.9z M170.4,133.3c3.1,0,5.6,2.5,5.6,5.6c0,3.1-2.5,5.6-5.6,5.6  c-3.1,0-5.6-2.5-5.6-5.6C164.8,135.8,167.3,133.3,170.4,133.3z M27.8,72.2c7.2,0,13-5.8,13-13s-5.8-13-13-13c-7.2,0-13,5.8-13,13  C14.8,66.4,20.6,72.2,27.8,72.2z M27.8,53.7c3.1,0,5.6,2.5,5.6,5.6s-2.5,5.6-5.6,5.6s-5.6-2.5-5.6-5.6S24.7,53.7,27.8,53.7z   M74.1,159.3c-7.2,0-13,5.8-13,13c0,7.2,5.8,13,13,13c7.2,0,13-5.8,13-13C87,165.1,81.2,159.3,74.1,159.3z M74.1,177.8  c-3.1,0-5.6-2.5-5.6-5.6c0-3.1,2.5-5.6,5.6-5.6s5.6,2.5,5.6,5.6C79.6,175.3,77.1,177.8,74.1,177.8z M0,200h200V0H0V200z   M144.4,192.6L144.4,192.6c-1.1,0-12.1-0.2-18.9-7c-7.2-7.2-7-18.9-7-18.9h0.1c1,0,12.1,0.2,18.9,7  C144.6,180.8,144.4,192.6,144.4,192.6z M151.9,192.6L151.9,192.6c-0.1,0-0.3-11.8,6.9-18.9c6.8-6.8,17.8-7,18.9-7h0.1  c0,0,0.2,11.8-7,18.9C164,192.4,153,192.6,151.9,192.6z M192.6,48.1L192.6,48.1c-1.1,0-12.1-0.2-18.9-7c-7.2-7.2-7-18.9-7-18.9h0.1  c1,0,12.1,0.2,18.9,7C192.8,36.4,192.6,48.1,192.6,48.1z M185.6,74.5c-6.8,6.8-17.8,7-18.9,7h-0.1c0,0-0.2-11.8,7-18.9  c6.8-6.8,17.8-7,18.9-7h0.1C192.6,55.6,192.8,67.3,185.6,74.5z M61.1,7.4L61.1,7.4c1.1,0,12.1,0.2,18.9,7c7.2,7.2,7,18.9,7,18.9H87  c-1,0-12.1-0.2-18.9-7C60.9,19.2,61.1,7.4,61.1,7.4z M53.6,7.4L53.6,7.4c0.1,0,0.3,11.8-6.9,18.9c-6.8,6.8-17.8,7-18.9,7h-0.1  c0,0-0.2-11.8,7-18.9C41.6,7.6,52.6,7.4,53.6,7.4z M7.4,7.4h24.1c-0.7,0.5-1.3,1.1-1.9,1.7c-9.1,9.1-9.2,22.8-9.1,24.3l0.1,7.2  l7.2,0.1h0.2c2.5,0,15.4-0.4,24.1-9.1c2.2-2.3,4.1-4.9,5.4-7.8c1.4,2.9,3.2,5.5,5.4,7.8c8.7,8.7,21.6,9.1,24.1,9.1h0.2l7.2-0.1  l0.1-7.2c0-1.5,0-15.2-9.1-24.3C84.7,8.5,84,8,83.4,7.4h109.2v18.5c-0.5-0.7-1.1-1.3-1.7-1.9c-8.7-8.7-21.6-9.1-24.1-9.1h-0.2  l-7.2,0.1l-0.1,7.2c0,1.5,0,15.2,9.1,24.3c2.3,2.2,4.9,4.1,7.8,5.4c-2.9,1.4-5.5,3.2-7.8,5.4c-9.1,9.1-9.2,22.8-9.1,24.3l0.1,7.2  l7.2,0.1h0.2c2.5,0,15.4-0.4,24.1-9.1c0.6-0.6,1.2-1.3,1.7-1.9v114.8h-18.5c0.7-0.5,1.3-1.1,1.9-1.7c9.1-9.1,9.2-22.8,9.1-24.3  l-0.1-7.2l-7.2-0.1h-0.2c-3.3,0-6.5,0.5-9.7,1.3c-5.4,1.3-10.4,4-14.4,7.8c-2.2,2.3-4.1,4.9-5.4,7.8c-1.4-2.9-3.2-5.5-5.4-7.8  c-8.7-8.7-21.6-9.1-24.1-9.1h-0.2l-7.2,0.1l-0.1,7.2c0,1.5,0,15.2,9.1,24.3c0.6,0.6,1.3,1.2,1.9,1.7H7.4v-18.5  c0.5,0.7,1.1,1.3,1.7,1.9c8.7,8.7,21.6,9.1,24.1,9.1h0.2l7.2-0.1l0.1-7.2c0-1.5,0-15.2-9.1-24.3c-2.3-2.2-4.9-4.1-7.8-5.4  c2.9-1.4,5.5-3.2,7.8-5.4c9.1-9.1,9.2-22.8,9.1-24.3l-0.1-7.2l-7.2-0.1h-0.2c-2.5,0-15.4,0.4-24.1,9.1c-0.6,0.6-1.2,1.3-1.7,1.9V7.4  z M14.4,125.5c6.8-6.8,17.8-7,18.9-7h0.1c0,0,0.2,11.8-7,18.9c-6.8,6.8-17.8,7-18.9,7H7.4C7.4,144.4,7.2,132.7,14.4,125.5z   M7.4,151.9L7.4,151.9c1.1,0,12.1,0.2,18.9,7c7.2,7.2,7,18.9,7,18.9h-0.1c-1,0-12.1-0.2-18.9-7C7.2,163.6,7.4,151.9,7.4,151.9z"/>
<g transform="translate(30 30) scale(0.7)"><path d="m104.92 40c-9 0-16.832 1.8327-23.832 5.166-7.1667 3.5-13.001 8.0013-17.834 13.668-4.8333 5.6666-8.5 12-11 19-1.8333 5-2.834 9.9987-3.334 14.832h15.164c0.5-3.1667 1.166-6.3333 2.166-9.5 1.6667-5.5 4.334-10.499 7.834-14.832 3.3333-4.3333 7.666-8.0013 12.666-10.668s10.833-4.166 17.5-4.166c3 0 5.9994 0.33333 9.166 1 3 0.66667 6 1.834 9 3.334 2.8333 1.6667 5.668 3.666 8.168 6.166 2.5 2.6667 4.6666 5.8333 6.5 9.5l11.832-7.666c-3.66-7.667-9.33-13.835-16.83-18.668-7.66-4.667-16.66-7.166-27.16-7.166zm-56.004 66.67c0.66667 5 1.8347 9.8346 3.668 14.668 2.6666 7.3333 6.5 13.833 11.5 19.5 5 5.6667 10.833 10.332 17.666 13.832 6.6666 3.6667 14.167 5.334 22.334 5.334 4.5 0 9.1667-0.50066 14-1.834 4.6666-1.1667 9.1667-2.832 13.5-5.332 4.3333-2.1667 8.1667-5.1667 11.5-8.5s6-7.334 8-11.834l-12.5-6.834c-1.6666 3.6667-3.8334 6.8333-6.5 9.5-2.6667 2.6667-5.5006 4.8333-8.334 6.5-3.1667 1.6667-6.1667 3.0013-9.5 3.668-3.3333 0.83334-6.5 1.166-9.5 1.166-6 0-11.334-1.1673-16.334-3.834-5-2.5-9.3333-5.9987-13-10.332-3.8333-4.3333-6.666-9.1673-8.666-14.834-1.3333-3.5-2.166-7.0007-2.666-10.834z" fill="#ffffff"/></g></svg>
