<?xml version="1.0" encoding="utf-8"?>
<!-- Generator: Adobe Illustrator 21.1.0, SVG Export Plug-In . SVG Version: 6.00 Build 0)  -->
<svg xmlns="http://www.w3.org/2000/svg" xmlns:xlink="http://www.w3.org/1999/xlink" version="1.1" id="Layer_1" x="0px" y="0px" viewBox="0 0 200 200" enable-background="new 0 0 200 200" xml:space="preserve">
<rect width="200" height="200" fill="#ffffff"/><path d="M100-51.3C16.4-51.3-51.3,16.4-51.3,100S16.4,251.3,100,251.3S251.3,183.6,251.3,100S183.6-51.3,100-51.3z M238.6,119.5  l-79.5-9.1l77.9,18.7l-78.7-14.6l76.4,24.1l-77.5-20l74.5,29.3l-75.9-25.4l72.3,34.5l-74-30.6l69.7,39.4L152,130l66.8,44.2l-69-40.6  l63.5,48.7l-66-45.4l60,53.1l-62.7-49.8l56.1,57.1l-59-54.1l52,60.9L138.6,146l47.6,64.4l-50.9-61.8l43,67.5l-46.5-65.2l38.2,70.4  L128.2,153l33.2,72.9l-37-71l28,75l-31.9-73.4l22.7,76.8l-26.7-75.5l17.3,78.2l-21.4-77.2l11.8,79.2l-16-78.5l6.3,79.8l-10.4-79.4  l0.7,80.1L100,160l-4.9,79.9l0.7-80.1l-10.4,79.4l6.3-79.8l-16,78.5l11.8-79.2l-21.4,77.2l17.3-78.2l-26.7,75.5l22.7-76.8  l-31.9,73.4l28-75l-37,71L71.8,153L30,221.2l38.2-70.4l-46.5,65.2l43-67.5l-50.9,61.8L61.4,146L6.3,204l52-60.9l-59,54.1l56.1-57.1  L-7.2,190l60-53.1l-66,45.4l63.5-48.7l-69,40.6L48,130l-71.7,35.7l69.7-39.4l-74,30.6l72.3-34.5l-75.9,25.4l74.5-29.3l-77.5,20  l76.4-24.1l-78.7,14.6l77.9-18.7l-79.5,9.1l79-13.2l-80,3.5l79.7-7.7l-80-2.1l80-2.1l-79.7-7.7l80,3.5l-79-13.2l79.5,9.1l-77.9-18.7  l78.7,14.6l-76.4-24.1l77.5,20l-74.5-29.3l75.9,25.4l-72.3-34.5l74,30.6l-69.7-39.4L48,70l-66.8-44.2l69,40.6l-63.5-48.7l66,45.4  L-7.2,10l62.7,49.8L-0.7,2.7l59,54.1L6.3-4L61.4,54L13.8-10.3l50.9,61.8l-43-67.5l46.5,65.2L30-21.2L71.8,47L38.6-25.8l37,71l-28-75  l31.9,73.4L56.7-33.1l26.7,75.5L66.1-35.8l21.4,77.2L75.7-37.9l16,78.5l-6.3-79.8l10.4,79.4l-0.7-80.1L100,40l4.9-79.9l-0.7,80.1  l10.4-79.4l-6.3,79.8l16-78.5l-11.8,79.2l21.4-77.2l-17.3,78.2l26.7-75.5l-22.7,76.8l31.9-73.4l-28,75l37-71L128.2,47L170-21.2  l-38.2,70.4l46.5-65.2l-43,67.5l50.9-61.8L138.6,54L193.7-4l-52,60.9l59-54.1l-56.1,57.1L207.2,10l-60,53.1l66-45.4l-63.5,48.7  l69-40.6L152,70l71.7-35.7l-69.7,39.4l74-30.6l-72.3,34.5l75.9-25.4l-74.5,29.3l77.5-20l-76.4,24.1l78.7-14.6l-77.9,18.7l79.5-9.1  l-79,13.2l80-3.5L160,97.9l80,2.1l-80,2.1l79.7,7.7l-80-3.5L238.6,119.5z" fill="#fccdb9"/>
<g transform="translate(30 30) scale(0.7)">
  
  <defs id="defs120564"/>
  <linearGradient id="3d_gradient2-logo-d5739de8-df84-4712-b4f4-476bade4a76a" x1="30%" y1="120%" x2="-10%" y2="30%" spreadMethod="pad">
    <stop offset="0%" stop-color="#ffffff" stop-opacity="1" id="stop120541"/>
    <stop offset="100%" stop-color="#000000" stop-opacity="1" id="stop120543"/>
  </linearGradient>
  <linearGradient id="3d_gradient3-logo-d5739de8-df84-4712-b4f4-476bade4a76a" x1="30%" y1="120%" x2="-10%" y2="30%" spreadMethod="pad" gradientTransform="rotate(-30)">
    <stop offset="0%" stop-color="#ffffff" stop-opacity="1" id="stop120546"/>
    <stop offset="50%" stop-color="#cccccc" stop-opacity="1" id="stop120548"/>
    <stop offset="100%" stop-color="#000000" stop-opacity="1" id="stop120550"/>
  </linearGradient>
  <path id="path120569" style="font-style:normal;font-weight:500;font-size:72px;line-height:1;font-family:'Raleway Medium Alt1';font-variant-ligatures:none;text-align:center;text-anchor:middle;fill:#f7a8b8;stroke:#f7a8b8;stroke-width:0;stroke-linejoin:miter;stroke-miterlimit:2" d="m 66.249993,83.166657 c 1.666689,-5.5 4.333333,-10.5 7.833333,-14.833333 3.333333,-4.333333 7.66669,-8 12.666666,-10.666667 5.000024,-2.666666 10.833334,-4.166666 17.499998,-4.166666 3,0 6,0.333333 9.16667,1 3.00002,0.666666 6.00002,1.833333 9,3.333333 2.83333,1.666667 5.66667,3.666667 8.16667,6.166667 2.5,2.666666 4.66666,5.833333 6.50002,9.5 l 11.83331,-7.666667 c -3.66667,-7.666667 -9.33333,-13.833333 -16.83333,-18.666667 -7.66667,-4.666666 -16.66667,-7.166666 -27.16667,-7.166666 -9.000001,0 -16.833311,1.833333 -23.833311,5.166666 -7.16669,3.5 -13.000023,8 -17.833356,13.666667 -4.833334,5.666667 -8.5,12 -11,19 -1.83331,5 -2.833334,10 -3.333334,14.833333 h 15.16669 c 0.5,-3.166667 1.166644,-6.333333 2.166644,-9.5 z m 72.333337,42.500003 c -1.66665,3.66666 -3.83334,6.83333 -6.5,9.5 -2.66667,2.66666 -5.49998,4.83333 -8.33334,6.5 -3.16666,1.66666 -6.16666,3 -9.5,3.66666 -3.33333,0.83334 -6.5,1.16667 -9.5,1.16667 -5.999974,0 -11.333331,-1.16667 -16.333308,-3.83333 -5.000023,-2.5 -9.333356,-6 -13.000023,-10.33334 -3.83331,-4.33333 -6.666666,-9.16666 -8.666666,-14.83333 -1.333334,-3.5 -2.166644,-7 -2.666644,-10.83333 h -15.16669 c 0.666667,5 1.833357,9.83333 3.666667,14.66666 2.666667,7.33334 6.5,13.83334 11.500023,19.5 4.999977,5.66667 10.833333,10.33334 17.666667,13.83334 6.666666,3.66666 14.166643,5.33333 22.333314,5.33333 4.5,0 9.16669,-0.5 14,-1.83333 4.66669,-1.16667 9.16669,-2.83334 13.5,-5.33334 4.33333,-2.16666 8.16666,-5.16666 11.5,-8.5 3.33333,-3.33333 6,-7.33333 8.00002,-11.83333 z" stroke-miterlimit="2"/>
</g></svg>
