<?xml version="1.0" encoding="utf-8"?>
<!-- Generator: Adobe Illustrator 21.1.0, SVG Export Plug-In . SVG Version: 6.00 Build 0)  -->
<svg xmlns="http://www.w3.org/2000/svg" xmlns:xlink="http://www.w3.org/1999/xlink" version="1.1" id="Layer_1" x="0px" y="0px" viewBox="0 0 200 200" enable-background="new 0 0 200 200" xml:space="preserve">
<rect width="200" height="200" fill="#fccdb9"/><path fill="#ffffff" d="M100,17.5H17.5V100c0,45.6,36.9,82.5,82.5,82.5s82.5-36.9,82.5-82.5C182.5,54.4,145.6,17.5,100,17.5z"/>
<g transform="translate(30 30) scale(0.7)">
  
  <defs id="defs120564"/>
  <linearGradient id="3d_gradient2-logo-d5739de8-df84-4712-b4f4-476bade4a76a" x1="30%" y1="120%" x2="-10%" y2="30%" spreadMethod="pad">
    <stop offset="0%" stop-color="#ffffff" stop-opacity="1" id="stop120541"/>
    <stop offset="100%" stop-color="#000000" stop-opacity="1" id="stop120543"/>
  </linearGradient>
  <linearGradient id="3d_gradient3-logo-d5739de8-df84-4712-b4f4-476bade4a76a" x1="30%" y1="120%" x2="-10%" y2="30%" spreadMethod="pad" gradientTransform="rotate(-30)">
    <stop offset="0%" stop-color="#ffffff" stop-opacity="1" id="stop120546"/>
    <stop offset="50%" stop-color="#cccccc" stop-opacity="1" id="stop120548"/>
    <stop offset="100%" stop-color="#000000" stop-opacity="1" id="stop120550"/>
  </linearGradient>
  <path id="path120569" style="font-style:normal;font-weight:500;font-size:72px;line-height:1;font-family:'Raleway Medium Alt1';font-variant-ligatures:none;text-align:center;text-anchor:middle;fill:#f7a8b8;stroke:#f7a8b8;stroke-width:0;stroke-linejoin:miter;stroke-miterlimit:2" d="m 66.249993,83.166657 c 1.666689,-5.5 4.333333,-10.5 7.833333,-14.833333 3.333333,-4.333333 7.66669,-8 12.666666,-10.666667 5.000024,-2.666666 10.833334,-4.166666 17.499998,-4.166666 3,0 6,0.333333 9.16667,1 3.00002,0.666666 6.00002,1.833333 9,3.333333 2.83333,1.666667 5.66667,3.666667 8.16667,6.166667 2.5,2.666666 4.66666,5.833333 6.50002,9.5 l 11.83331,-7.666667 c -3.66667,-7.666667 -9.33333,-13.833333 -16.83333,-18.666667 -7.66667,-4.666666 -16.66667,-7.166666 -27.16667,-7.166666 -9.000001,0 -16.833311,1.833333 -23.833311,5.166666 -7.16669,3.5 -13.000023,8 -17.833356,13.666667 -4.833334,5.666667 -8.5,12 -11,19 -1.83331,5 -2.833334,10 -3.333334,14.833333 h 15.16669 c 0.5,-3.166667 1.166644,-6.333333 2.166644,-9.5 z m 72.333337,42.500003 c -1.66665,3.66666 -3.83334,6.83333 -6.5,9.5 -2.66667,2.66666 -5.49998,4.83333 -8.33334,6.5 -3.16666,1.66666 -6.16666,3 -9.5,3.66666 -3.33333,0.83334 -6.5,1.16667 -9.5,1.16667 -5.999974,0 -11.333331,-1.16667 -16.333308,-3.83333 -5.000023,-2.5 -9.333356,-6 -13.000023,-10.33334 -3.83331,-4.33333 -6.666666,-9.16666 -8.666666,-14.83333 -1.333334,-3.5 -2.166644,-7 -2.666644,-10.83333 h -15.16669 c 0.666667,5 1.833357,9.83333 3.666667,14.66666 2.666667,7.33334 6.5,13.83334 11.500023,19.5 4.999977,5.66667 10.833333,10.33334 17.666667,13.83334 6.666666,3.66666 14.166643,5.33333 22.333314,5.33333 4.5,0 9.16669,-0.5 14,-1.83333 4.66669,-1.16667 9.16669,-2.83334 13.5,-5.33334 4.33333,-2.16666 8.16666,-5.16666 11.5,-8.5 3.33333,-3.33333 6,-7.33333 8.00002,-11.83333 z" stroke-miterlimit="2"/>
</g></svg>
