<?xml version="1.0" encoding="utf-8"?>
<!-- Generator: Adobe Illustrator 21.1.0, SVG Export Plug-In . SVG Version: 6.00 Build 0)  -->
<svg xmlns="http://www.w3.org/2000/svg" xmlns:xlink="http://www.w3.org/1999/xlink" version="1.1" id="Layer_1" x="0px" y="0px" viewBox="0 0 200 200" enable-background="new 0 0 200 200" xml:space="preserve">
<path fill="#ffffff" d="M27.9,52.9c-0.6-0.6-1.2-0.6-1.7,0l0.2,1.1c0.2,0.2,0.6,0.3,1.4,0.4C28,54.2,28,53.7,27.9,52.9z M42.4,50.3  c1.8-1.9,1.6-3.9-0.6-5.9c-2.1-1.9-4-1.9-5.7,0c-1.8,1.9-1.6,3.8,0.4,5.7C38.7,52.1,40.6,52.2,42.4,50.3z M144.7,161  c-0.8-0.8-2-1.3-3.6-1.6c1.5-3,2.5-5.1,3-6.1c3.3,1,6,0.3,8.1-2c2.1-2.2,2.6-4.5,1.7-6.9c4.1,2.2,7.3,2.2,9.4-0.1  c1-1,1.4-2.5,1.4-4.5c0-2-0.8-3.6-2.3-5.1c-0.6-0.6-1.3-1-2-1.3c-0.7-0.3-1.1-0.5-1.2-0.6c-0.3-0.2-0.1-0.9,0.4-1.8  c0.7-1.4,1-2.5,1-3c3.7,0.7,6.5,0,8.4-2c1.4-1.5,2-3.4,1.9-5.8c-0.1-2.4-1.2-4.4-3-6.2c-1-0.9-2.4-1.7-4.4-2.3  c0.2-1.6,0.4-2.8,0.6-3.6c3.9,1.4,6.9,0.9,9-1.4c1.3-1.3,1.9-3.2,1.8-5.4c-0.1-2.3-1-4.3-2.9-6c-1.1-1-2.2-1.6-3.4-1.8  c0.7-3.1,0.8-5.3,0.5-6.7c3.1,0.8,5.3,0.5,6.7-1c0.7-0.7,1-1.9,1.1-3.7c0-1.7-0.6-3.2-1.8-4.4c-0.8-0.8-2.1-1.3-3.8-1.6  c-1.7-0.3-3.2,0.2-4.3,1.3c-0.7,0.7-1,1.8-1.1,3.4c-2.8-1.8-4.4-2.7-4.8-2.9c-0.1-0.4-0.1-1.7,0.1-3.9c3.1,1.4,5.5,1.1,7.3-0.8  c2.7-2.8,2.4-5.7-0.7-8.7c-3.2-3-6.2-3.1-8.8-0.2c-0.9,1-1.3,2.2-1.4,3.6c-1.8-0.8-3-1.4-3.7-1.9c0.1-1.9,0.1-3.6-0.1-5  c2.7,1,4.9,0.7,6.6-1.2c2.4-2.6,2.1-5.3-0.9-8.2c-2.9-2.8-5.6-2.8-8.1-0.2c-0.7,0.8-1.1,1.8-1.2,2.9c-2.1-1.1-3.8-1.9-4.9-2.3  c0.4-3.8-0.8-7-3.5-9.5c-2.1-1.9-4.5-2.9-7.4-2.9c0.6-3.6,0-6.3-2-8.1c-3.3-3.1-6.4-3.1-9.2-0.1c-0.1,0.2-0.5,0.6-0.9,1.3  c-0.5,0.7-0.8,1.1-1,1.4c-2.6-1.3-4.7-2.1-6.2-2.5c0.3-3-0.6-5.4-2.5-7.3c-3.5-3.3-6.7-3.3-9.7-0.1c-1,1-1.5,2.5-1.5,4.3  c-3.5-2.7-6.8-3.3-9.9-1.7c2.2-3.1,2.2-5.7,0-7.8C89,17,86.8,17,84.8,19.1c-2.1,2.2-1.9,4.5,0.5,6.7c1.3,1.3,3,1.7,4.9,1.5l-3.3,4.9  c-2.2-0.3-4-0.5-5.2-0.6c0.4-3-0.2-5.3-2-7c-1.1-1-2.5-1.6-4.3-1.8c-1.8-0.2-3.2,0.3-4.3,1.5c-0.9,1-1.3,2.3-1.3,4  c0,1.7,0.7,3.2,2.1,4.5c0.8,0.7,2,1.3,3.6,1.5C74.7,36,74,37.2,73.4,38c-1.6-0.2-2.9-0.3-3.7-0.3c0.4-3.1-0.4-5.4-2.1-7.1  c-1.2-1.1-2.6-1.7-4.3-1.9c-1.7-0.2-3.1,0.4-4.3,1.7c-1,1-1.4,2.3-1.3,3.9c0,2,0.7,3.5,2,4.8c0.6,0.6,1.3,1,2.1,1.3  c0.8,0.3,1.2,0.4,1.3,0.5c0.3,0.2,0.1,0.7-0.4,1.4c-0.6,1-1,1.8-1,2.2c-1.3-0.2-3-0.3-4.9-0.4c0.2-2.3,0.2-3.6,0.1-3.9  c-0.1-1-0.7-2-1.8-3c-2.9-2.7-5.5-2.7-7.8-0.2c-2.3,2.5-2,5,0.9,7.7c1.2,1.1,2.4,1.6,3.6,1.6c-1.2,2.9-2.2,4.9-3,6.1  c-3.3-0.9-6-0.3-8,1.9c-1.7,1.8-2.2,4.3-1.6,7.4c-3.7-2.7-6.8-2.7-9.3,0c-1,1.1-1.5,2.5-1.5,4.3c0,1.7,0.8,3.3,2.4,4.7  c1.1,1,2.2,1.6,3.5,1.9c-0.1,0.1-0.5,1-1.2,2.9c-0.5,1.1-0.6,2.2-0.3,3.3c-3.4-1-6.1-0.4-8,1.6c-1.2,1.3-1.7,3-1.6,5.1  c0.1,2.1,1,3.9,2.6,5.4c0.3,0.2,0.8,0.6,1.6,1c0.8,0.4,1.3,0.7,1.4,0.9c0.3,0.2,0.3,1,0,2.2c-0.4,1.7-0.6,2.8-0.7,3.4  c-2.9-1-5.3-0.5-7.2,1.5c-0.9,1-1.3,2.4-1.3,4.4c0,2,0.7,3.7,2.3,5.1c1.7,1.6,3.8,2.2,6.3,1.9c-3.2,4.3-2.9,8.2,0.7,11.6  c1.5,1.4,3.4,2.2,5.5,2.5c-1.9,4.4-1.3,8.1,1.8,11c1.6,1.5,3.9,2.3,6.8,2.4c-1.8,4.1-1.3,7.5,1.6,10.1c1.5,1.4,3.3,2.2,5.4,2.3  c2.1,0.1,3.8-0.6,5.2-2.1c1.8-1.9,2.1-4.4,1.1-7.4c2,1.4,3.5,2.3,4.5,2.7c-0.9,3.5-1.2,5.7-0.9,6.7c-3.4-1.4-6-1.1-7.7,0.8  c-1,1.1-1.5,2.6-1.3,4.5c0.1,1.9,0.9,3.5,2.2,4.7c1.2,1.1,2.7,1.7,4.6,1.8c1.9,0.1,3.4-0.5,4.5-1.6c0.4-0.5,0.9-1.7,1.4-3.6l3.1,1.5  c1.1,0.6,2.2,0.8,3.4,0.7c-1.5,3.4-0.8,6.4,2.1,9.1c1.2,1.2,3.1,1.9,5.5,2.1c2.4,0.3,4.3-0.3,5.6-1.7c1.6-1.7,2.1-3.3,1.6-4.9  c2,1.3,3.8,1.8,5.4,1.7c-0.9,3.9-0.2,6.9,2.1,9.1c1.4,1.3,3.2,2.1,5.4,2.2c2.1,0.1,3.9-0.5,5.2-1.9c0.7-0.7,1.2-2,1.7-3.7  c5.1,2.2,9.1,1.9,11.9-1.2c0.4-0.5,1.1-1.5,1.9-3.1c2.9,0.3,4.9,0.5,6,0.5c-0.9,2.7-0.4,5,1.5,6.7c1,0.9,2.3,1.4,3.9,1.5  c1.6,0.1,2.9-0.4,3.8-1.4c0.8-0.9,1.2-2.1,1-3.7c-0.1-1.6-0.7-2.9-1.8-3.9c-0.8-0.8-2-1.3-3.7-1.7c1.3-1.9,2-3.3,2.2-4.2  c0.6,0.1,1.5,0.2,2.8,0.3c1.3,0.1,2.2,0.2,2.7,0.2c-0.8,2.3-0.3,4.4,1.6,6.1c2.7,2.5,5.1,2.6,7.2,0.3  C147.7,165.9,147.4,163.5,144.7,161z M24.9,70.1c-2-1.8-3.7-1.9-5.3-0.3c-1.6,1.7-1.5,3.5,0.5,5.4c1.9,1.7,3.6,1.8,5.3,0  C26.9,73.6,26.8,71.9,24.9,70.1z M20.5,89.1c-2-1.8-3.7-1.9-5.3-0.3c-1.6,1.7-1.5,3.5,0.5,5.4c1.9,1.8,3.6,1.8,5.3,0  C22.5,92.6,22.4,90.9,20.5,89.1z M98.8,18.4c0.3,0.2,0.9,0.4,1.8,0.5c0.9,0.1,1.6-0.1,2-0.5c0.3-0.3,0.5-0.9,0.5-1.8  c0-0.9-0.2-1.5-0.7-2c-0.4-0.3-1-0.5-1.9-0.6c-0.9-0.1-1.6,0.1-2,0.5c-0.3,0.3-0.4,0.9-0.4,1.8C97.9,17.2,98.2,17.9,98.8,18.4z   M12.9,109.4l-0.9,0.9c0.2,1.1,0.4,1.7,0.7,2c0.2,0.2,0.8,0.3,1.9,0.4l0.9-0.9c-0.2-1.1-0.4-1.7-0.5-1.8  C14.6,109.7,14,109.5,12.9,109.4z M23.4,121.8c-1.6-1.5-3-1.6-4.3-0.2c-1.3,1.4-1.2,2.9,0.4,4.4c1.6,1.5,3.1,1.5,4.4,0.1  C25.2,124.8,25,123.3,23.4,121.8z M118.2,25.6c1.7,1.6,3.3,1.6,4.8,0c1.4-1.5,1.2-3.1-0.4-4.6c-1.8-1.7-3.4-1.8-4.8-0.2  C116.2,22.3,116.4,23.9,118.2,25.6z M31.3,134.3c-1.7-1.6-3.3-1.6-4.8,0c-1.5,1.6-1.4,3.2,0.3,4.8c1.8,1.7,3.4,1.7,4.9,0.1  C33.2,137.6,33.1,136,31.3,134.3z M139.2,31.2c0.6,0.6,1.3,0.8,2,0.5l0.8-0.8c0.2-0.8,0.1-1.5-0.6-2.1c-0.5-0.5-1.2-0.6-2-0.3  l-0.8,0.8C138.5,30.1,138.7,30.7,139.2,31.2z M39.1,147.8c-0.4-0.4-1.2-0.7-2.2-0.8c-1-0.1-1.7,0.1-2.1,0.6  c-1.3,1.4-1.2,2.9,0.4,4.4c0.4,0.4,1.1,0.7,2.1,0.7c0.9,0.1,1.7-0.2,2.2-0.7c0.4-0.4,0.5-1.1,0.5-2C39.9,149,39.6,148.3,39.1,147.8z   M145.1,46.2c0.8,0.7,1.9,1.2,3.2,1.4c1.4,0.2,2.5-0.2,3.4-1.2c0.7-0.7,1-1.8,1-3.1c0-1.4-0.5-2.6-1.6-3.6c-1-0.9-2.2-1.4-3.6-1.4  c-1.4,0-2.5,0.4-3.3,1.3c-0.6,0.6-0.9,1.6-0.9,3C143.3,43.9,143.9,45.1,145.1,46.2z M67.3,166.5c-2.1-1.9-4-1.9-5.8,0  c-1.7,1.8-1.5,3.7,0.5,5.6c2.1,2,4.1,2.1,5.8,0.3C69.6,170.5,69.4,168.5,67.3,166.5z M87.7,173.2c-0.9-0.8-2.1-1.3-3.5-1.3  c-1.5,0-2.5,0.3-3.2,1c-0.6,0.6-0.8,1.7-0.7,3.2c0.1,1.5,0.6,2.7,1.5,3.5c0.7,0.7,1.8,1.1,3.3,1.2c1.5,0.1,2.6-0.2,3.3-1  c0.6-0.6,0.9-1.7,0.8-3.1C89.1,175.1,88.6,174,87.7,173.2z M176.7,97.1c2,1.8,3.7,1.9,5.3,0.3c1.6-1.7,1.5-3.5-0.5-5.4  c-1.9-1.8-3.6-1.8-5.3,0C174.7,93.6,174.9,95.3,176.7,97.1z M106.7,180.8c-1.6-1.5-3-1.6-4.3-0.2c-1.3,1.4-1.2,2.9,0.4,4.4  c1.5,1.4,2.9,1.4,4.3,0C108.3,183.6,108.2,182.3,106.7,180.8z M171.3,117.7c1.1,1,2.4,1.5,4,1.6c1.6,0.1,2.9-0.4,3.8-1.4  c0.8-0.9,1.2-2.1,1-3.7c-0.1-1.6-0.8-2.9-1.9-4c-1-0.9-2.3-1.4-3.9-1.5c-1.6-0.1-2.8,0.4-3.7,1.3  C168.3,112.6,168.5,115.2,171.3,117.7z M120.2,173.6c-1-0.9-2.2-1.4-3.5-1.4c-1.4,0-2.4,0.4-3.2,1.3c-0.6,0.6-0.9,1.6-1,2.9  c-0.1,1.3,0.5,2.5,1.6,3.6c0.8,0.7,1.9,1.2,3.3,1.4c1.4,0.2,2.5-0.2,3.4-1.1c0.7-0.7,1-1.8,1-3.1  C121.9,175.9,121.3,174.7,120.2,173.6z M187.9,108.6c0.1-0.2,0.2-0.6,0.1-1.5c-0.6-0.6-1.2-0.6-1.7,0l0,1.1  C186.5,108.4,187,108.5,187.9,108.6z M165.7,132.3c-0.1,1.5,0.4,2.8,1.6,3.9c0.8,0.7,1.9,1.2,3.3,1.4c1.4,0.2,2.6-0.2,3.5-1.3  c2-2.1,1.7-4.4-0.8-6.7c-1-0.9-2.2-1.4-3.5-1.4c-1.3,0-2.4,0.4-3.1,1.2C166.1,130.3,165.8,131.2,165.7,132.3z M156.3,155.6  c-2.1-2-4.1-2.1-5.9-0.2c-1.7,1.8-1.5,3.7,0.7,5.7c2.1,1.9,3.9,2,5.6,0.1C158.5,159.4,158.4,157.5,156.3,155.6z M183.1,127.7  c0.1-0.2,0.2-0.6,0.2-1.3c-0.6-0.6-1.2-0.6-1.7,0l0,1.1C181.9,127.6,182.4,127.7,183.1,127.7z M166.5,151.1c-1.2,0-1.8,0-1.8,0.1  c-0.2,0.2-0.2,0.9,0.1,1.8c0.8,0.3,1.5,0.4,2,0.3C166.9,152.6,166.8,151.8,166.5,151.1z"/>
<g transform="translate(30 30) scale(0.7)">
  
  <defs id="defs120564"/>
  <linearGradient id="3d_gradient2-logo-d5739de8-df84-4712-b4f4-476bade4a76a" x1="30%" y1="120%" x2="-10%" y2="30%" spreadMethod="pad">
    <stop offset="0%" stop-color="#ffffff" stop-opacity="1" id="stop120541"/>
    <stop offset="100%" stop-color="#000000" stop-opacity="1" id="stop120543"/>
  </linearGradient>
  <linearGradient id="3d_gradient3-logo-d5739de8-df84-4712-b4f4-476bade4a76a" x1="30%" y1="120%" x2="-10%" y2="30%" spreadMethod="pad" gradientTransform="rotate(-30)">
    <stop offset="0%" stop-color="#ffffff" stop-opacity="1" id="stop120546"/>
    <stop offset="50%" stop-color="#cccccc" stop-opacity="1" id="stop120548"/>
    <stop offset="100%" stop-color="#000000" stop-opacity="1" id="stop120550"/>
  </linearGradient>
  <path id="path120569" style="font-style:normal;font-weight:500;font-size:72px;line-height:1;font-family:'Raleway Medium Alt1';font-variant-ligatures:none;text-align:center;text-anchor:middle;fill:#f7a8b8;stroke:#f7a8b8;stroke-width:0;stroke-linejoin:miter;stroke-miterlimit:2" d="m 66.249993,83.166657 c 1.666689,-5.5 4.333333,-10.5 7.833333,-14.833333 3.333333,-4.333333 7.66669,-8 12.666666,-10.666667 5.000024,-2.666666 10.833334,-4.166666 17.499998,-4.166666 3,0 6,0.333333 9.16667,1 3.00002,0.666666 6.00002,1.833333 9,3.333333 2.83333,1.666667 5.66667,3.666667 8.16667,6.166667 2.5,2.666666 4.66666,5.833333 6.50002,9.5 l 11.83331,-7.666667 c -3.66667,-7.666667 -9.33333,-13.833333 -16.83333,-18.666667 -7.66667,-4.666666 -16.66667,-7.166666 -27.16667,-7.166666 -9.000001,0 -16.833311,1.833333 -23.833311,5.166666 -7.16669,3.5 -13.000023,8 -17.833356,13.666667 -4.833334,5.666667 -8.5,12 -11,19 -1.83331,5 -2.833334,10 -3.333334,14.833333 h 15.16669 c 0.5,-3.166667 1.166644,-6.333333 2.166644,-9.5 z m 72.333337,42.500003 c -1.66665,3.66666 -3.83334,6.83333 -6.5,9.5 -2.66667,2.66666 -5.49998,4.83333 -8.33334,6.5 -3.16666,1.66666 -6.16666,3 -9.5,3.66666 -3.33333,0.83334 -6.5,1.16667 -9.5,1.16667 -5.999974,0 -11.333331,-1.16667 -16.333308,-3.83333 -5.000023,-2.5 -9.333356,-6 -13.000023,-10.33334 -3.83331,-4.33333 -6.666666,-9.16666 -8.666666,-14.83333 -1.333334,-3.5 -2.166644,-7 -2.666644,-10.83333 h -15.16669 c 0.666667,5 1.833357,9.83333 3.666667,14.66666 2.666667,7.33334 6.5,13.83334 11.500023,19.5 4.999977,5.66667 10.833333,10.33334 17.666667,13.83334 6.666666,3.66666 14.166643,5.33333 22.333314,5.33333 4.5,0 9.16669,-0.5 14,-1.83333 4.66669,-1.16667 9.16669,-2.83334 13.5,-5.33334 4.33333,-2.16666 8.16666,-5.16666 11.5,-8.5 3.33333,-3.33333 6,-7.33333 8.00002,-11.83333 z" stroke-miterlimit="2"/>
</g></svg>
