<?xml version="1.0" encoding="utf-8"?>
<!-- Generator: Adobe Illustrator 21.1.0, SVG Export Plug-In . SVG Version: 6.00 Build 0)  -->
<svg xmlns="http://www.w3.org/2000/svg" xmlns:xlink="http://www.w3.org/1999/xlink" version="1.1" id="Layer_1" x="0px" y="0px" viewBox="0 0 200 200" enable-background="new 0 0 200 200" xml:space="preserve">
<rect width="200" height="200" fill="#ffffff"/><path fill="#fccdb9" d="M147.2,26.3L24.5,144.4c1.2,2,2.5,4,3.8,5.9L147.5,26.5C147.4,26.4,147.3,26.4,147.2,26.3z M169.2,46.3  L43.8,167.1c1.7,1.5,3.6,2.9,5.4,4.2L169.4,46.6C169.3,46.5,169.3,46.4,169.2,46.3z M177.4,59L56.2,175.8c2,1.2,4.1,2.3,6.2,3.3  L177.6,59.4C177.5,59.3,177.5,59.1,177.4,59z M173.5,52.5L49.7,171.7c1.9,1.3,3.9,2.6,5.9,3.8L173.7,52.8  C173.6,52.7,173.6,52.6,173.5,52.5z M140.6,22.4L20.9,137.6c1,2.1,2.1,4.2,3.3,6.2L141,22.6C140.9,22.5,140.7,22.5,140.6,22.4z   M107.8,12.9l-95.2,91.6c0.1,2.6,0.4,5.3,0.7,7.9L109.1,13C108.7,13,108.2,12.9,107.8,12.9z M85.5,13.6L14.3,82.2  c-0.7,3-1.1,6.1-1.4,9.2l75.3-78.2C87.3,13.3,86.4,13.5,85.5,13.6z M133.4,19.1L17.8,130.3c0.9,2.2,1.8,4.4,2.8,6.6L133.9,19.3  C133.7,19.2,133.5,19.1,133.4,19.1z M97.4,187.4c0.9,0.1,1.8,0.1,2.6,0.1c2,0,4-0.1,5.9-0.2l81.6-84.7v-1.9L97.4,187.4z M70.7,17.4  L18.6,67.7c-1.4,3.5-2.5,7-3.5,10.7l60-62.4C73.6,16.4,72.2,16.9,70.7,17.4z M117,14.1L13.5,113.8c0.4,2.5,0.9,5,1.6,7.5L118,14.3  C117.7,14.2,117.3,14.2,117,14.1z M125.6,16.3L15.3,122.4c0.7,2.4,1.4,4.7,2.2,7L126.3,16.5C126.1,16.4,125.8,16.3,125.6,16.3z   M117.8,185.7l68.5-71.2c0.2-0.9,0.3-1.8,0.4-2.7l-78.2,75.3C111.7,186.8,114.8,186.4,117.8,185.7z M159.1,35.4L33.2,156.6  c1.5,1.8,3.1,3.5,4.7,5.1L159.3,35.6C159.2,35.5,159.2,35.5,159.1,35.4z M153.4,30.6L28.7,150.8c1.3,1.8,2.7,3.7,4.2,5.4L153.7,30.8  C153.6,30.7,153.5,30.7,153.4,30.6z M132.3,181.4l50.3-52.2c0.5-1.4,1-2.9,1.4-4.4l-62.4,60C125.3,183.9,128.8,182.8,132.3,181.4z   M164.4,40.7L38.3,162.1c1.6,1.6,3.3,3.2,5.1,4.7L164.6,40.9C164.5,40.8,164.5,40.8,164.4,40.7z M97.3,12.4L12.7,94.1  c-0.2,1.9-0.2,3.9-0.2,5.9v2.5l86.7-90.1H97.3z M45.7,31.4L33.4,43.1c-4.6,5.4-8.6,11.4-11.8,17.8L58,23.2  C53.7,25.6,49.5,28.3,45.7,31.4z M180.8,66.1L63.1,179.4c2.2,1,4.4,1.9,6.6,2.8L181,66.6C180.9,66.4,180.9,66.2,180.8,66.1z   M156.9,166.6l11.8-12.2c3.1-3.9,5.8-8,8.2-12.3l-37.8,36.4C145.5,175.2,151.5,171.2,156.9,166.6z M187.1,90.9l-99.4,95.8  c2.5,0.3,5.2,0.6,7.9,0.7l91.6-95.2C187.2,91.7,187.1,91.3,187.1,90.9z M183.6,73.7l-113,108.8c2.3,0.8,4.6,1.5,7,2.2L183.8,74.4  C183.7,74.2,183.7,73.9,183.6,73.7z M185.7,81.9l-107,103c2.4,0.6,4.9,1.1,7.5,1.5l99.7-103.5C185.8,82.6,185.8,82.2,185.7,81.9z"/>
<g transform="translate(30 30) scale(0.7)"><path d="m104.92 40c-9 0-16.832 1.8327-23.832 5.166-7.1667 3.5-13.001 8.0013-17.834 13.668-4.8333 5.6666-8.5 12-11 19-1.8333 5-2.834 9.9987-3.334 14.832h15.164c0.5-3.1667 1.166-6.3333 2.166-9.5 1.6667-5.5 4.334-10.499 7.834-14.832 3.3333-4.3333 7.666-8.0013 12.666-10.668s10.833-4.166 17.5-4.166c3 0 5.9994 0.33333 9.166 1 3 0.66667 6 1.834 9 3.334 2.8333 1.6667 5.668 3.666 8.168 6.166 2.5 2.6667 4.6666 5.8333 6.5 9.5l11.832-7.666c-3.66-7.667-9.33-13.835-16.83-18.668-7.66-4.667-16.66-7.166-27.16-7.166zm-56.004 66.67c0.66667 5 1.8347 9.8346 3.668 14.668 2.6666 7.3333 6.5 13.833 11.5 19.5 5 5.6667 10.833 10.332 17.666 13.832 6.6666 3.6667 14.167 5.334 22.334 5.334 4.5 0 9.1667-0.50066 14-1.834 4.6666-1.1667 9.1667-2.832 13.5-5.332 4.3333-2.1667 8.1667-5.1667 11.5-8.5s6-7.334 8-11.834l-12.5-6.834c-1.6666 3.6667-3.8334 6.8333-6.5 9.5-2.6667 2.6667-5.5006 4.8333-8.334 6.5-3.1667 1.6667-6.1667 3.0013-9.5 3.668-3.3333 0.83334-6.5 1.166-9.5 1.166-6 0-11.334-1.1673-16.334-3.834-5-2.5-9.3333-5.9987-13-10.332-3.8333-4.3333-6.666-9.1673-8.666-14.834-1.3333-3.5-2.166-7.0007-2.666-10.834z" fill="#ffffff"/></g></svg>
