<?xml version="1.0" encoding="utf-8"?>
<svg version="1.1" xmlns:cc="http://creativecommons.org/ns#" xmlns:dc="http://purl.org/dc/elements/1.1/" xmlns:rdf="http://www.w3.org/1999/02/22-rdf-syntax-ns#" xmlns="http://www.w3.org/2000/svg" xmlns:xlink="http://www.w3.org/1999/xlink" x="0px" y="0px" viewBox="0 0 200 200" xml:space="preserve">
<defs>
<filter id="chalk" style="color-interpolation-filters:sRGB">
   <feFlood id="feFlood5966"/>
   <feFlood result="result2" flood-color="rgb(255,255,255)" id="feFlood5968"/>
   <feColorMatrix result="result1" type="luminanceToAlpha" in="SourceGraphic" id="feColorMatrix5970"/>
   <feTurbulence result="result4" numOctaves="10" baseFrequency="0.02" type="fractalNoise" id="feTurbulence5972">
   <animate attributeType="XML" attributeName="seed" from="1" to="50" dur="10s" repeatCount="indefinite"/>
   </feTurbulence>
   <feTurbulence result="result3" numOctaves="10" baseFrequency="0.05" type="fractalNoise" id="feTurbulence5974" seed="2"/>
   <feDisplacementMap result="result5" scale="56.29139072847682" yChannelSelector="G" xChannelSelector="R" in="result4" id="feDisplacementMap5976" in2="result3"/>
   <feDisplacementMap result="result6" scale="8.2781456953642394" xChannelSelector="B" in="result1" id="feDisplacementMap5978" in2="result5"/>
   <feComposite scale="56.299999999999997" operator="in" in="result2" id="feComposite5980" in2="result6" result="result14"/>
   <feTurbulence id="feTurbulence5984" type="fractalNoise" baseFrequency="0.03" numOctaves="10" result="result8">
   <animate attributeType="XML" attributeName="seed" from="1" to="50" dur="10s" repeatCount="indefinite"/>
   </feTurbulence>
   <feComponentTransfer id="feComponentTransfer6016" result="result16">
    <feFuncR id="feFuncR6018" type="identity"/>
    <feFuncG id="feFuncG6020" type="identity"/>
    <feFuncB id="feFuncB6022" type="identity"/>
    <feFuncA id="feFuncA6024" type="linear" slope="2.0899999999999999" intercept="-0.26000000000000001"/>
   </feComponentTransfer>
   <feTurbulence id="feTurbulence5986" type="fractalNoise" baseFrequency="0.6" result="result7">
   <animate attributeType="XML" attributeName="seed" from="1" to="50" dur="10s" repeatCount="indefinite"/>
   </feTurbulence>
   <feComponentTransfer id="feComponentTransfer6026" result="result17">
    <feFuncR id="feFuncR6028" type="identity"/>
    <feFuncG id="feFuncG6030" type="identity"/>
    <feFuncB id="feFuncB6032" type="identity"/>
    <feFuncA id="feFuncA6034" type="linear" slope="2"/>
   </feComponentTransfer>
   <feComposite in2="result17" id="feComposite5988" in="result16" operator="xor" result="result10"/>
   <feTurbulence id="feTurbulence5990" baseFrequency="0.01" type="fractalNoise" numOctaves="4.7847682119205297" result="result9">
   <animate attributeType="XML" attributeName="seed" from="1" to="50" dur="10s" repeatCount="indefinite"/>
   </feTurbulence>
   <feComponentTransfer id="feComponentTransfer6036" result="result15">
    <feFuncR id="feFuncR6038" type="identity"/>
    <feFuncG id="feFuncG6040" type="identity"/>
    <feFuncB id="feFuncB6042" type="identity"/>
    <feFuncA id="feFuncA6044" type="linear" slope="0.25" intercept="0"/>
   </feComponentTransfer>
   <feComposite in2="result15" id="feComposite5992" in="result10" operator="xor" result="result11"/>
   <feDisplacementMap in2="result10" id="feDisplacementMap5994" in="result11" scale="100" result="result12" xChannelSelector="G" yChannelSelector="B" numOctaves="5"/>
   <feColorMatrix id="feColorMatrix6002" type="luminanceToAlpha"/>
   <feComponentTransfer id="feComponentTransfer6004" result="result13">
    <feFuncR id="feFuncR6006" type="identity"/>
    <feFuncG id="feFuncG6008" type="identity"/>
    <feFuncB id="feFuncB6010" type="identity"/>
    <feFuncA id="feFuncA6012" type="linear" slope="4.6100000000000003" intercept="-1.1299999999999999"/>
   </feComponentTransfer>
   <feComposite in2="result13" id="feComposite6014" in="result14" operator="in"/>
  </filter>
</defs>
<path d="m104.92 40c-9 0-16.832 1.8327-23.832 5.166-7.1667 3.5-13.001 8.0013-17.834 13.668-4.8333 5.6666-8.5 12-11 19-1.8333 5-2.834 9.9987-3.334 14.832h15.164c0.5-3.1667 1.166-6.3333 2.166-9.5 1.6667-5.5 4.334-10.499 7.834-14.832 3.3333-4.3333 7.666-8.0013 12.666-10.668s10.833-4.166 17.5-4.166c3 0 5.9994 0.33333 9.166 1 3 0.66667 6 1.834 9 3.334 2.8333 1.6667 5.668 3.666 8.168 6.166 2.5 2.6667 4.6666 5.8333 6.5 9.5l11.832-7.666c-3.66-7.667-9.33-13.835-16.83-18.668-7.66-4.667-16.66-7.166-27.16-7.166zm-56.004 66.67c0.66667 5 1.8347 9.8346 3.668 14.668 2.6666 7.3333 6.5 13.833 11.5 19.5 5 5.6667 10.833 10.332 17.666 13.832 6.6666 3.6667 14.167 5.334 22.334 5.334 4.5 0 9.1667-0.50066 14-1.834 4.6666-1.1667 9.1667-2.832 13.5-5.332 4.3333-2.1667 8.1667-5.1667 11.5-8.5s6-7.334 8-11.834l-12.5-6.834c-1.6666 3.6667-3.8334 6.8333-6.5 9.5-2.6667 2.6667-5.5006 4.8333-8.334 6.5-3.1667 1.6667-6.1667 3.0013-9.5 3.668-3.3333 0.83334-6.5 1.166-9.5 1.166-6 0-11.334-1.1673-16.334-3.834-5-2.5-9.3333-5.9987-13-10.332-3.8333-4.3333-6.666-9.1673-8.666-14.834-1.3333-3.5-2.166-7.0007-2.666-10.834z" filter="url(#chalk)" style="color:#000000;clip-rule:nonzero;display:inline;overflow:visible;visibility:visible;opacity:1;isolation:auto;mix-blend-mode:normal;color-interpolation:sRGB;color-interpolation-filters:linearRGB;solid-color:#000000;solid-opacity:1;vector-effect:none;fill:#ffffff;fill-opacity:1;fill-rule:evenodd;stroke:none;stroke-width:0.9999999404;stroke-linecap:round;stroke-linejoin:round;stroke-miterlimit:4;stroke-dasharray:none;stroke-dashoffset:0;stroke-opacity:1;marker:none;paint-order:markers stroke fill;color-rendering:auto;image-rendering:auto;shape-rendering:auto;text-rendering:auto;enable-background:accumulate" />
</svg>