<?xml version="1.0" encoding="utf-8"?>
<!-- Generator: Adobe Illustrator 21.1.0, SVG Export Plug-In . SVG Version: 6.00 Build 0)  -->
<svg xmlns="http://www.w3.org/2000/svg" xmlns:xlink="http://www.w3.org/1999/xlink" version="1.1" id="Layer_1" x="0px" y="0px" viewBox="0 0 200 200" enable-background="new 0 0 200 200" xml:space="preserve">
<path fill="#fccdb9" d="M163.4,144.1c-0.4,0.6-0.4,1.2,0.2,1.6c0.6,0.4,1.3,0.3,1.7-0.3c0.4-0.6,0.4-1.4-0.2-1.8  C164.6,143.3,163.9,143.6,163.4,144.1z M146.9,146.9c0.3-0.2,0.3-0.8-0.1-1.1c-0.3-0.3-0.8-0.4-1.1-0.1s-0.2,0.8,0.1,1.1  C146.1,147.1,146.6,147.2,146.9,146.9z M175,117.9c-0.3,0.6-0.1,1.3,0.3,1.5c0.5,0.3,1,0,1.4-0.6c0.4-0.6,0.3-1.3-0.2-1.5  C176,117,175.3,117.3,175,117.9z M160,130.2c0.2-0.4,0.1-1-0.4-1.3c-0.5-0.2-1.2-0.1-1.4,0.4s0.1,0.9,0.6,1.2  C159.3,130.8,159.8,130.7,160,130.2z M187.4,112.6c-0.1-0.8-0.3-1.7-0.5-2.6c-0.3-0.9-0.7-1.7-1.4-2.4c-1.3-1.4-3.7-1.5-6.2-2.1  c-1.1-0.3-2.1-1-3.3-1.3c-0.9-0.3-1.7-0.7-2.6-1.2v-0.1c0-0.8,0-1.5,0.1-2.1h-0.2c0-0.6,0-1.2-0.1-1.9c-0.1-2.7-0.1-6-0.5-7.7l0.9,1  c1.4,1.5,2.6,2.6,3.4,3.2c1.2,1.1,2.5,1.8,3.8,2.1c1.5,0.4,2.9,0.2,3.8-0.9c0.9-1.1,0.9-2.9,0.2-4.6c-0.6-1.4-1.5-2.7-2.8-3.7  c-1.4-1.1-3.2-1.7-5.5-1.9c-1.6-0.1-3.4,0-5.3-0.4v-0.1c-0.6-2.5,0.2-2.7-0.4-5.2c-0.6-2.5-1.2-2.4-2-4.8c-0.4-1.2-0.7-1.8-0.9-2.4  s-0.4-1.2-1-2.4c-1.1-2.3-1.1-2.3-2.3-4.6c-0.2-0.4-0.3-0.7-0.5-1c1.1,0.8,2,1.7,3.1,2.5c0.9,0.7,2.8,1.5,4.8,2.3  c1.9,0.8,3.7,1.6,4.5,1.6c1.7,0.1,3-0.4,3.7-1.7c1.4-2.6-0.7-6.6-4.5-8.6c-1.7-1-3.9-0.3-6.4,0c-2,0.2-4.3,0.4-6.8,0.2  c-0.7-1.1-1.1-1.6-1.5-2.1c-0.5-0.5-0.9-0.9-1.7-1.9c-1.6-2-1.2-2.3-2.9-4.3c-1.8-1.9-2.1-1.6-3.9-3.5c-0.8-0.9-1.3-1.4-1.7-1.8  c0.6,0.1,1.3,0,1.9,0c0.6,0,1.2,0,1.8,0.1c2.1,0.3,4.1,0.6,5.2,0.6c1.8,0,3.6-0.3,4.8-1c1.5-0.8,2.3-2.2,2.1-3.7  c-0.2-1.6-1.4-3-3.2-4.1c-1.4-0.8-3.3-1.7-5.1-1.6c-1.9,0.1-3.5,2-5.5,3.5c-0.9,0.7-2,1-3.1,1.7c-0.8,0.5-1.6,0.9-2.5,1.3h-0.1  c-0.5-0.4-1-0.8-1.4-1.1l0.1-0.2c-0.5-0.4-1.1-0.8-1.7-1.3c-1.1-0.8-2.2-1.8-3.3-2.5c-1.2-0.7-2.2-1.4-2.9-1.9h1.3  c1.9-0.1,3.7-0.6,4.7-0.7c1.6-0.3,3-0.8,4-1.6c1.2-1,2-2.2,1.6-3.6c-0.3-1.4-1.7-2.5-3.5-3c-1.4-0.4-3-0.5-4.6-0.2  c-1.7,0.4-3.3,1.4-4.9,3.2c-1.1,1.2-2.2,2.7-3.7,3.9h-0.1c-2.3-1.1-1.9-1.9-4.3-3c-2.4-0.9-2.6-0.5-5-1.4c-2.4-1-2.5-0.7-5-1.4  c-1.3-0.3-1.9-0.5-2.5-0.6c-0.6-0.2-1.2-0.3-2.5-0.5c-0.4-0.1-0.8-0.1-1.1-0.2c1.3-0.3,2.6-0.7,3.9-0.9c1-0.2,2.9-1.2,4.8-2.2  c1.8-1,3.6-2.1,4.1-2.6c1.1-1.3,1.6-2.6,0.9-4c-1.2-2.5-5.6-3.5-9.5-1.8c-1.8,0.9-2.7,2.9-4,5.1c-1.1,1.7-2.3,3.6-4,5.4  c-2.6-0.3-2.6,0.2-5.2,0.1c-2.6-0.1-2.6-0.5-5.2-0.4c-2.6,0.2-2.6,0.6-5.1,0.8c-1.2,0.1-1.9,0.2-2.5,0.3c0.9-0.9,1.5-2.2,2.4-2.9  c1.6-1.4,3-2.7,3.7-3.6c1.2-1.4,2-2.9,2.3-4.4c0.3-1.7-0.2-3.1-1.6-4c-1.4-0.9-3.2-0.8-5.2-0.1c-1.5,0.5-3.4,1.6-4.5,3  c-1.1,1.6-0.6,3.9-0.7,6.5c0,1.1-0.5,2.2-0.6,3.5c-0.1,0.9-0.3,1.8-0.6,2.8h-0.1c-0.6,0.1-1.2,0.3-1.7,0.4l-0.1-0.4  c-0.6,0.1-1.3,0.3-2.1,0.5c-1.3,0.3-2.8,0.6-4.1,1c-1.3,0.4-2.5,0.9-3.3,1.1l0.8-1.1c1.2-1.6,1.9-3.3,2.4-4.1  c0.8-1.4,1.2-2.8,1.2-4.1c0-1.6-0.5-2.9-1.8-3.5c-0.7-0.3-1.4-0.4-2.2-0.2c-0.8,0.2-1.6,0.6-2.3,1.1c-1.2,0.8-2.3,2-3,3.5  c-0.8,1.5-0.9,3.5-0.6,5.8c0.2,1.6,0.8,3.4,0.8,5.3h-0.1c-2.3,1.1-2.7,0.3-5,1.5c-2.2,1.3-2,1.7-4.2,3c-1.1,0.6-1.6,1-2.1,1.4  c-0.5,0.4-1,0.8-2.1,1.6c-2.1,1.6-2.1,1.5-4,3.2c-0.3,0.3-0.6,0.5-0.9,0.7c0.6-1.2,1.1-2.5,1.7-3.6c0.5-1,0.9-3,1.2-5.1  c0.3-2.1,0.6-4.1,0.5-4.8c-0.3-1.7-1-2.8-2.5-3.2c-2.7-0.6-6.2,2.2-7.3,6.3c-0.5,2,0.6,3.9,1.4,6.3c0.7,1.9,1.4,4.1,1.7,6.5  c-1.8,1.9-1.4,2.2-3.2,4.1c-1.8,1.9-1.9,1.8-3.5,3.8c-1.5,2.1-1.3,2.3-2.6,4.5c-0.6,1.1-1,1.6-1.4,2.1c-0.2-1.2-0.6-2.5-0.8-3.7  c-0.3-2.2-0.2-4.1-0.5-5.2c-0.4-1.8-1-3.4-2-4.5c-1.1-1.3-2.6-1.8-4.1-1.3s-2.8,1.9-3.3,4c-0.4,1.6-0.9,3.6-0.4,5.4  c0.5,1.9,2.7,2.9,4.6,4.5c0.8,0.7,1.4,1.7,2.3,2.6c0.7,0.7,1.3,1.4,1.9,2.2v0.1c-0.3,0.7-0.6,1.4-0.9,1.9l0.3,0.1  c-0.3,0.5-0.5,1.1-0.9,1.7c-0.7,1.2-1.1,2.6-1.7,3.9c-0.5,1.3-1,2.5-1.3,3.2l-0.7-1c-0.5-1.9-1.3-3.5-1.7-4.4  c-0.7-1.5-1.6-2.8-2.6-3.6c-1.2-1-2.6-1.4-3.8-0.8c-1.2,0.7-1.9,2.3-2.1,4.1c-0.1,1.5,0,3,0.8,4.5c0.8,1.6,2.3,2.9,4.3,4.1  c1.4,0.8,3.1,1.5,4.6,2.7v0.1c-0.7,2.5-1.5,2.3-1.9,4.8c-0.4,2.6,0,2.6-0.4,5.2c-0.1,2.6-0.1,2.6-0.3,5.2c-0.2,2.6-0.1,2.6,0.1,5.2  v1.1c-0.6-1.2-1.2-2.4-1.8-3.5c-0.5-1-1.8-2.6-3.2-4.1c-1.4-1.5-2.8-3-3.5-3.4c-1.6-0.8-2.9-1-4.1,0c-1.1,0.9-1.6,2.4-1.6,4.2  c0,0.9,0.2,1.8,0.4,2.8c0.3,0.9,0.9,1.9,1.5,2.7c1.2,1.6,3.4,1.9,5.8,2.8c1.9,0.7,4,1.5,6.1,2.7c0.4,2.6,0.8,2.5,1.2,5.1  c0.4,2.6,0.2,2.6,0.8,5.1c0.3,1.3,0.6,1.9,0.9,2.4c0.3,0.6,0.5,1.2,1,2.4c0.4,1.2,0.6,1.8,0.8,2.4c-1.1-0.6-2.3-1.1-3.4-1.7  c-1.9-1.2-3.3-2.4-4.4-2.8c-1.6-0.8-3.3-1.3-4.7-1.3c-1.7,0.1-3,0.9-3.6,2.4c-0.5,1.5-0.2,3.4,1.1,5.1c1,1.3,2.3,3,3.9,3.7  c1.8,0.7,3.9-0.3,6.4-0.8c1.1-0.2,2.2,0,3.5-0.2c0.9-0.1,1.9-0.1,2.9-0.1v0.1c0.4,0.7,0.7,1.4,1,1.9l4.6-2.2  c-0.3-0.5-1.2-1.7-1.2-1.7c-0.4-0.4-0.7-0.1-1.3-1.6c-0.4-1.1-0.6-1.7-0.7-2.2c0.4-0.3,0.8-0.6,1.1-0.8c1-0.7,2.2-1,3.2-1.6  c2.2-1.2,3.7-2.4,4.7-3.7c0.9-1.2,2.1-2.3,2.3-3.4c0.5-1.6,0.1-2.8-1-3.4c-1.1-0.6-2.7-0.5-4.3,0c-1.4,0.5-2.9,1.3-3.9,2.5  c-0.7,0.8-1.6,2.3-2.4,4.1c-0.3,0.5-0.4,1.1-0.6,1.7c-0.1-0.8-0.2-1.4-0.6-2.9c-0.6-2.3-1.4-2.1-1.7-4.6c-0.4-2.4-0.3-2.4-0.6-4.8  c-0.2-2.4-0.3-2.4-0.4-4.8c-0.1-2.4,0.1-2.4,0.3-4.9v-1.7l0.3-0.2c0.9-0.7,2-1.2,3-1.7c1.1-0.5,2.3-0.6,3.3-0.9  c2.4-0.7,4.1-1.4,5.3-2.4c1.1-0.9,2.2-1.7,2.6-2.7c0.5-1.2,0.3-2.6-0.7-3.5c-1-0.9-2.6-1.3-4.3-1.1c-1.4,0.1-2.9,0.7-4.2,1.7  c-0.4,0.3-0.9,0.8-1.4,1.4c-0.5,0.6-1,1.4-1.6,2.2c-0.6,1-0.9,2.2-1.5,3.3c-0.4,0.6-0.6,1.2-0.9,1.7v-1.1c0.4-2.4,1-2.3,1.4-4.7  c0.4-2.4,0-2.5,0.7-4.8s0.8-2.3,1.6-4.6c0.3-0.8,0.8-2,1.4-3.2c0.6-1.2,1.1-2.5,1.8-3.6c0.4-0.7,0.7-1.3,1-1.7l-0.3-0.1  c0.2-0.6,0.5-1.7,0.5-1.7c0.1-0.6-0.4-0.6,0.5-2.1c0.6-1,0.9-1.5,1.3-1.9c0.5,0.1,0.9,0.2,1.4,0.4c1.2,0.3,2.2,1.1,3.2,1.5  c2.3,0.9,4.2,1.4,5.8,1.4c1.5,0,3.1,0.2,4.1-0.3c1.1-0.6,1.7-1.7,1.5-2.9s-1.3-2.4-2.7-3.4c-1.2-0.8-2.8-1.5-4.5-1.5  c-1,0-2.8,0.2-4.7,0.7c-0.6,0.1-1.1,0.4-1.7,0.6c0.5-0.6,1-1,1.9-2.3c1.4-1.9,0.8-2.4,2.5-4.2c1.6-1.8,1.7-1.7,3.3-3.5  c1.8-1.6,1.7-1.7,3.5-3.4c1.8-1.7,2.1-1.3,4-2.8c0.6-0.4,1-0.8,1.3-1.1l0.3,0.1c1.2,0.3,2.2,0.7,3.2,1.3c1.1,0.6,1.9,1.5,2.8,2.1  c2,1.4,3.7,2.3,5.1,2.6c1.4,0.2,2.7,0.7,3.7,0.4c1.3-0.4,2.2-1.5,2.2-2.9c0.1-1.4-0.7-2.9-1.8-4c-1-1-2.3-1.9-3.9-2.2  c-0.9-0.2-2.8-0.4-4.7-0.1c-1.1,0.1-2.3,0.7-3.5,0.9c-0.7,0.1-1.3,0.2-1.9,0.4c0.2-0.2,0.5-0.4,0.9-0.6c2.1-1.2,2.4-0.7,4.5-1.9  c2.2-1.1,2-1.4,4.2-2.4c1.1-0.5,1.7-0.7,2.2-0.9c0.6-0.1,1.2-0.3,2.3-0.7c0.9-0.3,2.1-0.6,3.4-1c1.3-0.4,2.7-0.5,4-0.8  c0.6-0.1,1.1-0.2,1.6-0.3l0.1,0.4c0.5-0.2,1.9-0.8,1.9-0.8c0.5-0.3,0.3-0.6,1.9-0.9c1.1-0.2,1.7-0.2,2.3-0.2  c0.2,0.4,0.4,0.9,0.6,1.3c0.5,1.1,0.5,2.4,0.8,3.4c0.7,2.4,1.5,4.1,2.5,5.5c1,1.3,1.8,2.5,2.8,3c1.5,0.1,2.8-0.2,3.7-1  c0.8-0.9,1.1-2.5,0.9-4.2c-0.2-1.4-0.6-3.1-1.6-4.5c-0.6-0.9-1.9-2-3.5-3.3l-1.5-0.9c0.8,0,1.4,0.1,2.9,0c2.4-0.2,2.4-0.7,4.8-0.6  c2.4,0.2,2.4,0.1,4.8,0.4c2.4,0.4,2.4,0.2,4.8,0.6c1.2,0.2,1.8,0.4,2.3,0.6c0.6,0.2,1.1,0.5,2.3,0.8c0.7,0.2,1.2,0.3,1.6,0.3  l0.2,0.3c0.5,1.1,0.8,2.2,1,3.3c0.2,1.2,0,2.4,0.1,3.5c0.2,2.5,0.5,4.3,1.2,5.6c0.7,1.2,1.1,2.6,2,3.2c1.1,0.7,2.5,0.8,3.7,0  c1.1-0.8,1.8-2.3,2-3.9c0.2-1.4,0-3-0.7-4.4c-0.5-0.9-1.4-2.4-2.8-3.8c-0.8-0.8-2-1.3-2.9-2.2c-0.5-0.4-1-0.9-1.5-1.3  c0.3,0.1,0.6,0.2,1,0.3c2.3,0.9,2.1,1.5,4.3,2.3c2.2,1,2.3,0.7,4.5,1.8c2.2,1.1,2,1.3,4.1,2.6c0.8,0.5,1.8,1.2,2.9,2  c1.1,0.8,2.1,1.8,3.1,2.6c0.5,0.4,0.9,0.8,1.3,1.1l-0.2,0.2c0.2,0.2,0.7,0.4,1.1,0.6c0.4,0.2,0.7,0.4,0.7,0.4  c0.5,0.2,0.6-0.1,1.9,0.9c0.9,0.8,1.3,1.2,1.6,1.6c-0.2,0.4-0.4,0.8-0.6,1.2c-0.6,1.1-1.5,1.9-2.1,2.8c-1.4,2-2.4,3.8-2.7,5.4  c-0.4,1.5-0.8,3-0.5,4c0.6,1.5,1.4,2.4,2.7,2.5c1.2,0.1,2.7-0.7,3.9-1.9c1-1,2-2.4,2.5-4c0.1-0.5,0.3-1.2,0.4-2  c0.1-0.8,0.1-1.7,0-2.7c0-0.6-0.1-1.2-0.3-1.7c0.5,0.7,0.8,1.1,1.9,2.2c1.6,1.8,2,1.5,3.5,3.4c0.7,1,1.1,1.5,1.4,2s0.6,1.1,1.2,2.1  c1.2,2.1,1.4,2,2.6,4.1c1,2.2,0.8,2.3,1.8,4.5c0.3,0.7,0.6,1.1,0.8,1.5l-0.2,0.3c-0.6,1.1-1.3,2-2,2.8c-0.8,0.9-1.9,1.5-2.7,2.2  c-1.8,1.7-2.9,3-3.6,4.4c-0.7,1.3-1.4,2.5-1.3,3.6c0.1,0.7,0.3,1.3,0.8,1.7c0.4,0.5,0.9,0.9,1.5,1.1c1.2,0.4,2.9,0,4.3-0.9  c1.2-0.7,2.5-1.9,3.1-3.3c0.4-0.9,0.8-2.6,1.2-4.6c0.3-1.2-0.2-2.4-0.1-3.6v-2c0.1,0.3,0.3,0.6,0.4,1c0.8,2.3,0.3,2.5,0.8,4.8  c0.6,2.3,0.9,2.3,1.5,4.6c0.4,2.4,0.1,2.4,0.4,4.8c0.1,0.9,0.3,2.1,0.2,3.5c0,1.3-0.1,2.8-0.1,4v2h0.2c0,0.7,0.2,1.8,0.2,1.8  c0.2,0.5,0.5,0.4,0.5,2.1c0,1.1-0.1,1.7-0.2,2.3c-0.5,0.1-0.9,0.2-1.4,0.3c-1.2,0.2-2.4,0-3.5,0.1c-2.5,0.2-4.5,0.5-6,1.2  c-1.4,0.7-2.8,1.2-3.4,2.1c-0.8,1.4-1.2,2.6-0.4,3.6c0.7,1,2.2,1.7,4,1.9c1.4,0.2,3.1,0.1,4.7-0.6c1-0.4,2.6-1.3,4-2.7  c0.4-0.4,0.8-0.8,1.2-1.3c-0.2,0.8-0.4,1.3-0.6,2.9c-0.5,2.3,0.1,2.5-0.5,4.8c-0.6,2.4-0.7,2.3-1.5,4.6c-0.9,2.3-0.6,2.4-1.6,4.6  c-1.1,2.2-1.3,2.1-2.4,4.2c-0.3,0.6-0.5,1.1-0.7,1.5l-0.3,0.1c-1.2,0.2-2.4,0.2-3.5,0.2c-1.2,0-2.3-0.5-3.4-0.7  c-2.4-0.4-4.2-0.4-5.7-0.1s-2.8,0.5-3.6,1.3c-0.5,0.5-0.8,1.1-0.9,1.7c-0.2,0.6-0.2,1.2,0.1,1.9c0.5,1.2,1.8,2.3,3.4,2.8  c1.3,0.5,3,0.8,4.5,0.3c0.9-0.2,2.5-1,4.3-2c1.1-0.5,1.8-1.6,2.8-2.4c0.5-0.4,1.1-0.8,1.6-1.2c-0.1,0.3-0.3,0.6-0.5,0.9  c-1.3,2.1-1.7,1.8-3.3,3.7c-1.5,1.9-1.2,2.2-2.7,4.1c-1.7,1.8-1.8,1.6-3.5,3.4c-1.2,1.4-3.9,3.2-5.8,4.8c-0.6,0.5-1.1,0.9-1.6,1.2  l0.1,0.1c-0.4,0.4-0.9,0.9-0.9,0.9c-0.3,0.5,0,0.7-1.3,1.7c-0.9,0.7-1.4,1-2,1.2c-0.4-0.3-0.7-0.6-1.1-0.9c-0.9-0.8-1.5-1.9-2.2-2.7  c-1.7-1.9-3.2-3.1-4.7-3.9c-1.4-0.7-2.7-1.4-3.8-1.4c-2,0.5-3.1,1.2-3.5,2.4c-0.3,1.2,0.1,2.8,1,4.3c0.8,1.2,1.9,2.4,3.4,3.2  c0.9,0.5,2.6,1.1,4.6,1.6c0.6,0.1,1.1,0.1,1.7,0.1c-0.7,0.4-1.2,0.6-2.6,1.3c-2.2,1.1-1.9,1.7-4.1,2.7c-2.3,0.9-2.3,0.8-4.6,1.6  c-2.3,0.9-2.2,1-4.6,1.6c-2.4,0.6-2.4,0.4-4.8,0.8c-0.7,0.1-1.2,0.2-1.6,0.3l-0.3-0.2c-0.9-0.8-1.7-1.7-2.3-2.6  c-0.7-0.9-1.1-2.1-1.6-3.1c-1.2-2-2.3-3.6-3.5-4.6c-1.2-0.9-2.2-1.9-3.2-1.9c-1.3,0-2.6,0.3-3.3,1.5c-0.7,1.1-0.7,2.8-0.1,4.4  c0.5,1.3,1.3,2.8,2.6,3.8c0.8,0.6,2.3,1.3,4.2,2c1.1,0.4,2.4,0.5,3.6,0.8c0.7,0.1,1.3,0.3,1.9,0.4c-0.3,0.1-0.6,0.1-1.1,0.2  c-1.2,0.2-1.8,0.1-2.4-0.1c-0.6-0.1-1.2-0.3-2.4-0.2c-2.4,0-2.4,0.6-4.8,0.4c-2.4-0.2-2.4-0.4-4.8-0.6c-0.9,0-2.1-0.3-3.4-0.6  c-1.3-0.3-2.7-0.6-3.9-0.9c-0.7-0.1-1.4-0.4-1.9-0.6l-1.1,5c0.6,0.1,1.3,0.4,2.1,0.5c2.6,0.4,5.9,1.1,7.6,1.2  c-0.4,0.2-0.8,0.5-1.2,0.6c-1.7,0.8-3.1,2-3.9,2.5c-1.3,1-2.3,2.1-2.9,3.3c-0.7,1.4-0.8,2.8,0.1,3.9c0.9,1.1,2.6,1.4,4.5,1.2  c1.4-0.1,2.9-0.8,4.2-1.9c1.4-1.1,2.3-2.8,3-5c0.5-1.6,0.8-3.4,1.6-5.1h0.1c1.3,0.1,1.9,0.3,2.6,0.5c0.6,0.2,1.3,0.4,2.6,0.3  c1.3,0,1.9-0.2,2.6-0.3c0.6-0.1,1.3-0.3,2.6-0.5c2.6-0.4,2.6-0.4,5.1-0.8c2.5-0.5,2.5-0.6,5-1.2c0.4-0.1,0.8-0.2,1.1-0.2  c-1,0.8-2.1,1.6-3.1,2.5c-0.4,0.4-0.9,1-1.5,1.7c-0.6,0.7-1.2,1.5-1.8,2.4c-1.2,1.7-2.3,3.4-2.5,4.1c-0.5,1.7-0.3,3,0.9,4  c1.1,0.9,2.7,1.1,4.5,0.7c1.7-0.4,3.5-1.6,4.9-3.2c1.3-1.5,1.2-3.7,1.5-6.2c0.2-1.9,0.5-4.3,1.3-6.7c2.4-0.9,2.3-1.3,4.7-2.2  c2.3-1.1,2.5-0.8,4.8-2c1.2-0.6,1.7-1,2.2-1.4c0.5-0.4,1-0.9,2.1-1.6c1.1-0.7,1.6-1,2.2-1.3c-0.4,1.2-0.5,2.5-1,3.6  c-0.8,2-1.5,3.9-1.7,5c-0.4,1.7-0.6,3.4-0.2,4.8c0.5,1.7,1.6,2.7,3.2,3c1.7,0.3,3.3-0.7,4.7-2.3c1.1-1.3,2.4-2.8,2.8-4.6  c0.3-2-1.2-3.8-2.2-6.2c-0.5-1-0.6-2.2-1-3.4c-0.3-0.9-0.5-1.8-0.7-2.8c0.6-0.5,1.2-0.9,1.7-1.3l0,0c0.4-0.3,0.7-0.6,1.1-0.9  c1-0.9,2.1-1.9,3.2-2.8c0.5-0.5,1-0.9,1.5-1.3l1.1-1.1l-0.2,1.3c-0.4,1.9-0.4,3.6-0.4,4.6c-0.1,1.6,0.2,3.1,0.8,4.3  c0.7,1.4,1.7,2.4,3.1,2.4s2.7-1.1,3.7-2.7c0.8-1.2,1.1-2.8,1.1-4.5c0-1.8-0.7-3.6-2-5.5c-0.9-1.3-2.1-2.7-3-4.4l0.1-0.1  c1.6-2,2.2-1.5,3.8-3.6c1.6-2,1.1-2.4,2.5-4.5c0.7-1.1,1-1.7,1.3-2.2c0.3-0.6,0.7-1.1,1.2-2.3c1.1-2.3,1.1-2.3,2.2-4.7  c0.2-0.4,0.4-0.7,0.5-1c0,1.3-0.1,2.6,0,3.9c0,1.1,0.6,3.2,1.2,5.2c0.5,2,1.1,3.9,1.5,4.5c1,1.4,2.2,2.1,3.7,1.8  c1.3-0.3,2.7-1.4,3.3-3c0.7-1.6,1-3.7,0.6-5.8c-0.3-1.9-2.2-3.2-4-5c-1.4-1.4-3.1-3.1-4.4-5.2c0.4-1.2,0.6-1.9,0.7-2.5  c0.1-0.7,0.1-1.3,0.4-2.6c0.6-2.5,1-2.4,1.5-5c0.4-2.6-0.1-2.6,0.3-5.2c0.2-1.2,0.3-1.9,0.4-2.5c0.8,1,1.6,2,2.2,3  c1.1,1.9,2.1,3.6,2.8,4.5c1.2,1.5,2.4,2.6,3.7,3.2c1.6,0.7,3.2,0.5,4.3-0.6C187.4,116.5,187.8,114.7,187.4,112.6z M105.9,177.4  c-0.7,0-1.2,0.5-1.1,1.2c0,0.7,0.5,1.2,1.3,1.1c0.8,0,1.4-0.5,1.3-1.2C107.3,177.8,106.6,177.4,105.9,177.4z M94.2,165.6  c0-0.5-0.2-0.9-0.6-0.9c-0.4,0-0.8,0.3-0.8,0.7c-0.1,0.4,0.2,0.9,0.6,1C93.8,166.4,94.2,166,94.2,165.6z M133.6,170.1  c-0.7,0.1-1.1,0.7-1,1.2c0.1,0.5,0.6,0.8,1.3,0.7c0.7-0.2,1.2-0.6,1-1.2C134.9,170.3,134.3,170,133.6,170.1z M113.7,165.6  c0.1,0.4,0.5,0.7,1,0.6c0.5-0.1,0.9-0.6,0.7-1.1c-0.1-0.5-0.7-1-1.2-0.8S113.5,165,113.7,165.6z M44,155.1c0.6-0.5,0.5-1.3,0-1.8  s-1.1-0.6-1.7-0.1c-0.5,0.5-0.6,1.1-0.1,1.7C42.7,155.5,43.5,155.6,44,155.1z M46,136.8c0.4-0.2,0.6-0.7,0.4-1.1  c-0.2-0.3-0.7-0.4-1.1-0.2c-0.4,0.2-0.6,0.7-0.4,1.1C45.1,136.9,45.6,137,46,136.8z M67.3,171.9c0.3-0.4,0.2-1.1-0.3-1.5  c-0.5-0.4-1.2-0.4-1.6,0c-0.4,0.4-0.2,1,0.3,1.4C66.3,172.2,66.9,172.3,67.3,171.9z M58.3,153.1c0.4,0.3,1,0.3,1.3-0.1  c0.3-0.4,0.3-1.1-0.1-1.4s-1-0.1-1.3,0.4C57.9,152.3,57.9,152.8,58.3,153.1z M82.9,167.6c-0.6,0.1-0.5,0.4-2.1,0  c-1.1-0.2-1.7-0.5-2.2-0.8c0-0.5,0-1,0.1-1.4c0.1-1.2,0.6-2.4,0.7-3.5c0.4-2.5,0.5-4.4,0.1-6.1c-0.3-1.5-0.6-2.9-1.3-3.8  c-0.9-1.1-2.1-1.6-3.3-1.1c-1.1,0.5-2.1,1.9-2.7,3.5c-0.5,1.3-0.8,3-0.5,4.6c0.2,1,0.8,2.7,1.7,4.6c0.3,0.5,0.6,1,1,1.4  c-0.8-0.3-1.2-0.6-2.6-1.3c-2.2-1-2.5-0.4-4.7-1.5c-2.1-1.2-2-1.3-4.1-2.6c-2.1-1.2-2.1-1.2-4.1-2.6c-1.9-1.5-1.8-1.6-3.6-3.2  c-0.5-0.5-0.9-0.8-1.3-1v-0.4c0-1.2,0.3-2.4,0.5-3.4c0.3-1.1,1-2.2,1.4-3.1c0.9-2.2,1.5-4.1,1.4-5.6c0-1.5,0.1-2.8-0.5-3.7  c-0.6-1.2-1.8-1.8-3.2-1.6c-1.3,0.2-2.6,1.3-3.5,2.7c-0.7,1.2-1.3,2.7-1.3,4.4c-0.1,1.1,0.4,2.7,1,4.6c0.4,1.1,1.1,2.1,1.6,3.3  c0.3,0.6,0.6,1.2,0.9,1.7c-0.2-0.2-0.5-0.4-0.8-0.7c-1.7-1.7-1.2-2.2-2.8-4c-1.6-1.8-1.9-1.5-3.3-3.5c-1.4-2-1.3-2.1-2.6-4.1  c-0.4-0.8-1-1.9-1.6-3.1c-0.6-1.2-1.3-2.4-1.7-3.7c-0.3-0.7-0.5-1.3-0.8-1.8l-4.6,2.2c0.3,0.6,0.6,1.2,0.9,1.9  c0.5,1.2,1.3,2.5,2,3.7c0.7,1.2,1.3,2.3,1.7,3l-1.2-0.5c-1.8-0.8-3.5-1.2-4.5-1.4c-1.6-0.4-3.2-0.5-4.4-0.2c-1.5,0.3-2.7,1.1-3,2.5  c-0.3,1.4,0.6,2.9,1.9,4.2c1.1,1,2.3,1.8,4,2.2c1.7,0.4,3.7,0.1,5.8-0.8c1.5-0.6,3.1-1.5,5-1.9v0.1c1.5,2.1,0.9,2.6,2.6,4.5  c1.7,1.9,2,1.7,3.8,3.5c1.9,1.7,1.9,1.7,3.8,3.5c1.9,1.7,2.1,1.6,4.1,3.2c0.3,0.3,0.6,0.5,0.9,0.7l-3.9-0.9  c-0.5-0.1-1.4-0.1-2.3-0.1c-0.9,0-1.9,0-3,0.1c-2.1,0.1-4.1,0.3-4.8,0.6c-1.6,0.7-2.6,1.6-2.6,3.2c0,2.8,3.4,5.7,7.8,5.8  c2,0.1,3.6-1.4,5.8-2.7c1.7-1,3.7-2.3,6-3.2c2.2,1.3,2.4,1,4.7,2.3c2.3,1.1,2.2,1.4,4.5,2.5c2.3,1.1,2.6,0.6,5,1.5  c1.2,0.4,1.8,0.7,2.4,0.9c-1.2,0.4-2.3,1.1-3.4,1.5c-2.1,0.6-4,1.3-5,1.7c-1.6,0.7-3.1,1.7-3.9,2.9c-1,1.4-1.2,2.9-0.3,4.3  c0.8,1.5,2.6,2.2,4.7,2.2c1.7,0.1,3.7,0.2,5.3-0.7c1.7-1,2.3-3.3,3.4-5.6c0.5-1,1.4-1.8,2-2.9c0.5-0.8,1.1-1.5,1.7-2.3h0.1  c0.8,0.2,1.5,0.3,2.1,0.5l1.1-5C84.4,167.7,82.9,167.6,82.9,167.6z M24.3,89.8c0.1-0.7-0.3-1.3-0.9-1.4c-0.7-0.1-1.3,0.3-1.4,1  c-0.1,0.7,0.2,1.5,1,1.6C23.6,91.1,24.2,90.5,24.3,89.8z M37.9,80.1c-0.2,0.4,0.1,0.8,0.5,1c0.4,0.1,0.9,0,1.1-0.4  c0.1-0.4-0.1-0.8-0.5-1C38.6,79.5,38.1,79.7,37.9,80.1z M25.2,118.4c0-0.7-0.5-1.2-1-1.2s-0.9,0.4-0.9,1.1s0.4,1.3,0.9,1.3  C24.8,119.7,25.2,119.1,25.2,118.4z M33.3,100.9c0,0.5,0.4,1,0.9,1c0.6,0,1-0.5,1.1-0.9c0-0.5-0.5-0.8-1-0.8  C33.7,100,33.4,100.4,33.3,100.9z M61.6,34.8c0.6-0.4,0.8-1,0.5-1.6c-0.3-0.6-1-0.8-1.6-0.4c-0.7,0.4-1,1.1-0.6,1.7  C60.2,35.1,61,35.2,61.6,34.8z M78.2,41.1c0.4-0.1,0.6-0.6,0.4-1c-0.1-0.4-0.6-0.7-1-0.6c-0.3,0.1-0.5,0.6-0.3,1  S77.9,41.2,78.2,41.1z M39.8,53.4c0.5-0.4,0.6-1.1,0.3-1.6c-0.3-0.4-0.9-0.4-1.5,0c-0.6,0.4-0.7,1.1-0.4,1.5  C38.6,53.8,39.3,53.9,39.8,53.4z M59.9,50.4c0.3-0.3,0.3-0.9,0-1.3c-0.4-0.5-0.8-0.6-1.2-0.3c-0.4,0.3-0.6,0.8-0.2,1.3  C58.9,50.5,59.6,50.7,59.9,50.4z M127.9,29.7c0.7,0.3,1.3,0,1.6-0.6c0.3-0.7,0-1.3-0.7-1.5c-0.7-0.3-1.5-0.1-1.7,0.6  C126.8,28.8,127.2,29.5,127.9,29.7z M134.4,46.3c0.3-0.4,0.2-0.9-0.1-1.1c-0.3-0.2-0.8,0-1.1,0.4s-0.2,0.9,0.1,1.1  S134.1,46.7,134.4,46.3z M99.8,24.3c0.7,0.1,1.3-0.1,1.4-0.7c0.1-0.5-0.2-1-0.9-1.2c-0.7-0.2-1.3,0.1-1.4,0.6  C98.7,23.6,99.1,24.1,99.8,24.3z M114.7,38c0.5,0.1,0.9-0.3,1-0.9c0.1-0.4-0.1-0.8-0.6-1c-0.5-0.1-1,0.1-1.1,0.6  S114.2,37.9,114.7,38z M174,76.8c-0.8,0.1-1,0.9-0.7,1.6c0.2,0.7,0.7,1,1.4,0.9c0.7-0.1,1-0.8,0.9-1.5  C175.4,77.1,174.7,76.6,174,76.8z M164.3,93.8c0.5,0,0.8-0.4,0.8-0.8c0-0.4-0.5-0.7-0.9-0.6c-0.5,0.1-0.8,0.4-0.8,0.8  C163.4,93.6,163.9,93.9,164.3,93.8z M160.4,51.4c-0.5,0.2-0.8,0.9-0.5,1.6c0.3,0.6,0.9,0.9,1.4,0.7s0.6-0.8,0.4-1.5  C161.4,51.5,160.9,51.2,160.4,51.4z M159.7,73.5c0.5-0.2,0.7-0.7,0.5-1.1c-0.2-0.4-0.7-0.7-1.2-0.5c-0.5,0.2-0.8,0.9-0.6,1.3  C158.6,73.6,159.2,73.7,159.7,73.5z"/>
<g transform="translate(23.2 42.4) scale(0.15)"><path d="m773.41 318.34c-0.29 0-0.69 0.03-0.89 0.06-0.21 0.03-0.54 0.11-0.74 0.16-0.2 0.06-0.51 0.17-0.71 0.25-0.19 0.09-0.49 0.24-0.66 0.34-0.18 0.11-0.45 0.29-0.61 0.41-0.16 0.11-0.45 0.37-0.64 0.57-0.2 0.2-0.47 0.52-0.61 0.71-0.14 0.2-0.45 0.73-0.68 1.18-0.24 0.45-0.66 1.29-0.93 1.87-0.28 0.58-0.66 1.42-0.86 1.87-0.19 0.44-0.51 1.18-0.7 1.64-0.18 0.46-0.47 1.18-0.62 1.59-0.16 0.41-0.42 1.14-0.59 1.62s-0.44 1.29-0.6 1.8c-0.16 0.5-0.37 1.2-0.48 1.56-0.1 0.36-0.29 1.03-0.42 1.5l-0.23 0.86-0.68 1.39c-0.38 0.77-0.84 1.75-1.02 2.17-0.18 0.43-0.46 1.13-0.63 1.57-0.17 0.43-0.43 1.17-0.59 1.64-0.15 0.47-0.38 1.19-0.49 1.59-0.12 0.4-0.28 1.03-0.38 1.39-0.09 0.37-0.23 0.98-0.31 1.36s-0.2 1-0.27 1.38-0.17 1.02-0.23 1.44c-0.06 0.41-0.14 1.11-0.19 1.56s-0.11 1.12-0.14 1.5c-0.03 0.42-0.05 1.45-0.05 2.67s0.02 2.24 0.06 2.67c0.02 0.38 0.09 1.05 0.13 1.5 0.05 0.45 0.14 1.2 0.21 1.67 0.07 0.48 0.2 1.26 0.29 1.75s0.25 1.25 0.35 1.68 0.28 1.12 0.39 1.54c0.12 0.42 0.33 1.11 0.46 1.53 0.14 0.43 0.36 1.07 0.49 1.44 0.13 0.36 0.34 0.94 0.48 1.27 0.13 0.33 0.36 0.9 0.52 1.25 0.15 0.36 0.48 1.06 0.72 1.57 0.25 0.5 0.62 1.23 0.84 1.62 0.21 0.39 0.61 1.09 0.89 1.55 0.27 0.45 0.76 1.21 1.07 1.68 0.32 0.48 0.81 1.17 1.09 1.55 0.28 0.37 0.73 0.96 1 1.29 0.26 0.33 0.62 0.76 0.78 0.95 0.17 0.2 0.3 0.36 0.29 0.37-0.01 0-0.25-0.04-0.55-0.09-0.3-0.06-0.99-0.17-1.54-0.25s-1.39-0.18-1.86-0.23c-0.47-0.04-1.19-0.1-1.61-0.13-0.41-0.03-1.48-0.05-2.37-0.05-0.9 0-1.96 0.02-2.36 0.05s-1.04 0.08-1.42 0.11c-0.38 0.04-0.98 0.1-1.33 0.15-0.36 0.04-0.99 0.14-1.42 0.2-0.42 0.07-1.01 0.18-1.31 0.24s-0.75 0.15-1 0.21c-0.26 0.05-0.76 0.18-1.13 0.27s-0.99 0.26-1.4 0.37c-0.4 0.12-1.12 0.35-1.59 0.5-0.48 0.16-1.2 0.42-1.61 0.58-0.4 0.16-1.06 0.42-1.45 0.59-0.39 0.16-1.03 0.46-1.44 0.65-0.4 0.18-1.07 0.52-1.5 0.75-0.42 0.22-1.03 0.55-1.35 0.74-0.32 0.18-0.89 0.52-1.25 0.75-0.37 0.22-0.96 0.61-1.32 0.85-0.35 0.24-0.89 0.62-1.18 0.83-0.3 0.22-0.84 0.63-1.19 0.91-0.35 0.27-0.91 0.73-1.25 1.02-0.33 0.29-0.84 0.74-1.13 1-0.29 0.27-0.83 0.79-1.21 1.17s-0.91 0.92-1.17 1.21-0.66 0.74-0.89 1-0.66 0.79-0.96 1.17c-0.31 0.38-0.79 1.01-1.09 1.42-0.29 0.4-0.84 1.19-1.22 1.77l-0.69 1.04-1.07 1.09c-0.58 0.59-1.4 1.46-1.82 1.91-0.41 0.46-1.01 1.14-1.33 1.5-0.31 0.37-0.93 1.12-1.37 1.67s-1.06 1.34-1.36 1.75c-0.31 0.42-0.78 1.05-1.04 1.42s-0.79 1.15-1.18 1.73c-0.39 0.59-0.8 1.24-0.93 1.44-0.12 0.21-0.27 0.51-0.34 0.67s-0.17 0.44-0.23 0.63c-0.06 0.18-0.14 0.5-0.18 0.71-0.06 0.27-0.08 0.56-0.08 1.1 0.01 0.59 0.02 0.81 0.1 1.15 0.05 0.23 0.15 0.59 0.22 0.79 0.07 0.21 0.22 0.56 0.34 0.78 0.11 0.23 0.31 0.55 0.43 0.73 0.13 0.17 0.33 0.43 0.44 0.56 0.12 0.14 0.37 0.37 0.55 0.53 0.19 0.15 0.45 0.36 0.59 0.45s0.42 0.25 0.63 0.35c0.2 0.11 0.54 0.25 0.74 0.32s0.56 0.18 0.79 0.23c0.37 0.08 0.54 0.09 1.34 0.09 0.51-0.01 1.25-0.03 1.65-0.06 0.4-0.02 1.06-0.07 1.46-0.11 0.4-0.03 1.17-0.11 1.71-0.16 0.54-0.06 1.44-0.18 2-0.25 0.56-0.08 1.41-0.22 1.88-0.3s1.24-0.22 1.71-0.31 1.19-0.24 1.6-0.34c0.42-0.09 1.31-0.3 1.98-0.48 0.68-0.17 1.39-0.35 1.58-0.39 0.2-0.04 0.71-0.09 1.23-0.12 0.48-0.02 1.3-0.08 1.8-0.13s1.27-0.13 1.69-0.19 1.1-0.16 1.5-0.23 1.09-0.2 1.52-0.29c0.44-0.09 1.15-0.26 1.59-0.37 0.43-0.11 1.02-0.27 1.31-0.35 0.29-0.09 0.9-0.28 1.36-0.43 0.45-0.15 1.16-0.4 1.56-0.55 0.4-0.14 1.02-0.39 1.37-0.53 0.36-0.15 0.96-0.42 1.34-0.59s0.92-0.43 1.21-0.57c0.29-0.15 0.86-0.45 1.27-0.67 0.41-0.23 1.08-0.61 1.48-0.85s1.08-0.66 1.5-0.94c0.43-0.28 1.06-0.71 1.4-0.96s0.9-0.67 1.24-0.93 0.89-0.71 1.23-1 0.88-0.76 1.2-1.05c0.32-0.3 1.03-0.98 1.56-1.53 0.54-0.55 1.22-1.27 1.52-1.61 0.29-0.33 0.73-0.85 0.97-1.14 0.24-0.3 0.71-0.9 1.04-1.33 0.32-0.44 0.74-1.01 0.92-1.28 0.19-0.27 0.51-0.75 0.72-1.08 0.22-0.33 0.52-0.82 0.68-1.08s0.47-0.81 0.7-1.21c0.22-0.4 0.6-1.11 0.83-1.58 0.23-0.46 0.56-1.16 0.74-1.54 0.17-0.38 0.49-1.14 0.7-1.68 0.22-0.54 0.46-1.19 0.55-1.45 0.09-0.25 0.17-0.47 0.19-0.47 0.01 0 0.06 0.14 0.11 0.31 0.06 0.16 0.22 0.62 0.37 1.01s0.44 1.11 0.65 1.6c0.21 0.5 0.63 1.4 0.93 2 0.3 0.61 0.72 1.42 0.93 1.8 0.22 0.38 0.51 0.89 0.66 1.14 0.15 0.26 0.46 0.75 0.69 1.11 0.23 0.35 0.62 0.93 0.86 1.27s0.66 0.92 0.93 1.27c0.27 0.36 0.68 0.89 0.93 1.19 0.24 0.29 0.67 0.81 0.97 1.14 0.29 0.34 1.06 1.15 1.72 1.81 0.65 0.65 1.44 1.41 1.75 1.68 0.31 0.28 0.78 0.68 1.04 0.9 0.27 0.22 0.74 0.6 1.05 0.84s0.87 0.66 1.24 0.93c0.38 0.27 1.01 0.7 1.4 0.96 0.39 0.25 1.04 0.66 1.44 0.9s1.01 0.59 1.36 0.78c0.34 0.19 1.05 0.56 1.58 0.82s1.26 0.6 1.63 0.76 1.02 0.43 1.46 0.61c0.44 0.17 1.21 0.45 1.73 0.63 0.51 0.18 1.35 0.44 1.85 0.58 0.51 0.15 1.23 0.35 1.61 0.44s1 0.23 1.38 0.31c0.37 0.08 1.02 0.2 1.43 0.27 0.4 0.07 1.08 0.18 1.5 0.23 0.42 0.06 1.17 0.14 1.67 0.19 0.51 0.05 1.31 0.1 1.78 0.13 0.47 0.02 0.96 0.06 1.1 0.09 0.14 0.02 0.67 0.15 1.17 0.28 0.51 0.14 1.33 0.34 1.82 0.46 0.49 0.11 1.36 0.3 1.93 0.42 0.58 0.11 1.48 0.28 2 0.38 0.53 0.08 1.42 0.22 1.99 0.3 0.56 0.08 1.46 0.2 2 0.26 0.54 0.05 1.3 0.13 1.71 0.16 0.4 0.04 1.05 0.09 1.46 0.11 0.4 0.03 1.14 0.05 1.64 0.06 0.81 0 0.97-0.01 1.34-0.09 0.23-0.05 0.57-0.14 0.75-0.21 0.18-0.06 0.52-0.2 0.75-0.31 0.23-0.12 0.53-0.29 0.67-0.38 0.13-0.09 0.4-0.3 0.58-0.45 0.19-0.16 0.43-0.39 0.55-0.53 0.12-0.13 0.32-0.39 0.44-0.56 0.13-0.18 0.32-0.51 0.44-0.73 0.12-0.23 0.28-0.61 0.36-0.85s0.18-0.61 0.22-0.83c0.05-0.28 0.07-0.6 0.07-1.08 0-0.49-0.02-0.8-0.07-1.06-0.04-0.21-0.12-0.53-0.18-0.71-0.06-0.19-0.17-0.47-0.23-0.63-0.07-0.16-0.23-0.46-0.35-0.67-0.12-0.2-0.54-0.85-0.93-1.44-0.38-0.58-0.91-1.36-1.18-1.73-0.26-0.37-0.75-1.04-1.1-1.5-0.34-0.46-0.95-1.25-1.36-1.75-0.4-0.5-0.99-1.22-1.31-1.59-0.31-0.36-0.91-1.04-1.33-1.49-0.41-0.46-1.23-1.32-1.82-1.92l-1.07-1.09-0.65-0.98c-0.35-0.54-0.85-1.26-1.09-1.6-0.25-0.35-0.64-0.87-0.87-1.17s-0.61-0.77-0.84-1.04c-0.23-0.28-0.61-0.73-0.85-1s-0.74-0.81-1.11-1.21c-0.38-0.39-1.02-1.04-1.45-1.43-0.42-0.39-0.95-0.88-1.18-1.08s-0.67-0.57-0.98-0.83c-0.31-0.25-0.95-0.75-1.42-1.1s-1.26-0.92-1.77-1.25c-0.5-0.34-1.26-0.82-1.69-1.08-0.42-0.25-1.15-0.66-1.6-0.91-0.46-0.25-1.15-0.6-1.53-0.78-0.37-0.18-0.94-0.44-1.25-0.58s-0.9-0.39-1.31-0.56c-0.41-0.16-1.09-0.42-1.5-0.57-0.42-0.15-1.06-0.37-1.44-0.49s-1.02-0.31-1.43-0.42c-0.4-0.11-1.01-0.27-1.35-0.35s-1.03-0.23-1.54-0.33c-0.5-0.11-1.28-0.25-1.73-0.31-0.44-0.07-1.13-0.17-1.52-0.21-0.39-0.05-1.05-0.12-1.46-0.15-0.42-0.03-1.29-0.08-1.94-0.11-0.65-0.02-1.6-0.03-2.1-0.02-0.51 0.02-1.25 0.04-1.65 0.07-0.4 0.02-1.11 0.08-1.58 0.12-0.47 0.05-1.25 0.14-1.73 0.21-0.49 0.07-1.18 0.18-1.55 0.25-0.36 0.07-0.67 0.12-0.68 0.11s0.11-0.16 0.25-0.33c0.15-0.16 0.51-0.59 0.79-0.95 0.29-0.35 0.75-0.95 1.03-1.32 0.27-0.37 0.76-1.06 1.08-1.54s0.81-1.25 1.09-1.7c0.27-0.46 0.64-1.1 0.82-1.42s0.54-1.04 0.81-1.59c0.28-0.55 0.61-1.26 0.75-1.58 0.15-0.32 0.42-0.98 0.61-1.46s0.44-1.15 0.55-1.48c0.12-0.33 0.29-0.84 0.38-1.13 0.09-0.28 0.23-0.74 0.31-1.02 0.08-0.27 0.22-0.75 0.3-1.06s0.22-0.89 0.31-1.29c0.09-0.41 0.23-1.08 0.31-1.51 0.08-0.42 0.21-1.16 0.27-1.64 0.07-0.48 0.16-1.15 0.19-1.48 0.04-0.34 0.1-0.96 0.13-1.4 0.04-0.44 0.08-1.49 0.09-2.34 0.02-0.97 0.01-1.9-0.02-2.52-0.03-0.54-0.09-1.37-0.13-1.85-0.05-0.49-0.12-1.17-0.17-1.53-0.05-0.35-0.14-0.99-0.21-1.41-0.07-0.43-0.2-1.14-0.29-1.58s-0.24-1.1-0.34-1.48c-0.09-0.37-0.25-0.97-0.35-1.33s-0.29-0.98-0.42-1.39-0.39-1.18-0.59-1.71c-0.19-0.53-0.52-1.35-0.72-1.83-0.21-0.49-0.69-1.51-1.06-2.28l-0.69-1.39-0.29-1.09c-0.17-0.59-0.42-1.48-0.56-1.96-0.15-0.48-0.41-1.31-0.59-1.83-0.17-0.53-0.52-1.51-0.78-2.19-0.25-0.67-0.62-1.62-0.82-2.11-0.21-0.49-0.52-1.21-0.69-1.61-0.18-0.4-0.54-1.17-0.8-1.72s-0.67-1.37-0.9-1.81c-0.23-0.45-0.54-0.97-0.67-1.16-0.14-0.2-0.42-0.52-0.61-0.72-0.2-0.2-0.49-0.46-0.64-0.57-0.16-0.12-0.44-0.3-0.61-0.41-0.18-0.1-0.48-0.25-0.67-0.34-0.19-0.08-0.51-0.19-0.71-0.25-0.19-0.05-0.54-0.13-0.77-0.16-0.23-0.04-0.65-0.06-0.94-0.06zm-549.12 29.96c-5.37 0-10.04 1.09-14.21 3.08-4.28 2.09-7.75 4.77-10.63 8.15-2.89 3.38-5.07 7.15-6.56 11.33-1.1 2.98-1.69 5.96-1.99 8.84h9.04c0.3-1.89 0.7-3.78 1.29-5.66 1-3.28 2.59-6.27 4.67-8.85 1.99-2.58 4.57-4.77 7.56-6.36 2.98-1.59 6.45-2.48 10.43-2.48 1.79 0 3.57 0.2 5.46 0.6 1.79 0.39 3.58 1.09 5.37 1.98 1.69 1 3.38 2.19 4.87 3.68 1.49 1.59 2.78 3.48 3.87 5.66l7.06-4.57c-2.19-4.57-5.57-8.24-10.04-11.13-4.57-2.78-9.94-4.27-16.19-4.27zm38.71 0.4v70.54h8.94v-70.54h-8.94zm47.79 0v30.5h-30.9v7.95h30.9v32.09h8.94v-70.54h-8.94zm47.22 0l-28.91 70.54h9.14l23.55-60.21 3.77-10.33h-7.55zm45.88 0v70.54h8.94v-25.33h8.94l-4.96-7.95h-3.98v-29.31h20.77c1.69 0 3.28 0.39 4.87 1.19 1.59 0.79 2.88 1.79 4.07 3.18s2.09 2.88 2.78 4.67c0.7 1.79 1.1 3.68 1.1 5.56 0 1.99-0.3 3.78-0.9 5.57-0.69 1.89-1.49 3.37-2.48 4.77-1.1 1.39-2.39 2.48-3.88 3.18-1.49 0.79-3.18 1.19-4.97 1.19h-7.85l5.17 7.95 16.1 25.33h10.13l-17.09-27.02c2.19-0.5 4.27-1.49 6.06-2.88 1.79-1.3 3.38-2.88 4.67-4.77 1.29-1.79 2.29-3.88 2.98-6.16 0.7-2.29 1.1-4.67 1.1-7.16 0-2.78-0.6-5.46-1.59-8.14-1.1-2.69-2.59-5.07-4.47-7.26-1.89-2.18-4.18-3.87-6.76-5.16-2.58-1.3-5.47-1.99-8.55-1.99h-30.2zm65.2 0v70.54h8.95v-54.54l15.79 28.21 4.77-8.14-20.07-36.07h-9.44zm60.61 0l-25.63 45.8-4.67 8.15 2.18 3.88h5.07l23.45-41.83v54.54h8.94v-70.54h-9.34zm26.14 0v21.86h8.94v-13.91h38.06v-7.95h-47zm60.16 0v21.86h8.94v-13.91h38.06v-7.95h-47zm108.8 2.29c-0.32 0-0.7 0.02-0.85 0.04-0.16 0.02-0.46 0.07-0.67 0.12-0.22 0.05-0.56 0.14-0.76 0.21-0.21 0.07-0.62 0.25-0.92 0.4s-0.72 0.39-0.94 0.55c-0.21 0.15-0.59 0.47-0.82 0.69-0.24 0.23-0.53 0.53-0.64 0.67s-0.29 0.4-0.41 0.57c-0.11 0.17-0.3 0.5-0.42 0.73-0.11 0.23-0.27 0.59-0.35 0.81s-0.19 0.62-0.25 0.88c-0.06 0.27-0.13 0.73-0.16 1.03-0.04 0.41-0.03 0.69 0 1.1 0.03 0.31 0.09 0.76 0.15 1.01 0.06 0.26 0.15 0.58 0.2 0.73 0.04 0.15 0.16 0.44 0.25 0.65s0.26 0.54 0.39 0.75c0.12 0.21 0.55 0.82 0.96 1.36 0.4 0.53 1.07 1.39 1.47 1.89s0.91 1.14 1.14 1.42c0.24 0.27 0.75 0.88 1.14 1.34 0.39 0.45 1.01 1.16 1.37 1.56s1.04 1.13 1.5 1.62c0.46 0.5 1.33 1.39 1.92 1.98 0.6 0.6 1.46 1.44 1.92 1.88 0.46 0.43 1.27 1.18 1.79 1.65 0.53 0.48 1.33 1.18 1.78 1.57 0.44 0.38 1.19 1 1.64 1.37 0.46 0.38 1.18 0.95 1.59 1.28 0.41 0.32 1.18 0.91 1.71 1.3 0.52 0.4 1.3 0.96 1.71 1.26 0.41 0.29 0.78 0.53 0.81 0.53 0.04-0.01 0.27-0.1 0.52-0.22s0.81-0.36 1.23-0.54c0.43-0.18 1.13-0.47 1.57-0.63 0.43-0.17 1.15-0.42 1.58-0.56 0.44-0.15 1.15-0.37 1.59-0.5 0.43-0.12 1.13-0.31 1.54-0.42 0.41-0.1 0.92-0.22 1.13-0.27s0.72-0.15 1.11-0.23c0.4-0.07 1.09-0.2 1.54-0.27 0.44-0.06 1.11-0.16 1.47-0.21 0.37-0.04 0.98-0.11 1.36-0.14 0.38-0.04 1.04-0.09 1.48-0.11 0.43-0.03 1.44-0.05 2.23-0.06 0.79 0 1.76 0.01 2.16 0.03l0.72 0.04-0.31-0.47c-0.17-0.26-0.48-0.76-0.68-1.1-0.21-0.35-0.55-0.92-0.75-1.28-0.19-0.35-0.65-1.22-1-1.93s-0.79-1.67-0.99-2.13c-0.19-0.46-0.48-1.16-0.63-1.56-0.16-0.41-0.43-1.17-0.61-1.71s-0.42-1.31-0.53-1.72c-0.12-0.4-0.32-1.14-0.44-1.65-0.13-0.51-0.32-1.36-0.42-1.89-0.11-0.54-0.25-1.33-0.32-1.75-0.06-0.42-0.17-1.17-0.22-1.67-0.06-0.49-0.12-1.05-0.14-1.24-0.01-0.19-0.04-0.36-0.07-0.38s-0.43-0.21-0.89-0.42c-0.47-0.21-1.31-0.57-1.86-0.81s-1.43-0.6-1.95-0.81c-0.51-0.21-1.33-0.53-1.81-0.71s-1.31-0.49-1.84-0.67c-0.52-0.19-1.38-0.49-1.89-0.66-0.52-0.17-1.36-0.44-1.87-0.6-0.52-0.16-1.32-0.4-1.79-0.54-0.48-0.13-1.18-0.33-1.57-0.44-0.39-0.1-1.27-0.33-1.94-0.49-0.68-0.17-1.63-0.4-2.11-0.51-0.48-0.1-1.19-0.25-1.56-0.33-0.38-0.08-1.19-0.24-1.8-0.35-0.6-0.12-1.38-0.26-1.73-0.31-0.34-0.06-1.06-0.17-1.59-0.26-0.52-0.08-1.55-0.22-2.28-0.31-1.02-0.13-1.44-0.17-1.89-0.16zm97.4 0.01c-0.51-0.01-0.92 0.01-1.23 0.05-0.25 0.03-0.89 0.12-1.42 0.19-0.52 0.07-1.5 0.21-2.16 0.31-0.67 0.11-1.72 0.28-2.34 0.4-0.62 0.11-1.41 0.26-1.75 0.33-0.35 0.07-1.17 0.25-1.84 0.39-0.66 0.15-1.7 0.39-2.31 0.54-0.61 0.16-1.61 0.42-2.23 0.59s-1.6 0.45-2.19 0.62c-0.58 0.18-1.87 0.59-2.86 0.92-0.98 0.33-2.35 0.81-3.03 1.06-0.69 0.26-1.78 0.68-2.42 0.94-0.65 0.26-1.59 0.65-2.09 0.87-0.51 0.22-1.22 0.53-1.59 0.7-0.36 0.16-0.75 0.34-0.86 0.39l-0.19 0.1-0.07 0.74c-0.04 0.41-0.12 1.1-0.17 1.52-0.06 0.42-0.16 1.11-0.23 1.52s-0.21 1.11-0.3 1.56-0.28 1.26-0.41 1.8c-0.14 0.54-0.38 1.42-0.54 1.95s-0.43 1.35-0.59 1.81c-0.16 0.47-0.45 1.23-0.64 1.7s-0.47 1.15-0.63 1.5c-0.16 0.36-0.5 1.09-0.77 1.63s-0.68 1.32-0.91 1.75c-0.24 0.42-0.6 1.05-0.81 1.4-0.21 0.34-0.52 0.84-0.68 1.1l-0.31 0.47 0.72-0.04c0.4-0.02 1.37-0.03 2.16-0.03 0.79 0.01 1.79 0.03 2.23 0.06 0.43 0.02 1.09 0.07 1.46 0.11 0.37 0.03 0.97 0.1 1.35 0.14 0.38 0.05 1 0.13 1.38 0.19s0.99 0.17 1.36 0.23c0.36 0.07 1.04 0.21 1.5 0.31 0.46 0.11 1.19 0.29 1.62 0.4 0.44 0.12 1.16 0.32 1.6 0.46s1.15 0.37 1.58 0.52 1.19 0.43 1.68 0.63 1.23 0.51 1.63 0.69 0.79 0.36 0.86 0.39l0.13 0.06 0.76-0.55c0.43-0.3 1.13-0.82 1.58-1.15s1.15-0.87 1.56-1.19c0.42-0.33 1.1-0.87 1.53-1.21 0.42-0.35 1.07-0.88 1.44-1.19 0.36-0.31 1.03-0.89 1.48-1.28 0.45-0.4 1.08-0.97 1.42-1.27 0.33-0.31 1.15-1.09 1.83-1.74s1.76-1.73 2.4-2.4c0.65-0.67 1.4-1.46 1.67-1.76s0.72-0.8 1-1.11c0.27-0.31 0.78-0.89 1.13-1.29 0.34-0.4 0.89-1.05 1.21-1.44s0.84-1.03 1.15-1.42 0.9-1.15 1.3-1.69c0.41-0.53 0.84-1.14 0.96-1.35s0.3-0.54 0.39-0.75 0.21-0.53 0.27-0.71 0.14-0.51 0.19-0.73 0.11-0.64 0.13-0.95c0.04-0.41 0.04-0.67 0.01-1.09-0.03-0.31-0.1-0.77-0.16-1.04s-0.17-0.66-0.26-0.88c-0.08-0.22-0.24-0.58-0.35-0.81-0.12-0.23-0.3-0.56-0.42-0.73-0.11-0.18-0.27-0.4-0.35-0.5-0.09-0.11-0.31-0.35-0.49-0.54-0.19-0.19-0.47-0.46-0.63-0.59s-0.45-0.34-0.65-0.48c-0.2-0.13-0.56-0.32-0.8-0.44-0.23-0.11-0.62-0.27-0.87-0.35-0.24-0.08-0.64-0.18-0.89-0.23-0.34-0.07-0.65-0.1-1.23-0.11zm-452.76 7.34l-3.88 10.53 8.94 22.75h-17.68l-2.68 6.96h22.35l8.35 20.66h9.54l-24.94-60.9zm404.2 2.76c0.14 0.01 0.34 0.03 0.46 0.04 0.11 0.01 0.35 0.06 0.53 0.11 0.18 0.04 0.5 0.15 0.7 0.24s0.53 0.27 0.73 0.4c0.21 0.13 0.52 0.4 0.71 0.58 0.18 0.19 0.43 0.48 0.55 0.65 0.11 0.17 0.26 0.42 0.33 0.56s0.18 0.38 0.23 0.54c0.06 0.17 0.14 0.46 0.18 0.65 0.06 0.25 0.08 0.53 0.08 0.94-0.01 0.43-0.03 0.68-0.09 0.96-0.05 0.21-0.15 0.53-0.22 0.72-0.07 0.18-0.23 0.5-0.35 0.69-0.12 0.2-0.33 0.5-0.47 0.67s-0.41 0.42-0.59 0.57c-0.19 0.15-0.48 0.35-0.65 0.45s-0.5 0.25-0.73 0.33l-0.42 0.15v5.44 5.45l0.39 0.12c0.21 0.06 0.52 0.18 0.68 0.26 0.17 0.08 0.48 0.26 0.69 0.4s0.55 0.42 0.74 0.61c0.2 0.2 0.48 0.55 0.64 0.79 0.16 0.23 0.36 0.6 0.45 0.8 0.09 0.21 0.21 0.55 0.26 0.77 0.06 0.21 0.13 0.58 0.15 0.82 0.03 0.24 0.04 0.59 0.02 0.79-0.01 0.19-0.06 0.54-0.11 0.78s-0.07 0.45-0.05 0.47c0.02 0.01 2.15 1.24 4.72 2.73l4.68 2.7 0.22-0.21c0.12-0.11 0.34-0.28 0.48-0.38s0.4-0.25 0.58-0.33c0.18-0.09 0.45-0.2 0.6-0.25 0.14-0.05 0.36-0.11 0.47-0.13 0.11-0.03 0.37-0.07 0.59-0.09 0.25-0.02 0.54-0.02 0.81 0 0.24 0.02 0.58 0.08 0.77 0.13s0.5 0.16 0.7 0.25c0.2 0.08 0.53 0.26 0.73 0.4 0.2 0.13 0.52 0.39 0.7 0.58 0.19 0.18 0.45 0.5 0.58 0.7 0.14 0.2 0.32 0.53 0.41 0.74 0.08 0.2 0.19 0.51 0.24 0.7 0.05 0.18 0.1 0.52 0.13 0.75 0.03 0.29 0.03 0.55 0 0.84-0.03 0.23-0.08 0.57-0.13 0.74-0.04 0.18-0.13 0.46-0.2 0.62-0.07 0.17-0.2 0.43-0.29 0.59-0.1 0.16-0.25 0.39-0.35 0.52-0.09 0.12-0.3 0.34-0.46 0.5-0.16 0.15-0.41 0.36-0.57 0.46-0.16 0.11-0.43 0.27-0.61 0.36s-0.48 0.21-0.67 0.27c-0.18 0.06-0.49 0.13-0.68 0.15-0.22 0.04-0.57 0.05-0.94 0.03-0.45-0.02-0.68-0.05-0.98-0.13-0.22-0.06-0.61-0.21-0.86-0.34-0.25-0.12-0.58-0.32-0.73-0.43s-0.41-0.36-0.59-0.54c-0.17-0.18-0.39-0.44-0.49-0.59-0.1-0.14-0.26-0.44-0.36-0.65-0.11-0.22-0.24-0.57-0.3-0.8-0.08-0.33-0.11-0.53-0.12-1.05-0.02-0.52 0-0.72 0.06-1.02l0.08-0.36-0.38-0.22c-0.21-0.13-1.36-0.79-2.57-1.49-1.2-0.7-3.15-1.82-4.33-2.5l-2.14-1.24-0.37 0.32c-0.2 0.17-0.53 0.41-0.72 0.53-0.19 0.13-0.53 0.3-0.74 0.39-0.22 0.08-0.56 0.2-0.75 0.24-0.19 0.05-0.55 0.11-0.8 0.13-0.32 0.04-0.58 0.04-0.89 0-0.25-0.02-0.57-0.07-0.72-0.1-0.15-0.04-0.39-0.11-0.52-0.15-0.14-0.05-0.42-0.17-0.63-0.27-0.2-0.1-0.48-0.26-0.62-0.36-0.14-0.09-0.39-0.3-0.57-0.45l-0.32-0.28-4.5 2.6c-2.47 1.43-4.6 2.66-4.71 2.72l-0.21 0.12 0.07 0.37c0.07 0.3 0.08 0.5 0.06 1.02-0.01 0.52-0.03 0.72-0.12 1.05-0.06 0.22-0.18 0.56-0.27 0.76-0.09 0.19-0.25 0.48-0.36 0.64-0.1 0.16-0.33 0.45-0.51 0.64-0.18 0.18-0.45 0.43-0.6 0.54s-0.48 0.31-0.73 0.43c-0.25 0.13-0.64 0.28-0.85 0.34-0.31 0.08-0.54 0.11-0.99 0.13-0.37 0.02-0.72 0-0.94-0.03-0.19-0.02-0.49-0.09-0.68-0.15-0.18-0.06-0.48-0.18-0.65-0.27-0.17-0.08-0.39-0.2-0.48-0.26-0.09-0.05-0.31-0.22-0.48-0.35-0.17-0.14-0.42-0.39-0.56-0.55-0.14-0.17-0.33-0.43-0.43-0.6-0.1-0.16-0.25-0.45-0.33-0.63-0.07-0.17-0.17-0.47-0.22-0.65-0.04-0.18-0.1-0.51-0.13-0.75-0.03-0.3-0.03-0.53 0-0.84 0.03-0.23 0.09-0.57 0.13-0.75 0.05-0.19 0.16-0.5 0.25-0.7 0.09-0.21 0.27-0.54 0.4-0.74 0.14-0.2 0.4-0.52 0.58-0.7 0.19-0.19 0.5-0.45 0.71-0.58 0.2-0.14 0.53-0.32 0.73-0.41 0.2-0.08 0.52-0.2 0.71-0.24 0.18-0.05 0.52-0.11 0.75-0.13 0.28-0.02 0.56-0.02 0.84 0 0.22 0.03 0.55 0.08 0.72 0.13 0.17 0.04 0.44 0.13 0.6 0.19 0.15 0.06 0.41 0.19 0.57 0.28s0.37 0.22 0.46 0.29 0.26 0.21 0.36 0.31l0.2 0.19 2.66-1.53c1.46-0.85 3.58-2.07 4.71-2.72 1.41-0.82 2.06-1.21 2.06-1.26 0-0.04-0.03-0.17-0.07-0.3-0.03-0.13-0.08-0.44-0.1-0.7-0.04-0.35-0.04-0.59 0-0.93 0.02-0.25 0.09-0.63 0.14-0.84 0.06-0.21 0.18-0.56 0.27-0.77s0.29-0.58 0.45-0.81c0.16-0.24 0.44-0.59 0.64-0.79 0.2-0.19 0.5-0.45 0.68-0.57 0.17-0.12 0.48-0.3 0.69-0.4 0.2-0.1 0.54-0.24 0.75-0.3l0.38-0.12v-10.9l-0.28-0.1c-0.15-0.05-0.41-0.15-0.57-0.23-0.16-0.07-0.41-0.21-0.54-0.3-0.14-0.09-0.38-0.26-0.53-0.39s-0.38-0.36-0.51-0.53c-0.13-0.16-0.33-0.44-0.45-0.63-0.11-0.19-0.26-0.49-0.33-0.68-0.07-0.18-0.17-0.51-0.22-0.71-0.06-0.28-0.08-0.53-0.08-0.97-0.01-0.41 0.02-0.68 0.07-0.93 0.04-0.2 0.12-0.49 0.18-0.65s0.16-0.4 0.23-0.54 0.22-0.39 0.34-0.56c0.11-0.18 0.36-0.47 0.54-0.65 0.19-0.19 0.51-0.45 0.71-0.58 0.2-0.14 0.53-0.32 0.73-0.41 0.21-0.08 0.53-0.19 0.71-0.24 0.19-0.05 0.52-0.1 0.73-0.12s0.49-0.03 0.63-0.02zm-217.8 18.4v22.85h8.94v-15.4h33.09v-7.45h-42.03zm60.16 0v22.85h8.94v-15.4h33.09v-7.45h-42.03zm-425.1 8.54c0.4 2.99 1.09 5.87 2.19 8.75 1.59 4.37 3.87 8.25 6.85 11.62 2.98 3.38 6.46 6.16 10.53 8.25 3.98 2.19 8.45 3.18 13.32 3.18 2.68 0 5.46-0.3 8.34-1.09 2.79-0.7 5.47-1.69 8.05-3.18 2.58-1.29 4.87-3.08 6.86-5.07s3.58-4.37 4.77-7.05l-7.45-4.08c-1 2.19-2.29 4.08-3.88 5.67-1.59 1.58-3.28 2.88-4.97 3.87-1.89 0.99-3.67 1.79-5.66 2.19-1.99 0.49-3.88 0.69-5.66 0.69-3.58 0-6.76-0.69-9.74-2.28-2.98-1.49-5.56-3.58-7.75-6.16-2.29-2.59-3.98-5.47-5.17-8.85-0.79-2.08-1.29-4.17-1.59-6.46h-9.04zm582.55 11.19c-0.01 0-0.09 0.14-0.18 0.32s-0.35 0.67-0.58 1.1c-0.23 0.42-0.63 1.11-0.88 1.54-0.25 0.42-0.75 1.21-1.11 1.75s-0.94 1.36-1.28 1.81c-0.34 0.46-0.85 1.11-1.12 1.44-0.27 0.34-0.72 0.87-1.01 1.2-0.28 0.33-0.81 0.91-1.17 1.3-0.37 0.38-1 1.01-1.41 1.41-0.41 0.39-0.95 0.89-1.2 1.11-0.25 0.23-0.72 0.63-1.04 0.9s-0.87 0.71-1.21 0.98c-0.34 0.26-0.93 0.7-1.3 0.97-0.54 0.38-0.69 0.5-0.69 0.58 0 0.05 0.04 0.47 0.09 0.94s0.13 1.26 0.19 1.77c0.06 0.5 0.2 1.63 0.33 2.5 0.12 0.87 0.32 2.12 0.43 2.77 0.12 0.66 0.31 1.66 0.42 2.23 0.11 0.58 0.33 1.6 0.48 2.29 0.15 0.68 0.42 1.78 0.58 2.46 0.17 0.67 0.44 1.67 0.59 2.22s0.42 1.47 0.59 2.04 0.56 1.79 0.87 2.71c0.3 0.92 0.73 2.14 0.94 2.71s0.58 1.53 0.81 2.13c0.24 0.59 0.6 1.5 0.81 2 0.22 0.5 0.47 1.08 0.57 1.28 0.11 0.2 0.27 0.5 0.37 0.65s0.29 0.43 0.44 0.6c0.14 0.18 0.37 0.45 0.51 0.59 0.15 0.15 0.39 0.36 0.53 0.49 0.15 0.12 0.44 0.33 0.65 0.47 0.21 0.13 0.52 0.32 0.71 0.41 0.18 0.09 0.49 0.23 0.7 0.31 0.2 0.08 0.55 0.19 0.77 0.24 0.23 0.06 0.55 0.13 0.72 0.16 0.18 0.03 0.63 0.05 1.08 0.05 0.46 0 0.9-0.02 1.09-0.05 0.17-0.03 0.5-0.1 0.73-0.16 0.22-0.06 0.57-0.17 0.77-0.24 0.19-0.08 0.5-0.22 0.69-0.31 0.18-0.09 0.5-0.28 0.71-0.41 0.2-0.14 0.49-0.35 0.64-0.47 0.15-0.13 0.4-0.36 0.55-0.52 0.16-0.15 0.41-0.44 0.55-0.62 0.15-0.19 0.34-0.47 0.44-0.62 0.09-0.16 0.25-0.44 0.34-0.62s0.38-0.84 0.64-1.47c0.26-0.62 0.64-1.56 0.84-2.07 0.2-0.52 0.52-1.37 0.72-1.9 0.19-0.53 0.59-1.68 0.88-2.57 0.3-0.88 0.69-2.1 0.87-2.71 0.19-0.6 0.46-1.54 0.61-2.08s0.39-1.46 0.54-2.05c0.15-0.58 0.36-1.47 0.48-1.98 0.11-0.5 0.29-1.31 0.4-1.79 0.1-0.48 0.27-1.33 0.37-1.89 0.11-0.55 0.28-1.5 0.38-2.1s0.26-1.63 0.35-2.28c0.1-0.66 0.22-1.59 0.28-2.07 0.05-0.48 0.15-1.34 0.21-1.91 0.05-0.56 0.1-1.07 0.1-1.13 0-0.08-0.12-0.19-0.7-0.6-0.38-0.27-0.97-0.71-1.3-0.97s-0.87-0.69-1.2-0.96c-0.33-0.28-0.89-0.77-1.25-1.09-0.36-0.33-0.96-0.89-1.34-1.26s-0.96-0.97-1.3-1.34c-0.34-0.36-0.78-0.85-0.98-1.08s-0.61-0.72-0.91-1.08c-0.3-0.37-0.82-1.05-1.17-1.51-0.34-0.45-0.91-1.27-1.27-1.81s-0.86-1.33-1.12-1.75c-0.25-0.43-0.64-1.1-0.86-1.5-0.21-0.4-0.47-0.9-0.57-1.1s-0.19-0.36-0.21-0.36zm-217.61 12.06v7.95h47.89v-7.95h-47.89zm60.16 0v7.95h47.89v-7.95h-47.89z" fill="#ffffff"/></g></svg>
