<?xml version="1.0" encoding="utf-8"?>
<!-- Generator: Adobe Illustrator 21.1.0, SVG Export Plug-In . SVG Version: 6.00 Build 0)  -->
<svg xmlns="http://www.w3.org/2000/svg" xmlns:xlink="http://www.w3.org/1999/xlink" version="1.1" id="Layer_1" x="0px" y="0px" viewBox="0 0 200 200" enable-background="new 0 0 200 200" xml:space="preserve">
<path fill="#fccdb9" d="M84,20.1c0.3,0,2.2,1.1,4,2.4l3.4,2.4l3.4-3.5l3.4-3.5l-4-2.8c-2.2-1.5-4.1-2.8-4.2-2.7  c-0.1,0-1.6,1.6-3.5,3.6C83.2,19.6,82.9,20.1,84,20.1z M108.6,24.8l3.4-2.4c1.9-1.3,3.7-2.4,4.1-2.4c0.3,0,0.6-0.1,0.6-0.3  c0-0.3-6.4-7.1-6.9-7.4c-0.1,0-2,1.2-4.2,2.7l-3.9,2.8l3.4,3.5L108.6,24.8z M77.5,24.7c1.2-2.1,2.2-3.9,2.4-4.1  c0.1-0.2-1.7-1-3.9-1.9c-2.2-0.9-4.3-1.7-4.6-1.8c-0.3-0.1-1.2,0.9-1.9,2.4s-1.9,3.4-2.5,4.3l-1.1,1.7l3.8,1.4  C75.5,28.8,75,29,77.5,24.7z M130.5,26.6l3.8-1.4l-1.1-1.7c-0.6-0.9-1.8-2.9-2.5-4.3c-0.7-1.4-1.5-2.5-1.7-2.5  c-0.2,0-2.1,0.8-4.2,1.7c-2.2,0.9-4.1,1.7-4.3,1.8c-0.2,0.1,0.6,2,2,4.2C125.1,29,124.5,28.8,130.5,26.6z M93.6,26.2  c0,0.3,1.4,1.9,3.2,3.5l3.2,3l3.2-3c1.8-1.6,3.2-3.2,3.2-3.5c0-0.5-5.8-6.6-6.4-6.6c-0.3,0-1.8,1.4-3.4,3  C95,24.3,93.6,25.9,93.6,26.2z M77,29.9l3,1.5c1.7,0.8,3.6,2,4.2,2.5c1,1,1,1,1.4-0.2c0.2-0.6,1.3-2.4,2.5-3.9  c1.2-1.5,2.2-2.9,2.2-3c0-0.4-7.4-5.2-8-5.2c-0.2,0-1.1,1.2-2,2.6c-0.9,1.4-2,3.3-2.5,4.2L77,29.9z M109.8,26.8c0,0.1,1,1.5,2.2,3  c1.2,1.6,2.3,3.3,2.5,3.9c0.3,1.2,0.3,1.2,1.4,0.2c0.6-0.5,2.5-1.7,4.2-2.5l3-1.5l-0.8-1.6c-1.4-2.7-4.1-6.7-4.5-6.7  c-0.3,0-2.1,1.1-4.2,2.5C111.5,25.3,109.8,26.5,109.8,26.8z M59,35.9c0.5,0.2,1.1-0.9,2.1-4c0.8-2.4,1.4-4.5,1.4-4.8  c0-0.3-1.7-0.7-3.7-1.1c-6.2-1-5.6-1.2-7.3,3.9l-1.4,4.6l4.1,0.6C56.5,35.5,58.7,35.8,59,35.9z M141,35.9c0.3-0.1,2.5-0.5,4.8-0.8  l4.1-0.6l-1.4-4.6c-1.6-5.1-1.1-4.8-7.5-3.8c-1.9,0.3-3.4,0.7-3.4,1c0.1,0.2,0.6,2.4,1.4,4.8C139.9,35,140.5,36.1,141,35.9z   M62.4,36.4c0.1,0.4,1.2,0.9,2.4,1.1c1.2,0.2,3,0.7,4.2,1.2c2,0.9,2.1,0.9,2.1,0.1c0-0.5,0.7-2.4,1.5-4.2c1.2-2.5,1.4-3.4,0.9-4  c-0.5-0.6-7.4-3.2-8.4-3.2c-0.2,0-0.9,1.9-1.7,4.1C62.7,33.8,62.2,36,62.4,36.4z M127.4,34.6c0.8,1.8,1.5,3.7,1.5,4.2  c0,0.8,0.1,0.8,2.1-0.1c1.1-0.5,3-1,4.2-1.2c1.2-0.2,2.2-0.7,2.4-1.1c0.4-1-2.2-9-2.9-8.9c-0.4,0-2.1,0.6-4,1.3  C125.6,30.5,125.5,30.6,127.4,34.6z M37.9,47.4c0.6-0.1,2.7-0.4,4.8-0.6l3.7-0.3l0.3-3.8c0.2-2.1,0.5-4.2,0.6-4.8  c0.2-0.9,0.1-1.1-0.9-1c-0.6,0.1-2.7,0.2-4.7,0.2c-2,0.1-3.7,0.4-4,0.8c-0.2,0.3-0.6,2.7-0.7,5.1C36.8,47.6,36.8,47.6,37.9,47.4z   M53.2,47c2,0,3.9,0.1,4.4,0.3c0.6,0.2,0.8,0,0.7-0.8c-0.1-0.6,0.2-2.7,0.6-4.6c0.7-4,0.7-4-3.9-4.5c-1.8-0.2-3.6-0.4-4.1-0.5  c-0.5-0.1-1,0.1-1.1,0.4c-0.6,1.6-1.1,8-0.6,8.8C49.5,46.9,50.2,47,53.2,47z M148.8,37c-0.2,0.1-1.9,0.3-3.7,0.5  c-4.7,0.4-4.7,0.5-3.9,4.5c0.4,1.9,0.6,3.8,0.6,4.4c-0.1,0.9,0.2,1,4.2,0.8c5-0.2,5.5-0.5,5.1-3.9C150.5,37.5,150.1,36.5,148.8,37z   M153.3,42.7l0.3,3.8l3.7,0.3c2.1,0.1,4.2,0.4,4.8,0.6c1.1,0.2,1.1,0.2,0.8-4.4c-0.1-2.5-0.5-4.8-0.8-5.1s-2.6-0.7-5.1-0.8  c-4.6-0.3-4.6-0.3-4.3,0.8C152.7,38.5,153,40.6,153.3,42.7z M37.5,54.9c0.4,4.7,0.5,4.7,4.5,3.9c1.9-0.4,3.8-0.6,4.4-0.6  c0.9,0.1,1-0.2,0.8-4.2c-0.1-3.2-0.4-4.4-1-4.9c-0.4-0.3-0.9-0.5-1-0.5c-0.1,0.1-1.8,0.3-3.7,0.5c-4.4,0.5-4.8,0.7-4.5,1.8  C37.1,51.3,37.3,53.1,37.5,54.9z M161.8,58.8c0.3-0.5,0.8-3.8,1.1-8c0.1-0.8-0.4-1-1.9-1.3c-4.3-0.7-6.6-0.8-7.3-0.3  c-0.4,0.3-0.7,1.9-0.9,4.8c-0.2,4.1-0.1,4.3,0.8,4.2c0.6-0.1,2.5,0.2,4.4,0.6C160.8,59.4,161.5,59.3,161.8,58.8z M29.1,62  c1-0.4,2.9-1.1,4.4-1.4c2.1-0.5,2.5-0.8,2.4-1.6c-0.1-0.5-0.4-2.7-0.7-4.9l-0.5-4l-4.3,1.3c-2.4,0.8-4.5,1.5-4.6,1.6  c-0.4,0.4,0.9,9.7,1.3,9.7C27.1,62.7,28.1,62.4,29.1,62z M164.4,60c0.3,0.1,2.2,0.7,4.3,1.3c2,0.6,3.9,1.2,4.2,1.3  c0.4,0.1,1.7-6.7,1.7-9.1c0-0.4-1.4-1-7.9-3l-1.3-0.4l-0.4,3.5c-0.2,1.9-0.5,4.1-0.8,4.8C163.9,59.4,164,59.9,164.4,60z M31.2,63.5  c-1.9,0.7-3.5,1.3-3.6,1.4c-0.3,0.4,2.4,8,3.1,8.6c0.6,0.5,1.4,0.3,4-0.9c1.8-0.8,3.7-1.5,4.2-1.5c0.8,0,0.9-0.1,0.3-1.1  c-0.3-0.6-0.9-2.5-1.4-4.3C36.8,61.8,36.3,61.7,31.2,63.5z M162.2,65.9c-0.3,1.3-0.8,3-1.3,3.8c-0.7,1.3-0.6,1.4,0.2,1.4  c0.5,0,2.4,0.7,4.2,1.5c2.5,1.2,3.4,1.4,4,0.9c0.7-0.6,3.4-8.2,3.1-8.6c-0.4-0.4-7.4-2.7-8.3-2.7c-0.4,0-1,0.3-1.1,0.6  C162.9,63.2,162.5,64.5,162.2,65.9z M20.6,79.8c2.1-0.9,7.8-4.7,7.9-5.2c0-0.3-0.2-1-0.5-1.5c-0.3-0.4-1-2.3-1.6-4.2l-1.1-3.3  l-1.8,1.1c-0.9,0.6-2.9,1.8-4.3,2.5c-1.4,0.8-2.5,1.6-2.4,1.9c0.1,0.3,0.9,2.4,1.8,4.6C19.5,78.1,20.4,79.9,20.6,79.8z M171.7,73.8  c-0.6,1-0.4,1.1,3.4,3.4c2.2,1.3,4.2,2.5,4.4,2.5c0.3,0.1,4-8.8,3.7-9c-0.1-0.1-1.4-0.9-3-1.8c-1.6-0.9-3.5-2.1-4.2-2.5l-1.2-0.8  l-1.1,3.6C172.9,71.2,172.1,73.2,171.7,73.8z M29.8,88.1c1.5-1.2,3.3-2.4,3.9-2.5c1.2-0.3,1.2-0.3,0.2-1.4c-0.5-0.6-1.7-2.5-2.5-4.2  c-0.8-1.7-1.6-3-1.7-3c0,0-1.3,0.7-2.8,1.4c-1.5,0.8-3.3,2-4.1,2.7l-1.5,1.1l2.4,3.7c1.3,2.1,2.5,3.9,2.8,4  C26.8,90.2,28.2,89.3,29.8,88.1z M170.2,88c1.6,1.2,3,2.1,3.3,1.9c0.3-0.1,1.5-2,2.8-4l2.4-3.7l-1.5-1.1c-0.8-0.6-2.7-1.9-4.2-2.7  l-2.8-1.5l-1.6,3.1c-0.8,1.7-2,3.6-2.5,4.2c-1,1-1,1,0.2,1.4C166.9,85.7,168.7,86.8,170.2,88z M17.9,98.3l3.5-3.4l3.5-3.4L22.5,88  c-1.3-1.9-2.4-3.7-2.4-4.1c0.1-1-0.6-0.6-4.2,2.9l-3.6,3.4l2.8,4.1L17.9,98.3z M179.9,83.9c-0.1,0.3-1.1,2.2-2.4,4.1l-2.4,3.4  l3.5,3.4l3.5,3.4l2.8-4.1l2.8-4l-3.5-3.3C180.5,83.3,179.9,82.9,179.9,83.9z M19.6,99.9c0,0.6,6,6.4,6.6,6.4c0.3,0,1.9-1.4,3.5-3.2  l3-3.2l-3-3.2c-1.6-1.8-3.2-3.2-3.4-3.2c-0.3,0-1.9,1.4-3.6,3C21,98.2,19.6,99.7,19.6,99.9z M180.4,100c0-0.6-6-6.3-6.6-6.3  c-0.3,0-1.9,1.4-3.5,3.2l-2.9,3.2l3,3.2c1.6,1.8,3.2,3.2,3.5,3.2C174.4,106.4,180.4,100.6,180.4,100z M20.1,116.2  c0-0.3,1.1-2.2,2.4-4.1l2.4-3.5l-3.5-3.4l-3.5-3.4l-2.8,4.1l-2.8,4l3.5,3.3C19.5,116.6,20.1,117.1,20.1,116.2z M185,105.8l-2.8-4.1  l-3.5,3.4l-3.5,3.4l2.4,3.4c1.3,1.9,2.4,3.7,2.4,4.1c0,1,0.6,0.6,4.4-2.9l3.5-3.3L185,105.8z M21.6,117.7c0,0.4,3.6,2.9,6.2,4.3  l2.1,1l1.5-3c0.8-1.7,2-3.6,2.5-4.2c1-1,1-1-0.2-1.4c-0.6-0.2-2.4-1.3-3.9-2.5c-1.5-1.2-2.9-2.2-3-2.2c-0.2,0-1.4,1.7-2.7,3.8  C22.7,115.7,21.6,117.5,21.6,117.7z M168.6,120l1.6,3.1l2.8-1.5c1.5-0.8,3.4-2,4.3-2.7l1.4-1.2l-2.4-3.8c-1.4-2.1-2.7-3.9-2.9-4  c-0.3-0.1-1.6,0.8-3,1.9c-1.3,1.1-3.1,2.2-3.8,2.5c-1.4,0.5-1.4,0.5-0.4,1.6C166.6,116.4,167.7,118.2,168.6,120z M28,126.7  c1.2-0.7,0.1-2.1-3.4-4.1c-2.1-1.2-3.9-2.2-4.1-2.4c-0.2-0.1-1.1,1.9-2.1,4.4c-1,2.5-1.7,4.6-1.6,4.7c0.1,0.1,1.4,0.9,3,1.8  c1.6,0.9,3.5,2.1,4.2,2.5l1.2,0.8l1.2-3.7C27.1,128.6,27.9,126.8,28,126.7z M179.5,120.1c-0.2,0-2.1,1.1-4.1,2.3  c-3.5,2.1-4.6,3.5-3.4,4.2c0.2,0.1,0.9,1.9,1.6,3.9l1.2,3.7l1.2-0.8c0.7-0.4,2.6-1.6,4.2-2.5c1.6-0.9,3-1.7,3-1.8  C183.4,129,179.8,120.1,179.5,120.1z M38.7,131c0.9-2,0.9-2.1-0.1-2.1c-0.5,0-2-0.5-3.3-1.2c-3.3-1.7-4.2-1.9-4.9-1.2  c-0.5,0.7-3,7.4-3,8.2c0,0.6,8.1,3.1,9,2.7c0.4-0.1,0.9-1.2,1.1-2.4C37.7,134,38.3,132.2,38.7,131z M172.6,134.8  c0-0.8-2.5-7.6-3-8.2c-0.7-0.9-0.7-0.9-4.3,0.8c-1.7,0.8-3.5,1.5-4,1.5c-0.9,0-0.9,0.1,0,2.1c0.5,1.2,1,3,1.2,4.2  c0.2,1.2,0.7,2.2,1.1,2.4C164.5,137.9,172.6,135.4,172.6,134.8z M33.5,139.4c-1.4-0.3-3.4-1-4.4-1.4c-1-0.4-2-0.7-2.1-0.7  c-0.2,0-0.7,2.1-1,4.7c-0.3,2.6-0.5,4.8-0.3,5c0.1,0.1,2.2,0.8,4.6,1.6l4.3,1.3l0.5-4c0.3-2.2,0.6-4.4,0.7-4.9  C36,140.2,35.6,140,33.5,139.4z M172.9,137.3c-0.3,0-1.3,0.3-2.2,0.7c-0.9,0.4-2.7,1-4.2,1.4c-2,0.5-2.5,0.8-2.3,1.6  c0.1,0.5,0.4,2.7,0.7,4.9l0.5,4l4.3-1.3c2.4-0.8,4.5-1.5,4.6-1.6C174.8,146.4,173.4,137.2,172.9,137.3z M46,141.7  c-0.9,0-2.6-0.2-3.8-0.5c-3.3-0.7-3.9-0.7-4.2,0.5c-0.5,2.3-1.1,8-0.8,8.3c0.5,0.6,8.1,1.3,9,0.8c0.7-0.3,0.8-1.1,0.8-4.1  c0-2,0.1-3.9,0.3-4.3C47.6,142,47.2,141.7,46,141.7z M152.9,147.1c0,2.7,0.1,3.4,0.9,3.7c0.9,0.5,8.4-0.2,9-0.8  c0.3-0.3-0.2-6-0.8-8.3c-0.3-1.2-1.2-1.3-4.2-0.5c-0.9,0.2-2.5,0.4-3.6,0.5c-1.7,0.1-1.9,0.2-1.6,1.1  C152.8,143.4,152.9,145.3,152.9,147.1z M46.8,157.3l-0.3-3.8l-3.7-0.3c-2.1-0.1-4.2-0.4-4.8-0.6c-1.1-0.3-1.1-0.2-0.8,4.3  c0.1,2.5,0.5,4.8,0.8,5.1s2.6,0.7,5.1,0.8c4.6,0.3,4.6,0.3,4.3-0.8C47.3,161.5,47,159.3,46.8,157.3z M50.8,163  c0.5-0.1,2.3-0.3,4.1-0.5c4.7-0.4,4.7-0.5,3.9-4.5c-0.4-1.9-0.6-3.9-0.6-4.5c0-0.6-0.1-1-0.5-1c-0.3,0-2.3,0.2-4.3,0.2  c-4.7,0.2-4.8,0.5-4.3,5.5C49.6,162.8,49.8,163.4,50.8,163z M145.9,152.8c-4.1-0.2-4.2-0.1-4.2,0.8c0.1,0.6-0.2,2.5-0.6,4.4  c-0.5,2.8-0.5,3.4,0.1,3.8s3.8,0.8,8,1.1c1,0.1,1.3-1,1.9-6.2C151.4,153.4,151,153.1,145.9,152.8z M162.6,152.5  c-0.4,0.1-2.5,0.3-4.8,0.6l-4.2,0.4l-0.3,3.8c-0.2,2.1-0.5,4.2-0.6,4.8c-0.3,1.1-0.2,1.1,4.3,0.8c2.5-0.1,4.8-0.5,5.1-0.8  C162.9,161.3,163.4,152.4,162.6,152.5z M72.8,165.8c-0.7-1.6-1.5-3.4-1.7-4.2c-0.3-1.3-0.3-1.3-1.5-0.7c-0.7,0.4-2.5,1-4.1,1.3  c-1.7,0.3-3,0.9-3.1,1.3c-0.3,0.8,2.2,8.9,2.7,8.9c1,0,7.9-2.6,8.4-3.2C74,168.8,73.8,168,72.8,165.8z M137.6,163.6  c-0.1-0.4-1.2-0.9-2.4-1.1c-1.2-0.2-3-0.7-4.2-1.2c-2.1-0.9-2.1-0.9-2.1-0.1c0,0.5-0.7,2.4-1.5,4.2c-1.2,2.5-1.4,3.4-0.9,4  s7.4,3.2,8.4,3.2C135.4,172.5,138,164.4,137.6,163.6z M58.3,164.2c-0.7,0.2-2.8,0.5-4.7,0.7l-3.4,0.3l1.4,4.4  c0.7,2.4,1.5,4.5,1.6,4.7c0.3,0.3,9.1-0.9,9.3-1.3c0.1-0.2-2.1-7.5-2.7-8.9C59.6,164,59,164,58.3,164.2z M141.7,164.2  c-1.3-0.4-1.4-0.3-2.8,4.1c-0.8,2.5-1.4,4.6-1.3,4.8c0.2,0.4,9,1.6,9.3,1.3c0.1-0.1,0.9-2.2,1.6-4.7l1.4-4.4l-3.4-0.3  C144.5,164.7,142.3,164.4,141.7,164.2z M90,173.5c0.1-0.2-0.5-1.5-1.5-2.7c-1-1.2-2.2-3-2.7-3.9c-0.8-1.6-0.9-1.7-1.5-0.9  c-0.4,0.4-2.2,1.6-4,2.5l-3.4,1.7l1.6,2.9c0.9,1.6,2.1,3.5,2.7,4.2l1,1.3l3.7-2.4C88,174.9,89.8,173.7,90,173.5z M123.1,170.1  l-3.1-1.6c-1.7-0.8-3.6-2-4.2-2.5c-1.1-1-1.1-1-1.4,0.2c-0.2,0.6-1.4,2.4-2.5,4c-1.2,1.5-2.1,3-1.9,3.2c0.1,0.3,2,1.5,4,2.8l3.7,2.4  l1-1.3c0.6-0.7,1.8-2.6,2.7-4.2L123.1,170.1z M106.3,173.8c0-0.4-6.6-7-6.6-6.6c0,0-1.3,1.4-3.1,3c-1.7,1.7-3,3.2-3,3.5  c0,0.6,5.8,6.6,6.4,6.6C100.5,180.4,106.3,174.3,106.3,173.8z M74.6,171.6c-0.4,0-1.3,0.3-2,0.6c-0.7,0.4-2.5,1.1-4,1.6l-2.8,0.9  l0.8,1.2c0.4,0.7,1.6,2.6,2.5,4.2c0.9,1.6,1.7,3,1.8,3c0.1,0.1,8.7-3.2,9-3.5C80.2,179.3,75.2,171.6,74.6,171.6z M122.5,175.3  c-1.2,2.1-2.2,3.9-2.4,4.1c-0.1,0.2,1.7,1,3.9,1.9c2.2,0.9,4.3,1.7,4.6,1.8c0.3,0.1,1.1-0.9,1.9-2.4c0.8-1.4,1.9-3.4,2.5-4.3  l1.1-1.7l-3.8-1.4C124.5,171.2,125,171,122.5,175.3z M91.4,175.2l-3.4,2.3c-1.9,1.3-3.7,2.4-4.1,2.4c-1,0-0.6,0.6,2.9,4.4l3.3,3.5  l4.1-2.8l4.1-2.8l-3.5-3.5L91.4,175.2z M116.1,179.9c-0.3,0-2.2-1.1-4.1-2.4l-3.5-2.4l-6.9,6.9l4.1,2.8l4.1,2.8l3.3-3.5  C116.7,180.5,117.1,179.9,116.1,179.9z"/>
<g transform="translate(23.2 42.4) scale(0.15)">
 
 <g id="logo-group" transform="translate(-2.6046 .070665) scale(1)">
  <path id="path120569" style="font-variant-ligatures:none" d="m203.84 373.96c0.99361-3.2789 2.5834-6.2597 4.6699-8.843 1.9872-2.5834 4.5706-4.7693 7.5514-6.359 2.9808-1.5898 6.4584-2.484 10.433-2.484 1.7885 0 3.577 0.19872 5.4648 0.59616 1.7885 0.39744 3.577 1.093 5.3654 1.9872 1.6891 0.9936 3.3782 2.1859 4.8686 3.6763 1.4904 1.5898 2.7821 3.4776 3.875 5.6635l7.0546-4.5706c-2.1859-4.5706-5.5642-8.2469-10.035-11.128-4.5706-2.7821-9.936-4.2725-16.196-4.2725-5.3654 0-10.035 1.093-14.208 3.0802-4.2725 2.0866-7.7501 4.7693-10.632 8.1475-2.8814 3.3782-5.0674 7.1539-6.5578 11.327-1.093 2.9808-1.6891 5.9616-1.9872 8.843h9.0418c0.29808-1.8878 0.69551-3.7757 1.2917-5.6635zm43.122 25.337c-0.99359 2.1859-2.2853 4.0738-3.875 5.6635-1.5898 1.5898-3.2789 2.8814-4.968 3.875-1.8878 0.9936-3.6763 1.7885-5.6635 2.1859-1.9872 0.4968-3.875 0.69552-5.6635 0.69552-3.577 0-6.7565-0.69552-9.7373-2.2853-2.9808-1.4904-5.5642-3.577-7.7501-6.1603-2.2853-2.5834-3.9744-5.4648-5.1667-8.843-0.79488-2.0866-1.2917-4.1731-1.5898-6.4584h-9.0418c0.39744 2.9808 1.093 5.8622 2.1859 8.7437 1.5898 4.3718 3.875 8.2469 6.8558 11.625 2.9808 3.3782 6.4584 6.1603 10.532 8.2469 3.9744 2.1859 8.4456 3.1795 13.314 3.1795 2.6827 0 5.4648-0.29808 8.3462-1.093 2.7821-0.69552 5.4648-1.6891 8.0482-3.1795 2.5834-1.2917 4.8686-3.0802 6.8558-5.0674s3.577-4.3718 4.7693-7.0546z" stroke-miterlimit="2" stroke-width="0" fill="#f7a8b8"/>
  <path id="path120571" style="font-variant-ligatures:none" d="m265.6 419.17h8.9424v-70.546h-8.9424zm47.792-70.546v30.504h-30.901v7.9488h30.901v32.093h8.9424v-70.546z" stroke-miterlimit="2" stroke-width="0" fill="#dcaec3"/>
  <path id="path120573" style="font-variant-ligatures:none" d="m372.04 358.27-3.875 10.532 8.9424 22.753h-17.686l-2.6827 6.9552h22.356l8.3462 20.667h9.5386zm-3.875-9.6379h-7.5514l-28.914 70.546h9.1411l23.548-60.212z" stroke-miterlimit="2" stroke-width="0" fill="#c1b4cf"/>
  <path id="path120575" style="font-variant-ligatures:none" d="m443.26 392.15c2.1859-0.4968 4.2725-1.4904 6.061-2.8814 1.7885-1.2917 3.3782-2.8814 4.6699-4.7693 1.2917-1.7885 2.2853-3.875 2.9808-6.1603 0.69552-2.2853 1.093-4.6699 1.093-7.1539 0-2.7821-0.59616-5.4648-1.5898-8.1475-1.093-2.6827-2.5834-5.0674-4.4712-7.2533s-4.1731-3.875-6.7565-5.1667-5.4648-1.9872-8.545-1.9872h-30.21v70.546h8.9424v-25.337h8.9424l-4.968-7.9488h-3.9744v-29.311h20.766c1.6891 0 3.2789 0.39744 4.8686 1.1923 1.5898 0.79488 2.8814 1.7885 4.0738 3.1795 1.1923 1.391 2.0866 2.8814 2.7821 4.6699 0.69552 1.7885 1.093 3.6763 1.093 5.5642 0 1.9872-0.29808 3.7757-0.89424 5.5642-0.69552 1.8878-1.4904 3.3782-2.484 4.7693-1.093 1.391-2.3846 2.484-3.875 3.1795-1.4904 0.79488-3.1795 1.1923-4.968 1.1923h-7.8494l5.1667 7.9488 16.096 25.337h10.135z" stroke-miterlimit="2" stroke-width="0" fill="#a6bbda"/>
  <path id="path120577" style="font-variant-ligatures:none" d="m471.7 348.63v70.546h8.9424v-54.56l15.798 28.218 4.7693-8.1475-20.071-36.068zm60.61 0-25.635 45.805-4.6699 8.1475 2.1859 3.875h5.0674l23.449-41.831v54.549h8.9424v-70.546z" stroke-miterlimit="2" stroke-width="0" fill="#8bc1e5"/>
  <path id="path120579" style="font-variant-ligatures:none" d="m567.39 356.58h38.055v-7.9488h-46.997v21.859h8.9424zm-8.9424 54.648v7.9488h47.892v-7.9488zm8.9424-24.343h33.087v-7.452h-42.029v22.853h8.9424z" stroke-miterlimit="2" stroke-width="0" fill="#70c7f1"/>
  <path id="path120581" style="font-variant-ligatures:none" d="m627.55 356.58h38.055v-7.9488h-46.997v21.859h8.9424zm-8.9424 54.648v7.9488h47.892v-7.9488zm8.9424-24.343h33.087v-7.452h-42.029v22.853h8.9424z" stroke-miterlimit="2" stroke-width="0" fill="#55cdfc"/>
  <path id="icon" stroke-width=".75" fill="#f7a8b8" d="m776.02 318.27c-0.28648 0.002-0.6893 0.03-0.8949 0.0621-0.20558 0.0317-0.53585 0.10467-0.73434 0.1618-0.19808 0.0567-0.51666 0.17055-0.70765 0.25228-0.19099 0.0817-0.49123 0.23436-0.6672 0.33903-0.17639 0.10467-0.44953 0.28689-0.60757 0.40448-0.15803 0.11802-0.44661 0.37488-0.64176 0.57129-0.19473 0.19642-0.4687 0.51834-0.60798 0.71516-0.13928 0.19641-0.44619 0.72641-0.6818 1.1768-0.2356 0.45078-0.65344 1.2922-0.92865 1.8706-0.2748 0.57838-0.65969 1.4174-0.8553 1.8648-0.19557 0.44702-0.50999 1.1884-0.69889 1.6472-0.18849 0.4587-0.47038 1.1718-0.62592 1.5846-0.15555 0.41283-0.42117 1.1443-0.59006 1.625-0.16888 0.48081-0.43743 1.2877-0.59714 1.7931-0.15971 0.50541-0.37447 1.2093-0.47746 1.565-0.10342 0.35528-0.29232 1.0308-0.41992 1.5012l-0.23227 0.85485-0.68388 1.397c-0.37613 0.76815-0.83318 1.7439-1.015 2.1684-0.18223 0.42409-0.46747 1.128-0.63385 1.5638-0.1668 0.43577-0.43034 1.1768-0.5863 1.6472-0.15596 0.46996-0.37738 1.183-0.49248 1.5846-0.11509 0.40115-0.28439 1.03-0.37613 1.397-0.0913 0.36696-0.23269 0.97665-0.31358 1.3552-0.0809 0.37822-0.20267 0.99833-0.27106 1.3778-0.0684 0.37947-0.1718 1.0267-0.22977 1.4386-0.058 0.412-0.14303 1.1146-0.1889 1.5621-0.0463 0.44702-0.10758 1.123-0.13677 1.5012-0.0325 0.42368-0.053 1.4495-0.0525 2.6688 0 1.2206 0.0208 2.2447 0.0538 2.6688 0.0292 0.37822 0.0905 1.0538 0.13552 1.5012 0.045 0.44702 0.13761 1.2005 0.206 1.6738 0.068 0.47371 0.20016 1.2619 0.29356 1.7514 0.0934 0.48998 0.25187 1.2422 0.35279 1.6713 0.1005 0.42951 0.2773 1.1238 0.3924 1.5429 0.11551 0.4195 0.32067 1.1092 0.45662 1.5338 0.13552 0.42451 0.35319 1.0708 0.48371 1.4366 0.13094 0.36571 0.34695 0.9378 0.48039 1.2718 0.13344 0.3336 0.36821 0.89737 0.52208 1.2531 0.15346 0.35528 0.48038 1.0592 0.726 1.5638 0.24561 0.50457 0.62133 1.2364 0.83483 1.6263 0.21392 0.38989 0.61382 1.0838 0.88905 1.5421 0.2748 0.45828 0.75855 1.2184 1.0742 1.6888 0.31567 0.47078 0.80355 1.1647 1.0846 1.5421 0.28064 0.3778 0.73017 0.95955 0.99833 1.2927 0.26854 0.3336 0.62341 0.7635 0.78854 0.95535 0.16555 0.19182 0.29524 0.35445 0.28815 0.36154-0.007 0.007-0.25645-0.0329-0.55418-0.0888-0.29816-0.0555-0.99248-0.16638-1.5429-0.24603-0.55043-0.0796-1.3852-0.18181-1.8556-0.22726-0.46996-0.0455-1.1926-0.10508-1.6055-0.13261-0.41282-0.0275-1.4824-0.0496-2.3769-0.05-0.89445 0-1.9545 0.0225-2.356 0.0496-0.40116 0.0271-1.0392 0.078-1.4178 0.11301-0.37821 0.035-0.97867 0.10008-1.3344 0.14512-0.35529 0.045-0.9933 0.13803-1.4178 0.20683-0.42409 0.0688-1.0154 0.17348-1.3136 0.23227-0.29816 0.0588-0.74852 0.15304-1.0008 0.20975-0.25228 0.0567-0.75892 0.17848-1.1259 0.27063-0.36695 0.0926-0.99539 0.26188-1.3969 0.37697-0.40116 0.11467-1.12 0.33943-1.5971 0.49873-0.47704 0.15971-1.1997 0.41867-1.6054 0.57504-0.40616 0.15638-1.0571 0.42117-1.447 0.58797-0.3899 0.16638-1.0383 0.45787-1.4411 0.64761-0.4024 0.18931-1.078 0.52708-1.5012 0.75015-0.42284 0.22351-1.0316 0.55669-1.3528 0.74059-0.3211 0.18431-0.88403 0.52208-1.251 0.7506-0.36696 0.22852-0.95783 0.61299-1.3136 0.8544-0.35529 0.24186-0.89033 0.61716-1.1884 0.83445-0.29816 0.21767-0.83071 0.62258-1.1839 0.90075-0.35278 0.27814-0.91447 0.73934-1.2485 1.0254-0.33361 0.28565-0.84233 0.73559-1.1305 0.99953-0.28815 0.26438-0.83445 0.7902-1.2139 1.1692-0.37948 0.37905-0.90488 0.92407-1.1676 1.2114-0.2627 0.28731-0.66302 0.73767-0.88942 1.0008-0.22643 0.26312-0.66052 0.78772-0.96412 1.1663-0.30399 0.37822-0.79186 1.0162-1.0846 1.4178-0.29274 0.40115-0.84316 1.1989-1.2227 1.7718l-0.69055 1.0425-1.0654 1.085c-0.58631 0.59714-1.4066 1.4603-1.8223 1.9186-0.41617 0.45828-1.0145 1.1334-1.3294 1.5004-0.31484 0.36696-0.93322 1.1176-1.3744 1.668-0.44077 0.55044-1.0542 1.3386-1.3628 1.7514-0.30858 0.41283-0.77475 1.0508-1.0358 1.4178-0.26063 0.36696-0.79186 1.1455-1.1797 1.7306-0.38823 0.58505-0.80482 1.2322-0.92572 1.4386-0.12094 0.20642-0.27648 0.50666-0.34569 0.6672-0.0692 0.16055-0.17389 0.44453-0.23227 0.63092-0.058 0.1864-0.13928 0.50541-0.18014 0.7089-0.0542 0.27272-0.0734 0.5617-0.0721 1.0996 0.001 0.58839 0.0192 0.81188 0.093 1.1547 0.05 0.23352 0.14928 0.59006 0.22017 0.7923 0.0709 0.20184 0.22352 0.55212 0.33903 0.77768 0.1155 0.22518 0.31191 0.55211 0.43659 0.726s0.32318 0.427 0.44119 0.56253c0.11759 0.13552 0.36488 0.37321 0.54919 0.52834 0.18431 0.15554 0.44785 0.35778 0.58546 0.45036 0.13761 0.0922 0.41909 0.25229 0.6255 0.35612 0.20642 0.10342 0.54085 0.24686 0.74268 0.31817 0.20225 0.0713 0.55878 0.1718 0.7923 0.2231 0.3728 0.0817 0.53793 0.093 1.3424 0.0897 0.50457-0.002 1.246-0.0259 1.6472-0.053 0.40158-0.0271 1.0583-0.0767 1.4595-0.1105 0.40158-0.0337 1.1709-0.10926 1.7097-0.16764 0.53876-0.0584 1.4399-0.17139 2.0016-0.25062 0.56212-0.0796 1.4066-0.21017 1.8765-0.28981 0.47038-0.0801 1.2398-0.22184 1.7097-0.31484 0.47038-0.0934 1.1926-0.24394 1.6054-0.33527 0.41283-0.0909 1.3044-0.30774 1.9808-0.48121 0.6768-0.17389 1.384-0.34945 1.5721-0.39073 0.20016-0.0434 0.71056-0.0938 1.2302-0.12135 0.48872-0.0259 1.301-0.0851 1.8056-0.13094 0.50457-0.0463 1.2647-0.13094 1.6888-0.18807 0.42451-0.0575 1.1-0.16054 1.5012-0.22976 0.40157-0.0688 1.0863-0.201 1.522-0.29315 0.43577-0.0926 1.1488-0.25896 1.5846-0.37072 0.43577-0.11134 1.027-0.27021 1.3136-0.3532 0.2869-0.0826 0.89655-0.27354 1.3552-0.4245 0.4587-0.15054 1.1626-0.39615 1.5638-0.54585 0.40157-0.1497 1.02-0.39282 1.3744-0.54044 0.35445-0.14761 0.9549-0.4099 1.3344-0.58296 0.37947-0.17305 0.92453-0.43243 1.211-0.57588 0.2869-0.14386 0.85905-0.4441 1.2718-0.66762 0.41283-0.22309 1.0792-0.60298 1.4804-0.8436 0.40157-0.24061 1.0771-0.66637 1.5012-0.9462 0.42451-0.27939 1.0529-0.71098 1.397-0.9591 0.34403-0.24811 0.90158-0.66595 1.2389-0.9291 0.33735-0.26312 0.89115-0.71307 1.2302-0.99997 0.33902-0.2869 0.87945-0.76148 1.2005-1.055 0.32109-0.29315 1.025-0.98077 1.5642-1.5283 0.5396-0.54711 1.2197-1.2689 1.5124-1.6042 0.29232-0.33484 0.73017-0.85065 0.97245-1.1468 0.2427-0.29565 0.7089-0.89407 1.0366-1.3298 0.32735-0.43577 0.74518-1.01 0.92865-1.276 0.18306-0.26563 0.50749-0.75353 0.72141-1.0842 0.21392-0.33027 0.51834-0.8148 0.6768-1.0772 0.15803-0.26188 0.47163-0.8061 0.69638-1.2093 0.22435-0.40282 0.5984-1.113 0.83108-1.5776 0.23227-0.46496 0.56462-1.1584 0.73809-1.5421 0.17389-0.38323 0.49081-1.138 0.70473-1.6776s0.46079-1.1922 0.54919-1.4499c0.088-0.25813 0.17055-0.46912 0.18306-0.46912 0.0129-0.00042 0.0668 0.13552 0.1201 0.3019 0.0529 0.16638 0.21809 0.62133 0.36654 1.0112 0.14845 0.38989 0.44118 1.1121 0.65051 1.6054 0.20934 0.49289 0.62676 1.3936 0.92783 2.0016 0.30066 0.60756 0.72058 1.4145 0.93323 1.7931 0.21224 0.37821 0.50957 0.89445 0.66052 1.1468 0.15096 0.25228 0.4612 0.74934 0.69013 1.105 0.22852 0.35528 0.61258 0.92782 0.85403 1.2718 0.24103 0.34402 0.65886 0.91612 0.92828 1.2718 0.26937 0.3557 0.68846 0.88822 0.93075 1.1839 0.24227 0.29607 0.67928 0.81188 0.97079 1.1468 0.29191 0.33527 1.0663 1.1459 1.721 1.8019 0.65468 0.65594 1.4437 1.4162 1.7535 1.6897 0.30983 0.27356 0.77894 0.67637 1.0425 0.89528 0.26354 0.21892 0.73266 0.59589 1.0425 0.83775 0.30984 0.24144 0.87068 0.66052 1.2468 0.93075 0.37614 0.26979 1.0046 0.70181 1.397 0.9591 0.39198 0.25728 1.0417 0.66511 1.4428 0.9057 0.40158 0.2406 1.0112 0.59172 1.3553 0.7806 0.34402 0.18849 1.0571 0.55545 1.5846 0.8148 0.5275 0.25937 1.2598 0.60339 1.6276 0.76395 0.36737 0.16054 1.0241 0.43242 1.4595 0.60465 0.43493 0.1718 1.2135 0.45619 1.7293 0.63258 0.51625 0.17598 1.351 0.43911 1.8556 0.58464 0.50458 0.14553 1.2272 0.34027 1.6054 0.43243 0.37822 0.0922 0.99788 0.23352 1.3761 0.314 0.37821 0.0805 1.0216 0.20349 1.4295 0.27313 0.40741 0.07 1.0829 0.17306 1.5012 0.22977 0.41783 0.0567 1.1726 0.14053 1.6772 0.1864 0.50456 0.0463 1.3023 0.10384 1.7722 0.12844 0.47037 0.0246 0.96742 0.0642 1.105 0.0884 0.13761 0.0242 0.66594 0.15304 1.1738 0.2869 0.50791 0.13386 1.3244 0.33777 1.814 0.45327 0.48955 0.11551 1.3594 0.30525 1.9328 0.42201 0.57337 0.11634 1.4741 0.28523 2.0016 0.3753 0.52751 0.0896 1.4191 0.22851 1.9808 0.30858 0.56211 0.0801 1.4628 0.19349 2.0016 0.25187 0.53919 0.0583 1.3085 0.13385 1.7097 0.16763 0.40158 0.0342 1.0583 0.0838 1.4595 0.11093 0.40157 0.0271 1.1425 0.0513 1.6471 0.053 0.80228 0.003 0.97035-0.008 1.3386-0.0892 0.23186-0.0509 0.56963-0.14219 0.75061-0.20265 0.18139-0.0605 0.51708-0.20392 0.74642-0.3186 0.22936-0.11508 0.52959-0.28439 0.6672-0.37654 0.13762-0.0926 0.40116-0.29483 0.58547-0.45036 0.18432-0.15513 0.43159-0.39282 0.54919-0.52835 0.11801-0.13552 0.3165-0.38864 0.44119-0.56253 0.12468-0.17388 0.32317-0.50373 0.44077-0.73266 0.11759-0.22935 0.27897-0.61091 0.3582-0.84818 0.0797-0.23727 0.17722-0.60965 0.21767-0.82732 0.0509-0.27648 0.0726-0.60423 0.0722-1.0842-0.00042-0.4833-0.0225-0.79815-0.0734-1.058-0.04-0.2035-0.12093-0.52251-0.17889-0.7089-0.0583-0.1864-0.16305-0.47038-0.23227-0.63093-0.0692-0.16054-0.22477-0.46078-0.3457-0.6672-0.12093-0.20641-0.53751-0.85357-0.92572-1.4386-0.38781-0.58505-0.91905-1.3636-1.1801-1.7306-0.26062-0.36696-0.756-1.0425-1.1-1.5012-0.34445-0.4587-0.95828-1.2468-1.3636-1.7514-0.40574-0.50457-0.99495-1.2176-1.3098-1.5846-0.31441-0.36696-0.91072-1.0404-1.3252-1.4962-0.41449-0.4562-1.2347-1.3202-1.8236-1.9203l-1.07-1.0912-0.6476-0.97785c-0.35612-0.53793-0.84945-1.2593-1.0963-1.6034-0.24687-0.34403-0.63885-0.86948-0.87067-1.1676-0.23144-0.29816-0.60799-0.76725-0.8361-1.0425-0.22852-0.27522-0.61174-0.72266-0.85193-0.99458-0.2402-0.27188-0.74101-0.81607-1.113-1.2093-0.37155-0.39323-1.0208-1.0371-1.442-1.4303-0.42159-0.39323-0.95407-0.879-1.1834-1.0796-0.22936-0.20016-0.67012-0.57254-0.97995-0.82732-0.30942-0.25478-0.9474-0.75143-1.4174-1.1038-0.46954-0.35236-1.2673-0.91612-1.7722-1.2531-0.50456-0.33651-1.2648-0.81937-1.6893-1.0725-0.42408-0.25353-1.1468-0.66428-1.6054-0.91237-0.45869-0.24854-1.1438-0.60048-1.522-0.7827-0.37822-0.18223-0.94118-0.44411-1.251-0.5813-0.30983-0.13761-0.90074-0.38739-1.3136-0.55461-0.41282-0.16764-1.0892-0.42701-1.5033-0.5763-0.41367-0.14928-1.0612-0.36821-1.4387-0.48621-0.37738-0.11843-1.0179-0.30733-1.4232-0.42034-0.40575-0.11259-1.0154-0.27147-1.3553-0.35279-0.33985-0.0813-1.0308-0.23101-1.5354-0.33276-0.50456-0.10217-1.2831-0.24186-1.7306-0.31067-0.44702-0.0688-1.1321-0.16263-1.522-0.2085-0.38989-0.0454-1.0483-0.11092-1.4632-0.14553-0.41492-0.0346-1.2873-0.0838-1.9391-0.10925-0.65177-0.0254-1.5975-0.0346-2.1021-0.0204-0.50458 0.0146-1.2456 0.0446-1.6472 0.0675-0.40116 0.0229-1.1142 0.0797-1.5846 0.12593-0.46995 0.0463-1.2489 0.1397-1.7306 0.20725-0.48163 0.068-1.1751 0.17848-1.5412 0.24645-0.36613 0.0675-0.67221 0.11634-0.68055 0.10842-0.008-0.008 0.10508-0.15262 0.25145-0.32151 0.14637-0.16846 0.50124-0.59756 0.78856-0.95287 0.28772-0.35571 0.74726-0.94868 1.0221-1.3186 0.27439-0.36946 0.76268-1.0638 1.085-1.5429 0.32234-0.47872 0.81105-1.246 1.0867-1.7047 0.27523-0.4587 0.6451-1.0967 0.82193-1.4178 0.1768-0.32109 0.54334-1.0342 0.81442-1.5846 0.27147-0.55044 0.60924-1.2635 0.7506-1.5846 0.14178-0.32109 0.41325-0.97785 0.60341-1.4595 0.19057-0.48164 0.44035-1.148 0.55586-1.4804 0.11509-0.33277 0.28481-0.8394 0.37697-1.1259 0.0921-0.2869 0.2331-0.74643 0.31316-1.0216 0.0805-0.27522 0.21267-0.75353 0.29398-1.0634 0.0817-0.30984 0.22269-0.89153 0.31359-1.2927 0.0913-0.40158 0.23102-1.0767 0.31108-1.5012 0.0801-0.42451 0.20267-1.1655 0.2723-1.6472 0.0696-0.48164 0.15513-1.148 0.19057-1.4804 0.035-0.33277 0.0926-0.9612 0.12761-1.397 0.0355-0.43577 0.0755-1.4866 0.0892-2.3352 0.0158-0.9783 0.007-1.9016-0.0242-2.5228-0.0275-0.53919-0.0863-1.374-0.13093-1.8556-0.0446-0.48164-0.11927-1.1668-0.16555-1.522-0.0467-0.35571-0.14178-0.99368-0.21142-1.4178-0.0701-0.42451-0.20141-1.1326-0.29274-1.5734-0.0909-0.44119-0.24061-1.1075-0.33276-1.4804-0.0917-0.37322-0.24978-0.972-0.35112-1.3306-0.10132-0.35862-0.28981-0.98708-0.41908-1.397-0.12885-0.4095-0.3949-1.1764-0.59047-1.7038-0.19599-0.52751-0.52376-1.3532-0.72892-1.8348-0.20475-0.48164-0.68013-1.5045-1.0567-2.2726l-0.6843-1.397-0.29649-1.0842c-0.16305-0.59631-0.41575-1.4782-0.56128-1.9599-0.14554-0.48164-0.40866-1.3073-0.5838-1.8348-0.17556-0.52751-0.52584-1.5116-0.7785-2.1868-0.25271-0.67512-0.62467-1.6255-0.82733-2.1112-0.20224-0.4858-0.51248-1.2093-0.68888-1.6076-0.1768-0.39865-0.53584-1.1751-0.7977-1.7255-0.26145-0.55044-0.66594-1.364-0.8982-1.8081-0.23226-0.44411-0.53626-0.96788-0.67554-1.1638-0.13928-0.19599-0.41283-0.5175-0.60799-0.71474-0.19473-0.19724-0.48372-0.45495-0.64176-0.57295-0.15804-0.1176-0.43118-0.29982-0.60757-0.40449-0.17597-0.10467-0.47621-0.25729-0.6672-0.33903-0.19098-0.0817-0.50874-0.19515-0.70598-0.25186-0.19766-0.0563-0.54668-0.13094-0.77602-0.16555-0.22935-0.0342-0.65135-0.0609-0.93825-0.0588zm0.22935 42.766c0.13761 0.009 0.34403 0.0267 0.4587 0.0388 0.11467 0.0117 0.35528 0.0588 0.53501 0.10467 0.17972 0.0455 0.49248 0.15429 0.69472 0.24144 0.20266 0.0872 0.53418 0.26855 0.73684 0.40324 0.20266 0.13427 0.52 0.39532 0.70474 0.57963 0.18472 0.18431 0.43075 0.4758 0.54668 0.64801 0.11592 0.17181 0.2673 0.42534 0.33652 0.56295 0.0688 0.13762 0.17264 0.38156 0.23019 0.5421 0.0575 0.16055 0.13844 0.4512 0.17972 0.64636 0.053 0.24894 0.0746 0.52833 0.0734 0.93824-0.002 0.43285-0.0242 0.6818-0.0876 0.96158-0.0471 0.20767-0.1447 0.53001-0.21642 0.71599-0.0717 0.18598-0.2281 0.49956-0.34736 0.69639-0.11968 0.19682-0.33319 0.49581-0.47455 0.66469-0.14137 0.16889-0.40782 0.42743-0.59256 0.57504-0.18431 0.14762-0.47579 0.34903-0.6476 0.44703-0.17138 0.098-0.5004 0.24519-0.731 0.32692l-0.4195 0.14846 0.00075 5.4464 0.00042 5.4464 0.38531 0.11926c0.21141 0.0655 0.52125 0.1839 0.68763 0.26271 0.16638 0.0788 0.47621 0.25937 0.68805 0.40115 0.21183 0.14178 0.54543 0.41742 0.74101 0.61299 0.19849 0.1985 0.48247 0.54585 0.64176 0.7848 0.1568 0.23603 0.35821 0.59798 0.44744 0.80483 0.0892 0.20683 0.20725 0.55044 0.26271 0.7635 0.0555 0.2135 0.1226 0.58296 0.14887 0.8211 0.0271 0.24269 0.0358 0.58963 0.0204 0.7881-0.015 0.19474-0.0659 0.54835-0.11259 0.78525-0.0479 0.24144-0.0697 0.44535-0.0492 0.46412 0.02 0.0184 2.143 1.2481 4.718 2.733l4.6816 2.7001 0.21809-0.20559c0.1201-0.113 0.33486-0.28481 0.47789-0.38155 0.14303-0.0967 0.40574-0.24812 0.5838-0.3361 0.17806-0.088 0.44619-0.19975 0.59505-0.2477 0.14887-0.0484 0.36071-0.10759 0.47038-0.13136 0.10926-0.0238 0.3753-0.0617 0.59089-0.0838 0.25395-0.0267 0.54127-0.0267 0.81772 0 0.23477 0.0221 0.5788 0.0809 0.76478 0.13052 0.18556 0.0492 0.5004 0.15929 0.69889 0.24436 0.19891 0.0847 0.52667 0.26438 0.72892 0.39907 0.20266 0.13469 0.51916 0.39573 0.70348 0.58046 0.18472 0.18432 0.44577 0.50082 0.58046 0.70348 0.13469 0.20225 0.3165 0.53334 0.40366 0.73601 0.0871 0.20224 0.19724 0.51833 0.24395 0.70223 0.0471 0.1839 0.10466 0.52291 0.12843 0.7539 0.0296 0.28898 0.0296 0.55085 0 0.83985-0.0238 0.23102-0.0801 0.5642-0.1251 0.741-0.045 0.17682-0.13719 0.45578-0.20517 0.61967-0.0676 0.16388-0.19891 0.42868-0.2919 0.58797-0.093 0.15929-0.24811 0.39031-0.34443 0.51374-0.0963 0.12344-0.304 0.34903-0.46163 0.50123-0.15721 0.15221-0.41366 0.36238-0.5692 0.46704-0.15596 0.10467-0.43201 0.26397-0.61383 0.35445-0.1818 0.0901-0.4808 0.21143-0.66469 0.26939-0.18431 0.058-0.49165 0.12802-0.68305 0.15637-0.21892 0.0317-0.56712 0.0421-0.93742 0.0275-0.4512-0.0179-0.68138-0.0484-0.98498-0.13178-0.21767-0.0596-0.60257-0.21016-0.85485-0.33485-0.25228-0.12427-0.58171-0.31942-0.73183-0.43368s-0.41492-0.3557-0.58798-0.5371c-0.17305-0.18097-0.39489-0.44743-0.49289-0.59172-0.098-0.1447-0.26145-0.43827-0.36279-0.6526-0.10175-0.21434-0.23311-0.57338-0.29232-0.79733-0.0867-0.32985-0.1105-0.53167-0.12468-1.0542-0.0137-0.51958-0.002-0.71849 0.0605-1.0133l0.0771-0.36696-0.37781-0.22101c-0.20808-0.12177-1.3632-0.7902-2.5675-1.4858-1.2039-0.69514-3.1538-1.8223-4.3322-2.5041l-2.143-1.2398-0.36737 0.319c-0.20184 0.17556-0.52459 0.41825-0.71724 0.53918-0.19308 0.12093-0.52793 0.29274-0.74519 0.38115-0.21684 0.0888-0.55294 0.20016-0.74643 0.24811-0.19348 0.0476-0.55377 0.10675-0.80025 0.13094-0.319 0.0317-0.57629 0.0317-0.89235-0.00075-0.24436-0.0246-0.5667-0.0734-0.71641-0.10801-0.1497-0.035-0.38614-0.10217-0.52542-0.14928-0.13927-0.0476-0.41908-0.16888-0.62175-0.26981-0.20307-0.10049-0.48288-0.26062-0.62175-0.35486-0.13927-0.0942-0.39657-0.29815-0.57212-0.45286l-0.31942-0.28148-4.5007 2.603c-2.4758 1.4316-4.5962 2.6567-4.7126 2.723l-0.21184 0.12009 0.078 0.36864c0.0625 0.2969 0.0742 0.49455 0.0605 1.015-0.0138 0.52125-0.038 0.72475-0.12385 1.0513-0.0588 0.22225-0.18098 0.56336-0.27188 0.75682-0.0909 0.19391-0.25104 0.48497-0.35571 0.64718-0.10467 0.1618-0.33568 0.44619-0.51333 0.63217-0.17764 0.18557-0.44577 0.43119-0.59589 0.54544-0.15012 0.11426-0.47955 0.30941-0.73183 0.43368-0.25229 0.12469-0.63676 0.27522-0.85485 0.33485-0.30358 0.0834-0.53376 0.11384-0.98498 0.13178-0.37029 0.0146-0.71849 0.004-0.93742-0.0275-0.1914-0.0283-0.49874-0.0984-0.68305-0.15637-0.1839-0.058-0.47663-0.17598-0.65094-0.26271-0.17389-0.0863-0.39073-0.20391-0.48121-0.26146-0.0909-0.0571-0.30608-0.21767-0.47872-0.35612-0.17222-0.13886-0.42451-0.38531-0.56087-0.54836-0.13635-0.16304-0.33068-0.43159-0.43242-0.59714-0.10175-0.16555-0.24729-0.44785-0.32318-0.62717-0.0759-0.17973-0.17556-0.47288-0.22143-0.65219-0.0459-0.17889-0.10383-0.5154-0.12885-0.74726-0.0334-0.30691-0.0334-0.5371 0-0.84397 0.025-0.23186 0.0838-0.57129 0.13052-0.7539 0.0467-0.18265 0.15638-0.4979 0.24353-0.70015 0.0872-0.20266 0.26896-0.53375 0.40366-0.736 0.13469-0.20267 0.39573-0.51917 0.58046-0.70348 0.18431-0.18473 0.50082-0.44577 0.70348-0.58047 0.20224-0.13469 0.53334-0.3165 0.736-0.40366 0.20225-0.0872 0.52-0.19765 0.70556-0.24477 0.18599-0.0476 0.52626-0.10425 0.75683-0.12636 0.2748-0.0263 0.56128-0.0254 0.83235 0.002 0.22726 0.0233 0.55336 0.0784 0.72433 0.12219 0.17139 0.0438 0.4391 0.1301 0.59547 0.19182 0.15596 0.0617 0.41534 0.18765 0.57588 0.2798 0.16055 0.0922 0.36696 0.22435 0.4587 0.29357 0.0917 0.0688 0.25479 0.20933 0.36196 0.31192l0.19516 0.18681 2.6613-1.5338c1.4637-0.8436 3.5854-2.0684 4.715-2.7209 1.4032-0.81106 2.0537-1.2089 2.0533-1.2556-0.00042-0.038-0.0284-0.17222-0.0621-0.29816-0.0342-0.12635-0.083-0.44201-0.10842-0.70181-0.035-0.35153-0.0346-0.58922 0.00082-0.92782 0.0263-0.2502 0.0917-0.62842 0.14595-0.84068 0.0542-0.21226 0.17306-0.55878 0.26438-0.77017 0.0913-0.211 0.2944-0.57671 0.45119-0.8127 0.16138-0.24186 0.44077-0.58338 0.64218-0.78353 0.19599-0.19516 0.49915-0.45286 0.67388-0.57295 0.17514-0.11968 0.48622-0.30191 0.69222-0.40407 0.20599-0.10259 0.54585-0.23852 0.75562-0.30233l0.3795-0.12v-10.88l-0.28125-0.0923c-0.15471-0.0509-0.41283-0.15471-0.57337-0.23018-0.16055-0.0755-0.40449-0.21059-0.5421-0.29982-0.13761-0.0892-0.37322-0.26646-0.52334-0.39449-0.15012-0.1276-0.38072-0.36362-0.51249-0.525-0.13219-0.16137-0.33235-0.44661-0.44536-0.63467-0.11259-0.18765-0.26354-0.49289-0.33485-0.67846-0.0717-0.18514-0.16889-0.50707-0.21601-0.71473-0.0634-0.27981-0.0859-0.52876-0.0876-0.96158-0.001-0.40991 0.0204-0.6893 0.0734-0.93825 0.0413-0.19515 0.12218-0.4858 0.17973-0.64635 0.0575-0.16054 0.16137-0.40449 0.23018-0.5421 0.0692-0.13761 0.22059-0.39114 0.33652-0.56295 0.11592-0.17222 0.36195-0.4637 0.54669-0.64801 0.18473-0.18431 0.50206-0.44536 0.70473-0.57963 0.20266-0.13469 0.53418-0.31609 0.73683-0.40324 0.20225-0.0872 0.52167-0.19807 0.7089-0.24561 0.18766-0.048 0.51291-0.10258 0.72308-0.12176 0.20975-0.0188 0.49414-0.0267 0.63175-0.0175zm-48.84-10.114c-0.31609 0.003-0.70098 0.0213-0.8553 0.0413-0.15429 0.02-0.45453 0.0746-0.6672 0.12218-0.21267 0.0471-0.55544 0.14178-0.76185 0.21017-0.20642 0.0684-0.61924 0.24603-0.9174 0.39448-0.29816 0.14887-0.71975 0.39657-0.9366 0.55127-0.21684 0.15429-0.5888 0.46704-0.82605 0.69514-0.23769 0.22769-0.52208 0.52793-0.63218 0.6672-0.11008 0.13886-0.29481 0.39449-0.41074 0.56754-0.11593 0.17306-0.30524 0.50165-0.42075 0.72975s-0.2748 0.59339-0.35362 0.81188c-0.0788 0.21809-0.19265 0.61465-0.25228 0.88072-0.0596 0.26646-0.12969 0.73017-0.15596 1.0308-0.0354 0.40991-0.0354 0.68555 0.00083 1.1 0.0263 0.30399 0.0947 0.75937 0.15178 1.0117 0.0567 0.25229 0.14387 0.58088 0.19308 0.72975 0.0492 0.14887 0.16346 0.43994 0.25395 0.64635 0.0905 0.20642 0.26354 0.54419 0.3853 0.7506 0.12135 0.20642 0.55461 0.81608 0.96202 1.3552 0.40741 0.53918 1.0688 1.3903 1.4691 1.892 0.40073 0.50165 0.91739 1.1396 1.1484 1.4178 0.23144 0.27814 0.74268 0.8811 1.1368 1.3398 0.39406 0.4587 1.012 1.1622 1.3732 1.5638 0.36113 0.40116 1.0342 1.1321 1.4958 1.6242 0.46162 0.49206 1.3269 1.3832 1.9232 1.9808 0.59673 0.59756 1.46 1.4411 1.9182 1.8752 0.4587 0.43368 1.266 1.178 1.7939 1.6543 0.52793 0.4758 1.3256 1.1788 1.7722 1.5616 0.44661 0.38322 1.1876 1.0029 1.6463 1.3778 0.4587 0.37488 1.1718 0.94703 1.5846 1.2718 0.41283 0.32484 1.1822 0.91365 1.7097 1.3085 0.5275 0.39489 1.2964 0.9591 1.7092 1.2539 0.41241 0.29482 0.77812 0.53376 0.81315 0.53084 0.0346-0.003 0.26939-0.10216 0.52167-0.22059 0.25228-0.11842 0.80602-0.36236 1.2302-0.54168 0.42451-0.17973 1.128-0.4612 1.5638-0.62633 0.43577-0.16471 1.1488-0.41783 1.5846-0.56253 0.43577-0.14428 1.1488-0.36654 1.5846-0.49372 0.43576-0.12719 1.1301-0.31567 1.5429-0.41909 0.41283-0.10342 0.92407-0.22601 1.1355-0.27271 0.21184-0.0467 0.71098-0.14929 1.1096-0.2281 0.39824-0.0784 1.0884-0.19974 1.5329-0.26939 0.44494-0.0696 1.1092-0.16388 1.4762-0.20975 0.36696-0.0459 0.97702-0.11134 1.3552-0.14595 0.37864-0.0342 1.0446-0.0846 1.4804-0.11134 0.43576-0.0271 1.4399-0.0513 2.231-0.0538 0.79148-0.003 1.7626 0.0104 2.1592 0.0296l0.72016 0.0346-0.3065-0.47247c-0.1695-0.2595-0.47775-0.75375-0.6855-1.098s-0.5415-0.9165-0.741-1.272-0.65025-1.2278-1.002-1.9387c-0.35111-0.71099-0.79732-1.668-0.99165-2.1267-0.19432-0.4587-0.47955-1.1626-0.63342-1.5637-0.15387-0.40158-0.427-1.1705-0.60715-1.7097-0.18015-0.53919-0.42159-1.3094-0.53668-1.7122-0.11551-0.4024-0.31233-1.1459-0.43785-1.6522-0.12552-0.50624-0.31526-1.359-0.42117-1.8949-0.10634-0.53627-0.24728-1.3219-0.31317-1.7464-0.0659-0.42451-0.16722-1.1751-0.22476-1.668-0.0575-0.49289-0.11718-1.0513-0.13261-1.2398-0.0154-0.1889-0.0492-0.35945-0.0751-0.37947-0.0254-0.0196-0.42826-0.20808-0.8949-0.41908-0.46662-0.21101-1.3015-0.57755-1.8556-0.81443-0.5535-0.23775-1.4288-0.60075-1.9455-0.80849-0.51525-0.20776-1.332-0.52726-1.8135-0.71026-0.4815-0.18374-1.3072-0.4875-1.8352-0.675-0.52725-0.18674-1.3808-0.48075-1.8968-0.6525-0.516-0.17174-1.3582-0.4425-1.8712-0.60149-0.51225-0.15976-1.3192-0.40125-1.7925-0.53701-0.47325-0.13575-1.1798-0.33375-1.5698-0.43949-0.39-0.10651-1.2622-0.33076-1.9395-0.49876-0.67575-0.16874-1.6238-0.3945-2.1052-0.50175-0.48225-0.10724-1.1858-0.25949-1.5638-0.33824-0.37875-0.0788-1.1858-0.2355-1.7932-0.34951-0.6075-0.11325-1.3868-0.25349-1.731-0.3105-0.3435-0.0585-1.0582-0.171-1.5878-0.252-0.52875-0.0802-1.5562-0.22125-2.2815-0.31349-1.0275-0.1305-1.446-0.1665-1.8945-0.16201zm97.402 0.0129c-0.51374-0.01-0.9249 0.006-1.2302 0.0463-0.25228 0.0334-0.89033 0.11759-1.4178 0.18723-0.52751 0.0696-1.5033 0.21184-2.1684 0.31609-0.66512 0.10383-1.7159 0.2823-2.3352 0.39573-0.61924 0.11342-1.4074 0.26354-1.7514 0.33318-0.34402 0.0701-1.1697 0.24686-1.8348 0.39364-0.66511 0.14637-1.7064 0.3899-2.3144 0.54085-0.60757 0.15137-1.6117 0.41366-2.231 0.58297-0.61924 0.16971-1.6042 0.45078-2.1892 0.6255-0.58463 0.1743-1.8703 0.5863-2.8564 0.9153-0.98617 0.32901-2.3528 0.80692-3.0362 1.0625-0.68388 0.2552-1.7722 0.67763-2.4186 0.93825-0.64676 0.26063-1.5884 0.65177-2.093 0.86903-0.50457 0.21726-1.2176 0.53084-1.5846 0.69722-0.36696 0.16638-0.75308 0.34569-0.85778 0.39865l-0.19015 0.0963-0.0725 0.7431c-0.0401 0.40908-0.11844 1.0904-0.17515 1.5149-0.0563 0.42451-0.15887 1.1075-0.22851 1.5178-0.0696 0.41075-0.20225 1.1142-0.29482 1.5638-0.093 0.44953-0.27939 1.2581-0.4145 1.7973-0.13511 0.53918-0.3778 1.417-0.53918 1.9511-0.16138 0.53418-0.42701 1.3507-0.59005 1.814-0.16347 0.4637-0.4512 1.2272-0.6401 1.6976-0.18849 0.46996-0.47163 1.1455-0.62842 1.5012-0.15721 0.35528-0.50415 1.0871-0.77145 1.6263-0.26688 0.53876-0.67804 1.3269-0.91365 1.7514-0.2352 0.42409-0.59798 1.0529-0.80565 1.397-0.20809 0.34403-0.51584 0.8382-0.6843 1.0979l-0.3065 0.47246 0.72016-0.0346c0.39657-0.0192 1.3682-0.0325 2.1592-0.0296 0.79147 0.002 1.7952 0.0267 2.231 0.0534 0.43576 0.0271 1.0925 0.0767 1.4595 0.11093 0.36696 0.0338 0.97702 0.0993 1.3552 0.14512 0.37822 0.0459 0.99788 0.13135 1.3761 0.19015 0.37822 0.0584 0.98827 0.16221 1.3552 0.23018 0.36696 0.0684 1.0425 0.2085 1.5012 0.3115s1.1906 0.2819 1.6263 0.39824c0.43576 0.11592 1.1538 0.32192 1.5963 0.45786 0.44202 0.13553 1.1551 0.36947 1.5846 0.52 0.42909 0.15012 1.1842 0.4341 1.6772 0.6305 0.49289 0.19683 1.2251 0.50666 1.6263 0.68847 0.40157 0.18223 0.78855 0.35696 0.8607 0.38907l0.13135 0.058 0.76523-0.54711c0.42117-0.30066 1.1305-0.81855 1.5766-1.151 0.44577-0.33193 1.1497-0.8682 1.5638-1.1914 0.41408-0.32276 1.1-0.86858 1.5242-1.2122 0.42451-0.34402 1.0717-0.879 1.4386-1.1893 0.36696-0.31067 1.0334-0.88568 1.4804-1.2781 0.44744-0.39281 1.0855-0.9633 1.4178-1.2676 0.33277-0.30441 1.1584-1.0855 1.8348-1.7351 0.67679-0.64969 1.7576-1.731 2.4023-2.4023 0.64467-0.67179 1.3957-1.4654 1.6688-1.7635 0.27271-0.29816 0.72141-0.79523 0.9966-1.105 0.2748-0.30983 0.78225-0.89153 1.1276-1.2927 0.34528-0.40157 0.89032-1.0487 1.2114-1.4386 0.32109-0.3899 0.83903-1.0296 1.1505-1.4211 0.3115-0.39198 0.89865-1.1518 1.3048-1.6888 0.40658-0.5371 0.83858-1.1455 0.95993-1.352 0.12176-0.20642 0.29566-0.54544 0.3874-0.75308 0.0913-0.20766 0.21308-0.52667 0.27021-0.7089 0.0575-0.18222 0.14303-0.50957 0.18973-0.72724 0.0471-0.21809 0.10801-0.64343 0.13553-0.94575 0.038-0.41951 0.0388-0.68013 0.002-1.1-0.0263-0.30232-0.0963-0.76815-0.15596-1.0346-0.0596-0.26688-0.17473-0.66345-0.25562-0.8811-0.0809-0.21809-0.24103-0.5838-0.3557-0.81315-0.11468-0.22935-0.30233-0.55794-0.417-0.72975-0.11468-0.17222-0.27564-0.3974-0.35779-0.5004-0.0822-0.10341-0.30024-0.34444-0.48455-0.53626-0.18474-0.19182-0.46704-0.45662-0.62759-0.58839-0.16054-0.13178-0.45578-0.34653-0.65635-0.47747-0.20058-0.13052-0.55712-0.32943-0.79275-0.44202-0.23561-0.11259-0.62759-0.26979-0.87113-0.34944-0.24311-0.0797-0.64635-0.18599-0.89572-0.23561-0.34069-0.068-0.64594-0.0942-1.2251-0.10467zm-48.75 48.226c-0.0129 0-0.0951 0.14553-0.18223 0.32318-0.0876 0.17764-0.34819 0.67011-0.57921 1.0946-0.23101 0.42409-0.62758 1.1184-0.88072 1.5429-0.25312 0.42409-0.7548 1.2122-1.1138 1.7514-0.35945 0.53876-0.93405 1.3552-1.2769 1.814-0.34277 0.4587-0.84398 1.1063-1.1138 1.4386-0.2698 0.33235-0.72433 0.87195-1.01 1.1984-0.28564 0.32652-0.81562 0.90863-1.1776 1.2932-0.36237 0.38489-0.99458 1.0208-1.4057 1.4136-0.41074 0.39324-0.95077 0.89528-1.2005 1.1163-0.24937 0.221-0.71849 0.62424-1.0425 0.8961-0.3236 0.27146-0.86903 0.71181-1.2118 0.97784-0.34277 0.26646-0.92947 0.70265-1.3031 0.9699-0.53042 0.37906-0.68013 0.50666-0.68013 0.57922 0 0.0509 0.038 0.47538 0.0847 0.94283 0.0463 0.46746 0.13177 1.2627 0.18931 1.7672 0.0575 0.50457 0.20642 1.6305 0.3311 2.502s0.32026 2.1192 0.43493 2.773c0.11426 0.65344 0.30107 1.6576 0.4145 2.231 0.11342 0.57338 0.33068 1.6004 0.48247 2.2822 0.15178 0.6818 0.41408 1.7889 0.58337 2.4603 0.16931 0.67137 0.43326 1.6709 0.58672 2.2214 0.15304 0.55044 0.41867 1.4699 0.58923 2.0433 0.17096 0.57338 0.56128 1.7931 0.86775 2.7105 0.30607 0.9174 0.72933 2.1371 0.94035 2.7105 0.21141 0.57338 0.57671 1.5304 0.81232 2.1267 0.2356 0.59631 0.60173 1.497 0.8136 2.0016 0.21225 0.50457 0.46829 1.0821 0.5692 1.2836 0.10092 0.201 0.2648 0.49206 0.36405 0.64635 0.0988 0.15387 0.29607 0.42618 0.43785 0.60423 0.14178 0.17806 0.37488 0.44202 0.5175 0.58631 0.14261 0.14386 0.38155 0.36279 0.53042 0.4858 0.14929 0.12302 0.43993 0.33527 0.64635 0.47121 0.20641 0.13594 0.52417 0.32235 0.70598 0.41367 0.18182 0.0917 0.49832 0.23101 0.70348 0.309 0.20516 0.0784 0.55336 0.18723 0.77438 0.24227 0.221 0.055 0.54251 0.1251 0.71432 0.15512 0.18431 0.0325 0.63009 0.055 1.0842 0.055s0.89985-0.0225 1.0842-0.055c0.17222-0.03 0.5004-0.10174 0.72933-0.15887 0.22935-0.0571 0.57671-0.16555 0.7719-0.24103 0.19557-0.0755 0.5054-0.21267 0.68847-0.30524 0.18348-0.0922 0.50206-0.27898 0.70848-0.41492 0.20641-0.13594 0.49748-0.34778 0.64635-0.47079 0.14929-0.12302 0.39823-0.35361 0.55378-0.51249 0.15554-0.15888 0.40198-0.4416 0.54752-0.62801 0.14511-0.18681 0.34152-0.4662 0.43576-0.62091 0.0942-0.15471 0.24645-0.43034 0.33819-0.61257 0.0917-0.18223 0.3803-0.8436 0.64134-1.4699 0.26105-0.62634 0.63884-1.5613 0.83985-2.077 0.20058-0.51625 0.52376-1.3699 0.71808-1.8974 0.19432-0.52751 0.59506-1.6818 0.88988-2.5646 0.29481-0.88275 0.68554-2.1026 0.8682-2.7105 0.18222-0.60799 0.45453-1.5462 0.60423-2.085 0.15012-0.53877 0.39365-1.4587 0.54168-2.0433 0.14804-0.58506 0.36405-1.4762 0.48039-1.9808 0.11592-0.50457 0.2944-1.3114 0.39615-1.7931 0.10216-0.48164 0.2723-1.3306 0.3778-1.8865 0.10592-0.55586 0.27564-1.5033 0.37697-2.1058 0.10133-0.60215 0.26021-1.63 0.35236-2.2835 0.0926-0.65386 0.21518-1.5825 0.27272-2.0642 0.0575-0.48164 0.15179-1.3398 0.20975-1.907 0.0575-0.56712 0.10467-1.0767 0.10467-1.1321 0-0.083-0.1251-0.19015-0.69847-0.60006-0.38406-0.27481-0.97036-0.71098-1.3031-0.96952-0.33235-0.25854-0.87195-0.6939-1.1993-0.96743-0.32692-0.27313-0.88987-0.76267-1.251-1.088-0.3607-0.32484-0.9633-0.89115-1.3386-1.2585-0.37572-0.36738-0.95993-0.96787-1.2986-1.3348-0.3386-0.36696-0.78022-0.85485-0.98122-1.0842-0.20099-0.22935-0.60965-0.71724-0.90862-1.0842-0.29899-0.36696-0.82403-1.0425-1.1668-1.5012-0.34236-0.4587-0.91695-1.2752-1.276-1.814-0.35945-0.53918-0.86107-1.3274-1.115-1.7514-0.25396-0.42451-0.64094-1.1-0.85988-1.5012-0.21892-0.40157-0.47913-0.89407-0.57838-1.0946-0.0988-0.20058-0.19057-0.36488-0.20308-0.36488z"/>
 </g>
</g></svg>
